<svg xmlns="http://www.w3.org/2000/svg" xmlns:xlink="http://www.w3.org/1999/xlink" width="600" zoomAndPan="magnify" viewBox="0 0 450 179.999997" height="240" preserveAspectRatio="xMidYMid meet" version="1.0"><defs><g/></defs><rect x="-45" width="540" fill="#ffffff" y="-18" height="215.999996" fill-opacity="1"/><rect x="-45" width="540" fill="#ffffff" y="-18" height="215.999996" fill-opacity="1"/><g fill="#3c4444" fill-opacity="1"><g transform="translate(185.097649, 70.874996)"><g><path d="M 1.671875 0 C 1.421875 0 1.203125 -0.0859375 1.015625 -0.265625 C 0.835938 -0.453125 0.75 -0.671875 0.75 -0.921875 C 0.75 -1.523438 0.972656 -2.039062 1.421875 -2.46875 C 3.054688 -3.976562 4.285156 -5.273438 5.109375 -6.359375 C 5.929688 -7.441406 6.34375 -8.40625 6.34375 -9.25 C 6.34375 -9.851562 6.1875 -10.316406 5.875 -10.640625 C 5.570312 -10.972656 5.148438 -11.140625 4.609375 -11.140625 C 4.148438 -11.140625 3.695312 -10.984375 3.25 -10.671875 C 2.957031 -10.472656 2.648438 -10.375 2.328125 -10.375 C 2.003906 -10.375 1.710938 -10.484375 1.453125 -10.703125 C 1.210938 -10.941406 1.09375 -11.234375 1.09375 -11.578125 C 1.09375 -11.921875 1.226562 -12.195312 1.5 -12.40625 C 2.5 -13.226562 3.679688 -13.640625 5.046875 -13.640625 C 6.347656 -13.640625 7.40625 -13.253906 8.21875 -12.484375 C 9.03125 -11.722656 9.4375 -10.707031 9.4375 -9.4375 C 9.4375 -7.5625 8.128906 -5.296875 5.515625 -2.640625 C 5.492188 -2.628906 5.488281 -2.609375 5.5 -2.578125 C 5.519531 -2.546875 5.546875 -2.535156 5.578125 -2.546875 C 6.410156 -2.648438 7.078125 -2.703125 7.578125 -2.703125 L 8.703125 -2.703125 C 9.066406 -2.703125 9.378906 -2.570312 9.640625 -2.3125 C 9.898438 -2.050781 10.03125 -1.734375 10.03125 -1.359375 C 10.03125 -0.984375 9.898438 -0.660156 9.640625 -0.390625 C 9.378906 -0.128906 9.066406 0 8.703125 0 Z M 1.671875 0 "/></g></g><g transform="translate(196.048821, 70.874996)"><g><path d="M 0.734375 -6.765625 C 0.734375 -9.015625 1.15625 -10.722656 2 -11.890625 C 2.851562 -13.054688 4.003906 -13.640625 5.453125 -13.640625 C 6.910156 -13.640625 8.070312 -13.050781 8.9375 -11.875 C 9.800781 -10.695312 10.234375 -8.992188 10.234375 -6.765625 C 10.234375 -4.515625 9.800781 -2.78125 8.9375 -1.5625 C 8.070312 -0.351562 6.914062 0.25 5.46875 0.25 C 4.03125 0.25 2.878906 -0.351562 2.015625 -1.5625 C 1.160156 -2.78125 0.734375 -4.515625 0.734375 -6.765625 Z M 7.203125 -6.765625 C 7.203125 -7.648438 7.15625 -8.390625 7.0625 -8.984375 C 6.976562 -9.585938 6.851562 -10.039062 6.6875 -10.34375 C 6.519531 -10.65625 6.335938 -10.875 6.140625 -11 C 5.953125 -11.125 5.726562 -11.1875 5.46875 -11.1875 C 5.207031 -11.1875 4.984375 -11.125 4.796875 -11 C 4.609375 -10.875 4.429688 -10.65625 4.265625 -10.34375 C 4.109375 -10.039062 3.984375 -9.585938 3.890625 -8.984375 C 3.804688 -8.390625 3.765625 -7.648438 3.765625 -6.765625 C 3.765625 -5.878906 3.804688 -5.128906 3.890625 -4.515625 C 3.984375 -3.910156 4.109375 -3.445312 4.265625 -3.125 C 4.421875 -2.800781 4.59375 -2.570312 4.78125 -2.4375 C 4.976562 -2.300781 5.207031 -2.234375 5.46875 -2.234375 C 5.726562 -2.234375 5.953125 -2.300781 6.140625 -2.4375 C 6.335938 -2.570312 6.519531 -2.800781 6.6875 -3.125 C 6.851562 -3.445312 6.976562 -3.910156 7.0625 -4.515625 C 7.15625 -5.128906 7.203125 -5.878906 7.203125 -6.765625 Z M 7.203125 -6.765625 "/></g></g><g transform="translate(206.999992, 70.874996)"><g><path d="M 1.671875 0 C 1.421875 0 1.203125 -0.0859375 1.015625 -0.265625 C 0.835938 -0.453125 0.75 -0.671875 0.75 -0.921875 C 0.75 -1.523438 0.972656 -2.039062 1.421875 -2.46875 C 3.054688 -3.976562 4.285156 -5.273438 5.109375 -6.359375 C 5.929688 -7.441406 6.34375 -8.40625 6.34375 -9.25 C 6.34375 -9.851562 6.1875 -10.316406 5.875 -10.640625 C 5.570312 -10.972656 5.148438 -11.140625 4.609375 -11.140625 C 4.148438 -11.140625 3.695312 -10.984375 3.25 -10.671875 C 2.957031 -10.472656 2.648438 -10.375 2.328125 -10.375 C 2.003906 -10.375 1.710938 -10.484375 1.453125 -10.703125 C 1.210938 -10.941406 1.09375 -11.234375 1.09375 -11.578125 C 1.09375 -11.921875 1.226562 -12.195312 1.5 -12.40625 C 2.5 -13.226562 3.679688 -13.640625 5.046875 -13.640625 C 6.347656 -13.640625 7.40625 -13.253906 8.21875 -12.484375 C 9.03125 -11.722656 9.4375 -10.707031 9.4375 -9.4375 C 9.4375 -7.5625 8.128906 -5.296875 5.515625 -2.640625 C 5.492188 -2.628906 5.488281 -2.609375 5.5 -2.578125 C 5.519531 -2.546875 5.546875 -2.535156 5.578125 -2.546875 C 6.410156 -2.648438 7.078125 -2.703125 7.578125 -2.703125 L 8.703125 -2.703125 C 9.066406 -2.703125 9.378906 -2.570312 9.640625 -2.3125 C 9.898438 -2.050781 10.03125 -1.734375 10.03125 -1.359375 C 10.03125 -0.984375 9.898438 -0.660156 9.640625 -0.390625 C 9.378906 -0.128906 9.066406 0 8.703125 0 Z M 1.671875 0 "/></g></g><g transform="translate(217.951163, 70.874996)"><g><path d="M 3.546875 -5.921875 C 3.523438 -5.890625 3.519531 -5.859375 3.53125 -5.828125 C 3.550781 -5.796875 3.585938 -5.78125 3.640625 -5.78125 L 5.84375 -5.78125 C 5.957031 -5.78125 6.015625 -5.835938 6.015625 -5.953125 L 6.015625 -7.734375 C 6.015625 -7.796875 6.054688 -8.773438 6.140625 -10.671875 C 6.140625 -10.691406 6.125 -10.703125 6.09375 -10.703125 C 6.070312 -10.703125 6.054688 -10.691406 6.046875 -10.671875 C 5.660156 -9.804688 5.3125 -9.054688 5 -8.421875 Z M 9.28125 -5.78125 C 9.625 -5.78125 9.910156 -5.660156 10.140625 -5.421875 C 10.378906 -5.179688 10.5 -4.894531 10.5 -4.5625 C 10.5 -4.226562 10.378906 -3.941406 10.140625 -3.703125 C 9.910156 -3.460938 9.625 -3.34375 9.28125 -3.34375 L 9.15625 -3.34375 C 9.050781 -3.34375 9 -3.296875 9 -3.203125 L 9 -1.5 C 9 -1.082031 8.851562 -0.726562 8.5625 -0.4375 C 8.269531 -0.144531 7.914062 0 7.5 0 C 7.09375 0 6.742188 -0.144531 6.453125 -0.4375 C 6.160156 -0.726562 6.015625 -1.082031 6.015625 -1.5 L 6.015625 -3.171875 C 6.015625 -3.285156 5.957031 -3.34375 5.84375 -3.34375 L 1.515625 -3.34375 C 1.191406 -3.34375 0.925781 -3.445312 0.71875 -3.65625 C 0.507812 -3.875 0.40625 -4.140625 0.40625 -4.453125 C 0.40625 -5.191406 0.59375 -5.878906 0.96875 -6.515625 L 4.265625 -12.078125 C 4.515625 -12.484375 4.84375 -12.800781 5.25 -13.03125 C 5.664062 -13.269531 6.113281 -13.390625 6.59375 -13.390625 L 7.46875 -13.390625 C 7.894531 -13.390625 8.253906 -13.238281 8.546875 -12.9375 C 8.847656 -12.644531 9 -12.285156 9 -11.859375 L 9 -5.921875 C 9 -5.828125 9.050781 -5.78125 9.15625 -5.78125 Z M 9.28125 -5.78125 "/></g></g><g transform="translate(228.902334, 70.874996)"><g><path d="M 6.0625 -4.671875 C 6.0625 -4.554688 6.117188 -4.5 6.234375 -4.5 L 8.515625 -4.5 C 8.628906 -4.5 8.6875 -4.554688 8.6875 -4.671875 L 8.6875 -6.5625 C 8.6875 -6.675781 8.628906 -6.734375 8.515625 -6.734375 L 6.234375 -6.734375 C 6.117188 -6.734375 6.0625 -6.675781 6.0625 -6.5625 Z M 8.6875 -10.828125 C 8.6875 -10.941406 8.628906 -11 8.515625 -11 L 5.296875 -11 C 5.171875 -11 5.082031 -10.945312 5.03125 -10.84375 C 4.738281 -10.34375 4.398438 -9.828125 4.015625 -9.296875 C 3.984375 -9.273438 3.976562 -9.242188 4 -9.203125 C 4.019531 -9.171875 4.046875 -9.15625 4.078125 -9.15625 L 8.515625 -9.15625 C 8.628906 -9.15625 8.6875 -9.210938 8.6875 -9.328125 Z M 16.078125 -4.5 C 16.429688 -4.5 16.726562 -4.375 16.96875 -4.125 C 17.21875 -3.882812 17.34375 -3.585938 17.34375 -3.234375 C 17.34375 -2.890625 17.21875 -2.59375 16.96875 -2.34375 C 16.726562 -2.101562 16.429688 -1.984375 16.078125 -1.984375 L 11.546875 -1.984375 C 11.429688 -1.984375 11.375 -1.925781 11.375 -1.8125 L 11.375 0.359375 C 11.375 0.734375 11.238281 1.050781 10.96875 1.3125 C 10.707031 1.570312 10.390625 1.703125 10.015625 1.703125 C 9.648438 1.703125 9.335938 1.570312 9.078125 1.3125 C 8.816406 1.050781 8.6875 0.734375 8.6875 0.359375 L 8.6875 -1.8125 C 8.6875 -1.925781 8.628906 -1.984375 8.515625 -1.984375 L 1.921875 -1.984375 C 1.566406 -1.984375 1.265625 -2.101562 1.015625 -2.34375 C 0.773438 -2.59375 0.65625 -2.890625 0.65625 -3.234375 C 0.65625 -3.585938 0.773438 -3.882812 1.015625 -4.125 C 1.265625 -4.375 1.566406 -4.5 1.921875 -4.5 L 3.265625 -4.5 C 3.390625 -4.5 3.453125 -4.554688 3.453125 -4.671875 L 3.453125 -8.453125 C 3.453125 -8.460938 3.441406 -8.46875 3.421875 -8.46875 C 3.398438 -8.476562 3.382812 -8.476562 3.375 -8.46875 C 3.21875 -8.289062 3.019531 -8.191406 2.78125 -8.171875 C 2.757812 -8.171875 2.738281 -8.171875 2.71875 -8.171875 C 2.5 -8.171875 2.300781 -8.242188 2.125 -8.390625 C 1.988281 -8.503906 1.847656 -8.617188 1.703125 -8.734375 C 1.410156 -8.941406 1.253906 -9.226562 1.234375 -9.59375 C 1.222656 -9.644531 1.21875 -9.6875 1.21875 -9.71875 C 1.21875 -10.019531 1.320312 -10.296875 1.53125 -10.546875 C 2.394531 -11.566406 3.113281 -12.773438 3.6875 -14.171875 C 3.84375 -14.535156 4.097656 -14.8125 4.453125 -15 C 4.671875 -15.113281 4.90625 -15.171875 5.15625 -15.171875 C 5.269531 -15.171875 5.390625 -15.15625 5.515625 -15.125 L 5.671875 -15.078125 C 5.992188 -14.992188 6.226562 -14.804688 6.375 -14.515625 C 6.457031 -14.367188 6.5 -14.210938 6.5 -14.046875 C 6.5 -13.921875 6.476562 -13.785156 6.4375 -13.640625 C 6.414062 -13.617188 6.414062 -13.59375 6.4375 -13.5625 C 6.457031 -13.53125 6.476562 -13.515625 6.5 -13.515625 L 15.03125 -13.515625 C 15.382812 -13.515625 15.679688 -13.390625 15.921875 -13.140625 C 16.171875 -12.898438 16.296875 -12.609375 16.296875 -12.265625 C 16.296875 -11.921875 16.171875 -11.625 15.921875 -11.375 C 15.679688 -11.125 15.382812 -11 15.03125 -11 L 11.546875 -11 C 11.429688 -11 11.375 -10.941406 11.375 -10.828125 L 11.375 -9.328125 C 11.375 -9.210938 11.429688 -9.15625 11.546875 -9.15625 L 14.640625 -9.15625 C 14.984375 -9.15625 15.269531 -9.035156 15.5 -8.796875 C 15.738281 -8.566406 15.859375 -8.28125 15.859375 -7.9375 C 15.859375 -7.601562 15.738281 -7.316406 15.5 -7.078125 C 15.269531 -6.847656 14.984375 -6.734375 14.640625 -6.734375 L 11.546875 -6.734375 C 11.429688 -6.734375 11.375 -6.675781 11.375 -6.5625 L 11.375 -4.671875 C 11.375 -4.554688 11.429688 -4.5 11.546875 -4.5 Z M 16.078125 -4.5 "/></g></g><g transform="translate(246.902333, 70.874996)"><g><path d="M 4.578125 -11.53125 C 4.453125 -11.53125 4.390625 -11.472656 4.390625 -11.359375 L 4.390625 -8.859375 C 4.390625 -4.890625 3.921875 -1.785156 2.984375 0.453125 C 2.859375 0.765625 2.628906 0.953125 2.296875 1.015625 C 2.203125 1.046875 2.117188 1.0625 2.046875 1.0625 C 1.804688 1.0625 1.585938 0.984375 1.390625 0.828125 C 1.097656 0.640625 0.898438 0.367188 0.796875 0.015625 C 0.742188 -0.117188 0.71875 -0.265625 0.71875 -0.421875 C 0.71875 -0.609375 0.753906 -0.796875 0.828125 -0.984375 C 1.265625 -2.078125 1.550781 -3.28125 1.6875 -4.59375 C 1.832031 -5.90625 1.90625 -7.328125 1.90625 -8.859375 L 1.90625 -12.328125 C 1.90625 -12.753906 2.050781 -13.113281 2.34375 -13.40625 C 2.632812 -13.707031 2.992188 -13.859375 3.421875 -13.859375 L 8.0625 -13.859375 C 8.175781 -13.859375 8.234375 -13.910156 8.234375 -14.015625 L 8.234375 -14.03125 C 8.234375 -14.40625 8.363281 -14.726562 8.625 -15 C 8.894531 -15.269531 9.21875 -15.40625 9.59375 -15.40625 C 9.96875 -15.40625 10.289062 -15.269531 10.5625 -15 C 10.832031 -14.726562 10.96875 -14.40625 10.96875 -14.03125 L 10.96875 -14.015625 C 10.96875 -13.910156 11.019531 -13.859375 11.125 -13.859375 L 16.03125 -13.859375 C 16.34375 -13.859375 16.613281 -13.742188 16.84375 -13.515625 C 17.070312 -13.296875 17.1875 -13.023438 17.1875 -12.703125 C 17.1875 -12.378906 17.070312 -12.101562 16.84375 -11.875 C 16.613281 -11.644531 16.34375 -11.53125 16.03125 -11.53125 Z M 12.09375 -8.109375 C 12.09375 -8.222656 12.035156 -8.28125 11.921875 -8.28125 L 9.59375 -8.28125 C 9.476562 -8.28125 9.421875 -8.222656 9.421875 -8.109375 L 9.421875 -7.671875 C 9.421875 -7.546875 9.476562 -7.484375 9.59375 -7.484375 L 11.921875 -7.484375 C 12.035156 -7.484375 12.09375 -7.546875 12.09375 -7.671875 Z M 14.671875 -7.0625 C 14.671875 -6.644531 14.519531 -6.285156 14.21875 -5.984375 C 13.925781 -5.679688 13.570312 -5.53125 13.15625 -5.53125 L 8.46875 -5.53125 C 8.050781 -5.53125 7.691406 -5.679688 7.390625 -5.984375 C 7.085938 -6.285156 6.9375 -6.644531 6.9375 -7.0625 L 6.9375 -8.109375 C 6.9375 -8.222656 6.878906 -8.28125 6.765625 -8.28125 L 5.78125 -8.28125 C 5.5 -8.28125 5.257812 -8.378906 5.0625 -8.578125 C 4.863281 -8.773438 4.765625 -9.015625 4.765625 -9.296875 C 4.765625 -9.578125 4.863281 -9.816406 5.0625 -10.015625 C 5.257812 -10.210938 5.5 -10.3125 5.78125 -10.3125 L 6.859375 -10.3125 C 6.910156 -10.3125 6.9375 -10.34375 6.9375 -10.40625 C 6.9375 -10.65625 7.019531 -10.863281 7.1875 -11.03125 C 7.363281 -11.195312 7.578125 -11.28125 7.828125 -11.28125 L 8.546875 -11.28125 C 8.785156 -11.28125 8.988281 -11.195312 9.15625 -11.03125 C 9.332031 -10.863281 9.421875 -10.65625 9.421875 -10.40625 C 9.421875 -10.34375 9.453125 -10.3125 9.515625 -10.3125 L 11.984375 -10.3125 C 12.054688 -10.3125 12.09375 -10.34375 12.09375 -10.40625 C 12.09375 -10.65625 12.175781 -10.863281 12.34375 -11.03125 C 12.519531 -11.195312 12.726562 -11.28125 12.96875 -11.28125 L 13.796875 -11.28125 C 14.046875 -11.28125 14.253906 -11.195312 14.421875 -11.03125 C 14.585938 -10.863281 14.671875 -10.65625 14.671875 -10.40625 C 14.671875 -10.34375 14.703125 -10.3125 14.765625 -10.3125 L 16.078125 -10.3125 C 16.359375 -10.3125 16.597656 -10.210938 16.796875 -10.015625 C 17.003906 -9.816406 17.109375 -9.578125 17.109375 -9.296875 C 17.109375 -9.015625 17.003906 -8.773438 16.796875 -8.578125 C 16.597656 -8.378906 16.359375 -8.28125 16.078125 -8.28125 L 14.859375 -8.28125 C 14.734375 -8.28125 14.671875 -8.222656 14.671875 -8.109375 Z M 12.34375 -2.953125 C 12.363281 -2.960938 12.367188 -2.984375 12.359375 -3.015625 C 12.347656 -3.046875 12.332031 -3.0625 12.3125 -3.0625 L 9.453125 -3.0625 C 9.429688 -3.0625 9.414062 -3.046875 9.40625 -3.015625 C 9.394531 -2.984375 9.398438 -2.957031 9.421875 -2.9375 C 9.773438 -2.644531 10.207031 -2.363281 10.71875 -2.09375 C 10.820312 -2.039062 10.921875 -2.039062 11.015625 -2.09375 C 11.484375 -2.320312 11.925781 -2.609375 12.34375 -2.953125 Z M 14.375 -5.078125 C 14.457031 -5.097656 14.539062 -5.109375 14.625 -5.109375 C 14.800781 -5.109375 14.976562 -5.070312 15.15625 -5 L 15.59375 -4.765625 C 15.820312 -4.648438 15.972656 -4.472656 16.046875 -4.234375 C 16.085938 -4.140625 16.109375 -4.050781 16.109375 -3.96875 C 16.109375 -3.832031 16.066406 -3.691406 15.984375 -3.546875 C 15.410156 -2.617188 14.671875 -1.816406 13.765625 -1.140625 C 13.742188 -1.128906 13.734375 -1.101562 13.734375 -1.0625 C 13.742188 -1.03125 13.765625 -1.007812 13.796875 -1 C 14.566406 -0.832031 15.367188 -0.695312 16.203125 -0.59375 C 16.484375 -0.5625 16.6875 -0.414062 16.8125 -0.15625 C 16.851562 -0.0390625 16.875 0.0664062 16.875 0.171875 C 16.875 0.316406 16.820312 0.457031 16.71875 0.59375 C 16.476562 0.957031 16.179688 1.226562 15.828125 1.40625 C 15.554688 1.550781 15.28125 1.625 15 1.625 C 14.894531 1.625 14.785156 1.609375 14.671875 1.578125 C 13.296875 1.347656 12.0625 1.003906 10.96875 0.546875 C 10.851562 0.492188 10.742188 0.488281 10.640625 0.53125 C 9.410156 0.976562 7.960938 1.328125 6.296875 1.578125 C 6.222656 1.609375 6.144531 1.625 6.0625 1.625 C 5.800781 1.625 5.554688 1.550781 5.328125 1.40625 C 5.023438 1.21875 4.789062 0.960938 4.625 0.640625 C 4.5625 0.515625 4.53125 0.390625 4.53125 0.265625 C 4.53125 0.140625 4.5625 0.015625 4.625 -0.109375 C 4.75 -0.367188 4.945312 -0.507812 5.21875 -0.53125 C 6.269531 -0.65625 7.210938 -0.816406 8.046875 -1.015625 C 8.085938 -1.023438 8.113281 -1.046875 8.125 -1.078125 C 8.132812 -1.117188 8.125 -1.148438 8.09375 -1.171875 C 7.75 -1.453125 7.429688 -1.753906 7.140625 -2.078125 C 7.035156 -2.179688 6.984375 -2.300781 6.984375 -2.4375 C 6.984375 -2.5 6.988281 -2.5625 7 -2.625 C 7.050781 -2.820312 7.1875 -2.957031 7.40625 -3.03125 C 7.40625 -3.03125 7.40625 -3.035156 7.40625 -3.046875 C 7.40625 -3.054688 7.398438 -3.0625 7.390625 -3.0625 L 5.859375 -3.0625 C 5.578125 -3.0625 5.332031 -3.160156 5.125 -3.359375 C 4.925781 -3.554688 4.828125 -3.789062 4.828125 -4.0625 C 4.828125 -4.34375 4.925781 -4.582031 5.125 -4.78125 C 5.332031 -4.976562 5.578125 -5.078125 5.859375 -5.078125 L 14.28125 -5.078125 C 14.3125 -5.078125 14.34375 -5.078125 14.375 -5.078125 Z M 14.375 -5.078125 "/></g></g></g><g fill="#3c4444" fill-opacity="1"><g transform="translate(161.999994, 95.624994)"><g><path d="M 3.6875 -10.3125 C 3.570312 -10.3125 3.515625 -10.253906 3.515625 -10.140625 L 3.515625 -9.1875 C 3.515625 -8.851562 3.394531 -8.566406 3.15625 -8.328125 C 2.914062 -8.097656 2.625 -7.984375 2.28125 -7.984375 C 1.945312 -7.984375 1.660156 -8.097656 1.421875 -8.328125 C 1.179688 -8.566406 1.0625 -8.851562 1.0625 -9.1875 L 1.0625 -11.078125 C 1.0625 -11.492188 1.207031 -11.851562 1.5 -12.15625 C 1.800781 -12.457031 2.160156 -12.609375 2.578125 -12.609375 L 3.171875 -12.609375 C 3.210938 -12.609375 3.238281 -12.625 3.25 -12.65625 C 3.269531 -12.6875 3.269531 -12.722656 3.25 -12.765625 C 3.15625 -12.910156 3.054688 -13.066406 2.953125 -13.234375 C 2.835938 -13.421875 2.78125 -13.609375 2.78125 -13.796875 C 2.78125 -13.890625 2.789062 -13.988281 2.8125 -14.09375 C 2.894531 -14.382812 3.078125 -14.597656 3.359375 -14.734375 C 3.578125 -14.828125 3.800781 -14.875 4.03125 -14.875 C 4.144531 -14.875 4.265625 -14.863281 4.390625 -14.84375 C 4.753906 -14.757812 5.039062 -14.570312 5.25 -14.28125 C 5.457031 -14.019531 5.628906 -13.769531 5.765625 -13.53125 C 5.859375 -13.375 5.875 -13.207031 5.8125 -13.03125 C 5.75 -12.851562 5.628906 -12.722656 5.453125 -12.640625 C 5.453125 -12.628906 5.453125 -12.617188 5.453125 -12.609375 C 5.453125 -12.609375 5.457031 -12.609375 5.46875 -12.609375 L 7.578125 -12.609375 C 7.617188 -12.609375 7.648438 -12.625 7.671875 -12.65625 C 7.703125 -12.6875 7.710938 -12.722656 7.703125 -12.765625 C 7.597656 -13.003906 7.472656 -13.265625 7.328125 -13.546875 C 7.242188 -13.710938 7.203125 -13.878906 7.203125 -14.046875 C 7.203125 -14.171875 7.226562 -14.304688 7.28125 -14.453125 C 7.382812 -14.753906 7.585938 -14.957031 7.890625 -15.0625 C 8.078125 -15.132812 8.265625 -15.171875 8.453125 -15.171875 C 8.609375 -15.171875 8.769531 -15.144531 8.9375 -15.09375 C 9.28125 -14.976562 9.546875 -14.769531 9.734375 -14.46875 C 9.859375 -14.257812 9.972656 -14.054688 10.078125 -13.859375 C 10.128906 -13.722656 10.15625 -13.597656 10.15625 -13.484375 C 10.15625 -13.367188 10.132812 -13.25 10.09375 -13.125 C 9.988281 -12.894531 9.804688 -12.734375 9.546875 -12.640625 C 9.546875 -12.640625 9.546875 -12.632812 9.546875 -12.625 C 9.546875 -12.613281 9.550781 -12.609375 9.5625 -12.609375 L 11.765625 -12.609375 C 11.878906 -12.609375 11.96875 -12.65625 12.03125 -12.75 C 12.257812 -13.125 12.476562 -13.507812 12.6875 -13.90625 C 12.882812 -14.289062 13.171875 -14.570312 13.546875 -14.75 C 13.785156 -14.863281 14.03125 -14.921875 14.28125 -14.921875 C 14.425781 -14.921875 14.578125 -14.898438 14.734375 -14.859375 C 15.085938 -14.765625 15.320312 -14.546875 15.4375 -14.203125 C 15.476562 -14.078125 15.5 -13.953125 15.5 -13.828125 C 15.5 -13.617188 15.4375 -13.421875 15.3125 -13.234375 C 15.164062 -13.054688 15.035156 -12.894531 14.921875 -12.75 C 14.898438 -12.707031 14.894531 -12.671875 14.90625 -12.640625 C 14.925781 -12.617188 14.957031 -12.609375 15 -12.609375 L 15.46875 -12.609375 C 15.894531 -12.609375 16.253906 -12.457031 16.546875 -12.15625 C 16.847656 -11.851562 17 -11.492188 17 -11.078125 L 17 -9.265625 C 17 -8.910156 16.875 -8.609375 16.625 -8.359375 C 16.375 -8.109375 16.066406 -7.984375 15.703125 -7.984375 C 15.347656 -7.984375 15.046875 -8.109375 14.796875 -8.359375 C 14.546875 -8.609375 14.421875 -8.910156 14.421875 -9.265625 L 14.421875 -10.140625 C 14.421875 -10.253906 14.359375 -10.3125 14.234375 -10.3125 Z M 15.9375 -5.1875 C 16.269531 -5.1875 16.550781 -5.066406 16.78125 -4.828125 C 17.019531 -4.597656 17.140625 -4.316406 17.140625 -3.984375 C 17.140625 -3.660156 17.019531 -3.378906 16.78125 -3.140625 C 16.550781 -2.910156 16.269531 -2.796875 15.9375 -2.796875 L 10.53125 -2.796875 C 10.414062 -2.796875 10.359375 -2.738281 10.359375 -2.625 L 10.359375 -0.984375 C 10.359375 -0.328125 10.265625 0.175781 10.078125 0.53125 C 9.898438 0.882812 9.570312 1.15625 9.09375 1.34375 C 8.539062 1.550781 7.789062 1.671875 6.84375 1.703125 C 6.800781 1.703125 6.769531 1.703125 6.75 1.703125 C 6.382812 1.703125 6.050781 1.59375 5.75 1.375 C 5.414062 1.125 5.171875 0.804688 5.015625 0.421875 C 4.960938 0.304688 4.9375 0.191406 4.9375 0.078125 C 4.9375 -0.078125 4.984375 -0.234375 5.078125 -0.390625 C 5.242188 -0.648438 5.472656 -0.78125 5.765625 -0.78125 C 5.773438 -0.78125 5.78125 -0.78125 5.78125 -0.78125 C 6.207031 -0.757812 6.679688 -0.75 7.203125 -0.75 C 7.378906 -0.75 7.5 -0.769531 7.5625 -0.8125 C 7.632812 -0.863281 7.671875 -0.953125 7.671875 -1.078125 L 7.671875 -2.625 C 7.671875 -2.738281 7.609375 -2.796875 7.484375 -2.796875 L 2.109375 -2.796875 C 1.785156 -2.796875 1.503906 -2.910156 1.265625 -3.140625 C 1.035156 -3.378906 0.921875 -3.660156 0.921875 -3.984375 C 0.921875 -4.316406 1.035156 -4.597656 1.265625 -4.828125 C 1.503906 -5.066406 1.785156 -5.1875 2.109375 -5.1875 L 7.5625 -5.1875 C 7.632812 -5.1875 7.671875 -5.222656 7.671875 -5.296875 C 7.671875 -5.566406 7.765625 -5.796875 7.953125 -5.984375 C 8.148438 -6.171875 8.375 -6.265625 8.625 -6.265625 L 8.6875 -6.265625 C 8.769531 -6.265625 8.835938 -6.285156 8.890625 -6.328125 C 9.128906 -6.503906 9.347656 -6.675781 9.546875 -6.84375 C 9.566406 -6.851562 9.570312 -6.867188 9.5625 -6.890625 C 9.550781 -6.921875 9.535156 -6.9375 9.515625 -6.9375 L 5.375 -6.9375 C 5.0625 -6.9375 4.796875 -7.046875 4.578125 -7.265625 C 4.359375 -7.492188 4.25 -7.765625 4.25 -8.078125 C 4.25 -8.390625 4.359375 -8.648438 4.578125 -8.859375 C 4.796875 -9.078125 5.0625 -9.1875 5.375 -9.1875 L 11.9375 -9.1875 C 11.96875 -9.1875 12.003906 -9.195312 12.046875 -9.21875 C 12.140625 -9.238281 12.226562 -9.25 12.3125 -9.25 C 12.539062 -9.25 12.753906 -9.171875 12.953125 -9.015625 L 13.359375 -8.703125 C 13.609375 -8.503906 13.734375 -8.253906 13.734375 -7.953125 C 13.734375 -7.703125 13.648438 -7.488281 13.484375 -7.3125 C 12.710938 -6.550781 11.914062 -5.878906 11.09375 -5.296875 C 11.070312 -5.265625 11.0625 -5.238281 11.0625 -5.21875 C 11.070312 -5.195312 11.09375 -5.1875 11.125 -5.1875 Z M 15.9375 -5.1875 "/></g></g><g transform="translate(179.999993, 95.624994)"><g><path d="M 10.265625 -10.34375 C 10.148438 -10.34375 10.09375 -10.28125 10.09375 -10.15625 L 10.09375 -10.0625 C 10.09375 -9.9375 10.148438 -9.875 10.265625 -9.875 L 13.09375 -9.875 C 13.289062 -9.875 13.457031 -9.804688 13.59375 -9.671875 C 13.726562 -9.535156 13.796875 -9.367188 13.796875 -9.171875 C 13.796875 -8.984375 13.726562 -8.816406 13.59375 -8.671875 C 13.457031 -8.535156 13.289062 -8.46875 13.09375 -8.46875 L 4.765625 -8.46875 C 4.578125 -8.46875 4.410156 -8.535156 4.265625 -8.671875 C 4.128906 -8.816406 4.0625 -8.984375 4.0625 -9.171875 C 4.0625 -9.367188 4.128906 -9.535156 4.265625 -9.671875 C 4.410156 -9.804688 4.578125 -9.875 4.765625 -9.875 L 7.5625 -9.875 C 7.675781 -9.875 7.734375 -9.9375 7.734375 -10.0625 L 7.734375 -10.15625 C 7.734375 -10.28125 7.675781 -10.34375 7.5625 -10.34375 L 5.5 -10.34375 C 5.3125 -10.34375 5.148438 -10.40625 5.015625 -10.53125 C 4.878906 -10.65625 4.8125 -10.8125 4.8125 -11 C 4.8125 -11.1875 4.878906 -11.347656 5.015625 -11.484375 C 5.148438 -11.617188 5.3125 -11.6875 5.5 -11.6875 L 7.6875 -11.6875 C 7.71875 -11.6875 7.734375 -11.707031 7.734375 -11.75 C 7.734375 -11.894531 7.785156 -12.019531 7.890625 -12.125 C 8.003906 -12.226562 8.140625 -12.28125 8.296875 -12.28125 L 9.546875 -12.28125 C 9.703125 -12.28125 9.832031 -12.226562 9.9375 -12.125 C 10.039062 -12.019531 10.09375 -11.894531 10.09375 -11.75 C 10.09375 -11.707031 10.113281 -11.6875 10.15625 -11.6875 L 12.5 -11.6875 C 12.6875 -11.6875 12.847656 -11.617188 12.984375 -11.484375 C 13.117188 -11.347656 13.1875 -11.1875 13.1875 -11 C 13.1875 -10.8125 13.117188 -10.65625 12.984375 -10.53125 C 12.847656 -10.40625 12.6875 -10.34375 12.5 -10.34375 Z M 10.6875 -6.21875 C 10.800781 -6.21875 10.859375 -6.28125 10.859375 -6.40625 L 10.859375 -6.65625 C 10.859375 -6.78125 10.800781 -6.84375 10.6875 -6.84375 L 7.1875 -6.84375 C 7.070312 -6.84375 7.015625 -6.78125 7.015625 -6.65625 L 7.015625 -6.40625 C 7.015625 -6.28125 7.070312 -6.21875 7.1875 -6.21875 Z M 10.421875 -5 C 10.378906 -5 10.335938 -4.984375 10.296875 -4.953125 C 10.265625 -4.921875 10.265625 -4.890625 10.296875 -4.859375 C 10.472656 -4.710938 10.644531 -4.578125 10.8125 -4.453125 C 10.914062 -4.390625 11.015625 -4.394531 11.109375 -4.46875 C 11.378906 -4.65625 11.566406 -4.789062 11.671875 -4.875 C 11.691406 -4.894531 11.695312 -4.921875 11.6875 -4.953125 C 11.675781 -4.984375 11.660156 -5 11.640625 -5 Z M 3.625 -1.390625 C 3.625 -1.273438 3.679688 -1.21875 3.796875 -1.21875 L 14.078125 -1.21875 C 14.191406 -1.21875 14.25 -1.273438 14.25 -1.390625 L 14.25 -12.25 C 14.25 -12.363281 14.191406 -12.421875 14.078125 -12.421875 L 3.796875 -12.421875 C 3.679688 -12.421875 3.625 -12.363281 3.625 -12.25 L 3.625 -3.5625 C 3.625 -3.519531 3.640625 -3.484375 3.671875 -3.453125 C 3.710938 -3.421875 3.75 -3.410156 3.78125 -3.421875 C 5.082031 -3.816406 6.226562 -4.304688 7.21875 -4.890625 C 7.25 -4.910156 7.257812 -4.929688 7.25 -4.953125 C 7.25 -4.984375 7.234375 -5 7.203125 -5 L 6.421875 -5 C 5.984375 -5 5.617188 -5.144531 5.328125 -5.4375 C 5.035156 -5.738281 4.890625 -6.097656 4.890625 -6.515625 L 4.890625 -6.5625 C 4.890625 -6.976562 5.035156 -7.335938 5.328125 -7.640625 C 5.617188 -7.941406 5.984375 -8.09375 6.421875 -8.09375 L 11.625 -8.09375 C 12.039062 -8.09375 12.398438 -7.941406 12.703125 -7.640625 C 13.003906 -7.335938 13.15625 -6.976562 13.15625 -6.5625 L 13.15625 -5.359375 C 13.15625 -5.273438 13.179688 -5.210938 13.234375 -5.171875 C 13.441406 -5.035156 13.546875 -4.84375 13.546875 -4.59375 C 13.546875 -4.351562 13.445312 -4.171875 13.25 -4.046875 C 13.039062 -3.910156 12.832031 -3.785156 12.625 -3.671875 C 12.601562 -3.648438 12.59375 -3.617188 12.59375 -3.578125 C 12.59375 -3.546875 12.609375 -3.523438 12.640625 -3.515625 C 12.835938 -3.441406 13.023438 -3.378906 13.203125 -3.328125 C 13.410156 -3.253906 13.550781 -3.109375 13.625 -2.890625 C 13.632812 -2.816406 13.640625 -2.75 13.640625 -2.6875 C 13.640625 -2.539062 13.59375 -2.398438 13.5 -2.265625 C 13.300781 -2.023438 13.054688 -1.859375 12.765625 -1.765625 C 12.628906 -1.710938 12.5 -1.6875 12.375 -1.6875 C 12.21875 -1.6875 12.0625 -1.722656 11.90625 -1.796875 C 11.21875 -2.097656 10.566406 -2.484375 9.953125 -2.953125 C 9.929688 -2.960938 9.90625 -2.960938 9.875 -2.953125 C 9.84375 -2.941406 9.828125 -2.921875 9.828125 -2.890625 L 9.828125 -2.671875 C 9.828125 -2.359375 9.710938 -2.085938 9.484375 -1.859375 C 9.265625 -1.640625 8.992188 -1.53125 8.671875 -1.53125 C 8.359375 -1.53125 8.09375 -1.640625 7.875 -1.859375 C 7.65625 -2.085938 7.546875 -2.359375 7.546875 -2.671875 L 7.546875 -2.796875 C 7.546875 -2.816406 7.53125 -2.835938 7.5 -2.859375 C 7.46875 -2.878906 7.441406 -2.878906 7.421875 -2.859375 C 7.078125 -2.671875 6.738281 -2.503906 6.40625 -2.359375 C 6.144531 -2.242188 5.882812 -2.1875 5.625 -2.1875 C 5.457031 -2.1875 5.296875 -2.207031 5.140625 -2.25 C 4.710938 -2.363281 4.34375 -2.597656 4.03125 -2.953125 C 3.925781 -3.054688 3.832031 -3.15625 3.75 -3.25 C 3.71875 -3.269531 3.6875 -3.269531 3.65625 -3.25 C 3.632812 -3.238281 3.625 -3.21875 3.625 -3.1875 Z M 1.171875 -13.234375 C 1.171875 -13.660156 1.320312 -14.019531 1.625 -14.3125 C 1.925781 -14.613281 2.285156 -14.765625 2.703125 -14.765625 L 15.28125 -14.765625 C 15.695312 -14.765625 16.054688 -14.613281 16.359375 -14.3125 C 16.660156 -14.019531 16.8125 -13.660156 16.8125 -13.234375 L 16.8125 0.453125 C 16.8125 0.804688 16.6875 1.101562 16.4375 1.34375 C 16.1875 1.59375 15.890625 1.71875 15.546875 1.71875 L 14.78125 1.71875 C 14.644531 1.71875 14.519531 1.664062 14.40625 1.5625 C 14.300781 1.46875 14.25 1.347656 14.25 1.203125 C 14.25 1.160156 14.234375 1.140625 14.203125 1.140625 L 3.671875 1.140625 C 3.640625 1.140625 3.625 1.160156 3.625 1.203125 C 3.625 1.347656 3.570312 1.46875 3.46875 1.5625 C 3.363281 1.664062 3.238281 1.71875 3.09375 1.71875 L 2.390625 1.71875 C 2.046875 1.71875 1.753906 1.597656 1.515625 1.359375 C 1.285156 1.128906 1.171875 0.847656 1.171875 0.515625 Z M 1.171875 -13.234375 "/></g></g><g transform="translate(197.999992, 95.624994)"><g><path d="M 2.75 -2 C 3.007812 -2.320312 3.328125 -2.554688 3.703125 -2.703125 C 3.921875 -2.785156 4.132812 -2.828125 4.34375 -2.828125 C 4.5 -2.828125 4.65625 -2.804688 4.8125 -2.765625 C 5.15625 -2.660156 5.382812 -2.445312 5.5 -2.125 C 5.550781 -2.007812 5.578125 -1.890625 5.578125 -1.765625 C 5.578125 -1.578125 5.515625 -1.398438 5.390625 -1.234375 C 4.890625 -0.515625 4.3125 0.132812 3.65625 0.71875 C 3.375 0.96875 3.050781 1.09375 2.6875 1.09375 C 2.664062 1.09375 2.644531 1.09375 2.625 1.09375 C 2.238281 1.082031 1.882812 0.945312 1.5625 0.6875 C 1.320312 0.488281 1.203125 0.234375 1.203125 -0.078125 C 1.203125 -0.410156 1.328125 -0.679688 1.578125 -0.890625 C 2.015625 -1.234375 2.40625 -1.601562 2.75 -2 Z M 12.453125 -1.015625 C 12.265625 -1.203125 12.171875 -1.429688 12.171875 -1.703125 C 12.171875 -1.742188 12.171875 -1.78125 12.171875 -1.8125 C 12.203125 -2.113281 12.347656 -2.34375 12.609375 -2.5 C 12.890625 -2.664062 13.191406 -2.75 13.515625 -2.75 C 13.566406 -2.75 13.617188 -2.75 13.671875 -2.75 C 14.046875 -2.707031 14.375 -2.566406 14.65625 -2.328125 C 15.28125 -1.796875 15.820312 -1.296875 16.28125 -0.828125 C 16.476562 -0.617188 16.578125 -0.378906 16.578125 -0.109375 C 16.578125 -0.0351562 16.570312 0.03125 16.5625 0.09375 C 16.5 0.457031 16.3125 0.734375 16 0.921875 C 15.757812 1.054688 15.503906 1.125 15.234375 1.125 C 15.140625 1.125 15.039062 1.113281 14.9375 1.09375 C 14.5625 1.019531 14.25 0.835938 14 0.546875 C 13.550781 0.0546875 13.035156 -0.460938 12.453125 -1.015625 Z M 2.921875 -5.75 C 2.898438 -5.738281 2.890625 -5.722656 2.890625 -5.703125 C 2.898438 -5.679688 2.914062 -5.671875 2.9375 -5.671875 L 15.21875 -5.671875 C 15.226562 -5.671875 15.238281 -5.679688 15.25 -5.703125 C 15.257812 -5.722656 15.25 -5.738281 15.21875 -5.75 C 14.15625 -6.238281 13.238281 -6.847656 12.46875 -7.578125 C 12.457031 -7.585938 12.441406 -7.585938 12.421875 -7.578125 C 12.410156 -7.578125 12.40625 -7.566406 12.40625 -7.546875 C 12.40625 -7.347656 12.332031 -7.171875 12.1875 -7.015625 C 12.039062 -6.867188 11.863281 -6.796875 11.65625 -6.796875 L 6.296875 -6.796875 C 6.128906 -6.796875 5.984375 -6.859375 5.859375 -6.984375 C 5.734375 -7.109375 5.671875 -7.257812 5.671875 -7.4375 C 5.671875 -7.445312 5.660156 -7.453125 5.640625 -7.453125 C 5.628906 -7.460938 5.617188 -7.460938 5.609375 -7.453125 C 4.804688 -6.773438 3.910156 -6.207031 2.921875 -5.75 Z M 4.046875 -11.140625 C 3.953125 -11.210938 3.863281 -11.207031 3.78125 -11.125 C 3.757812 -11.101562 3.726562 -11.066406 3.6875 -11.015625 C 3.644531 -10.972656 3.617188 -10.945312 3.609375 -10.9375 C 3.523438 -10.84375 3.53125 -10.757812 3.625 -10.6875 C 4 -10.40625 4.316406 -10.164062 4.578125 -9.96875 C 4.648438 -9.882812 4.726562 -9.882812 4.8125 -9.96875 C 4.84375 -10 4.878906 -10.035156 4.921875 -10.078125 C 4.972656 -10.128906 5.007812 -10.171875 5.03125 -10.203125 C 5.113281 -10.296875 5.109375 -10.375 5.015625 -10.4375 C 4.796875 -10.613281 4.472656 -10.847656 4.046875 -11.140625 Z M 6.5 -12.484375 C 6.507812 -12.515625 6.503906 -12.546875 6.484375 -12.578125 C 6.460938 -12.617188 6.4375 -12.640625 6.40625 -12.640625 L 5.171875 -12.640625 C 5.097656 -12.640625 5.039062 -12.613281 5 -12.5625 C 4.957031 -12.507812 4.96875 -12.460938 5.03125 -12.421875 C 5.300781 -12.265625 5.617188 -12.0625 5.984375 -11.8125 C 6.078125 -11.75 6.148438 -11.765625 6.203125 -11.859375 C 6.316406 -12.085938 6.414062 -12.296875 6.5 -12.484375 Z M 7.34375 -9.265625 C 7.320312 -9.242188 7.316406 -9.210938 7.328125 -9.171875 C 7.347656 -9.140625 7.378906 -9.125 7.421875 -9.125 L 10.9375 -9.125 C 10.96875 -9.125 10.992188 -9.140625 11.015625 -9.171875 C 11.035156 -9.210938 11.03125 -9.242188 11 -9.265625 C 10.332031 -10.242188 9.757812 -11.414062 9.28125 -12.78125 C 9.269531 -12.800781 9.25 -12.8125 9.21875 -12.8125 C 9.1875 -12.8125 9.164062 -12.800781 9.15625 -12.78125 C 8.738281 -11.5 8.132812 -10.328125 7.34375 -9.265625 Z M 13.6875 -12.109375 C 13.71875 -12.148438 13.722656 -12.179688 13.703125 -12.203125 C 13.679688 -12.234375 13.648438 -12.25 13.609375 -12.25 L 12.203125 -12.25 C 12.160156 -12.25 12.128906 -12.234375 12.109375 -12.203125 C 12.085938 -12.179688 12.085938 -12.148438 12.109375 -12.109375 C 12.335938 -11.710938 12.554688 -11.363281 12.765625 -11.0625 C 12.785156 -11.019531 12.816406 -11 12.859375 -11 C 12.910156 -11 12.945312 -11.019531 12.96875 -11.0625 C 13.164062 -11.332031 13.40625 -11.679688 13.6875 -12.109375 Z M 15.265625 -14.375 C 15.367188 -14.40625 15.46875 -14.421875 15.5625 -14.421875 C 15.75 -14.421875 15.929688 -14.359375 16.109375 -14.234375 L 16.5625 -13.921875 C 16.789062 -13.753906 16.9375 -13.53125 17 -13.25 C 17.019531 -13.164062 17.03125 -13.085938 17.03125 -13.015625 C 17.03125 -12.828125 16.976562 -12.644531 16.875 -12.46875 C 16.15625 -11.300781 15.394531 -10.273438 14.59375 -9.390625 C 14.507812 -9.296875 14.515625 -9.210938 14.609375 -9.140625 C 15.179688 -8.691406 15.828125 -8.316406 16.546875 -8.015625 C 16.835938 -7.890625 17.023438 -7.664062 17.109375 -7.34375 C 17.128906 -7.25 17.140625 -7.160156 17.140625 -7.078125 C 17.140625 -6.867188 17.066406 -6.675781 16.921875 -6.5 C 16.703125 -6.195312 16.515625 -5.90625 16.359375 -5.625 C 16.242188 -5.4375 16.085938 -5.382812 15.890625 -5.46875 C 15.867188 -5.46875 15.859375 -5.457031 15.859375 -5.4375 L 15.859375 -4.859375 C 15.859375 -4.429688 15.707031 -4.066406 15.40625 -3.765625 C 15.101562 -3.472656 14.742188 -3.328125 14.328125 -3.328125 L 10.5625 -3.328125 C 10.445312 -3.328125 10.390625 -3.265625 10.390625 -3.140625 L 10.390625 -0.734375 C 10.390625 -0.140625 10.3125 0.316406 10.15625 0.640625 C 10 0.960938 9.707031 1.207031 9.28125 1.375 C 8.8125 1.570312 8.164062 1.679688 7.34375 1.703125 C 7.332031 1.703125 7.316406 1.703125 7.296875 1.703125 C 6.960938 1.703125 6.664062 1.597656 6.40625 1.390625 C 6.125 1.171875 5.914062 0.882812 5.78125 0.53125 C 5.738281 0.425781 5.71875 0.328125 5.71875 0.234375 C 5.71875 0.078125 5.765625 -0.0703125 5.859375 -0.21875 C 6.003906 -0.445312 6.210938 -0.5625 6.484375 -0.5625 C 6.492188 -0.5625 6.5 -0.5625 6.5 -0.5625 C 6.757812 -0.5625 7.046875 -0.5625 7.359375 -0.5625 C 7.503906 -0.5625 7.601562 -0.578125 7.65625 -0.609375 C 7.707031 -0.648438 7.734375 -0.722656 7.734375 -0.828125 L 7.734375 -3.140625 C 7.734375 -3.265625 7.675781 -3.328125 7.5625 -3.328125 L 3.6875 -3.328125 C 3.269531 -3.328125 2.910156 -3.472656 2.609375 -3.765625 C 2.304688 -4.066406 2.15625 -4.429688 2.15625 -4.859375 L 2.15625 -5.34375 C 2.15625 -5.375 2.132812 -5.382812 2.09375 -5.375 C 1.945312 -5.320312 1.800781 -5.320312 1.65625 -5.375 C 1.507812 -5.4375 1.394531 -5.535156 1.3125 -5.671875 C 1.207031 -5.859375 1.09375 -6.046875 0.96875 -6.234375 C 0.863281 -6.398438 0.8125 -6.578125 0.8125 -6.765625 C 0.8125 -6.847656 0.820312 -6.9375 0.84375 -7.03125 C 0.925781 -7.320312 1.101562 -7.519531 1.375 -7.625 C 2.03125 -7.894531 2.628906 -8.21875 3.171875 -8.59375 C 3.273438 -8.664062 3.28125 -8.738281 3.1875 -8.8125 C 2.832031 -9.144531 2.515625 -9.429688 2.234375 -9.671875 C 2.203125 -9.691406 2.164062 -9.691406 2.125 -9.671875 C 2.007812 -9.585938 1.882812 -9.554688 1.75 -9.578125 C 1.613281 -9.597656 1.5 -9.664062 1.40625 -9.78125 C 1.28125 -9.9375 1.140625 -10.097656 0.984375 -10.265625 C 0.796875 -10.460938 0.703125 -10.691406 0.703125 -10.953125 C 0.703125 -11.265625 0.828125 -11.519531 1.078125 -11.71875 C 2.023438 -12.445312 2.804688 -13.304688 3.421875 -14.296875 C 3.628906 -14.609375 3.894531 -14.847656 4.21875 -15.015625 C 4.457031 -15.128906 4.695312 -15.1875 4.9375 -15.1875 C 5.03125 -15.1875 5.125 -15.175781 5.21875 -15.15625 L 5.8125 -15.046875 C 5.96875 -15.023438 6.082031 -14.941406 6.15625 -14.796875 C 6.226562 -14.660156 6.226562 -14.523438 6.15625 -14.390625 C 6.132812 -14.347656 6.144531 -14.328125 6.1875 -14.328125 L 7.421875 -14.328125 C 7.453125 -14.328125 7.476562 -14.332031 7.5 -14.34375 C 7.59375 -14.351562 7.6875 -14.359375 7.78125 -14.359375 C 7.9375 -14.359375 8.09375 -14.332031 8.25 -14.28125 L 8.828125 -14.046875 C 8.835938 -14.046875 8.847656 -14.050781 8.859375 -14.0625 C 8.867188 -14.070312 8.875 -14.082031 8.875 -14.09375 C 8.820312 -14.28125 8.84375 -14.453125 8.9375 -14.609375 C 9.039062 -14.773438 9.1875 -14.878906 9.375 -14.921875 L 9.796875 -15.015625 C 9.878906 -15.023438 9.957031 -15.03125 10.03125 -15.03125 C 10.257812 -15.03125 10.472656 -14.972656 10.671875 -14.859375 C 10.941406 -14.679688 11.128906 -14.441406 11.234375 -14.140625 C 11.328125 -13.859375 11.429688 -13.578125 11.546875 -13.296875 C 11.546875 -13.273438 11.550781 -13.265625 11.5625 -13.265625 C 11.570312 -13.265625 11.578125 -13.28125 11.578125 -13.3125 C 11.578125 -13.601562 11.679688 -13.847656 11.890625 -14.046875 C 12.109375 -14.253906 12.363281 -14.359375 12.65625 -14.359375 L 15.15625 -14.359375 C 15.1875 -14.359375 15.222656 -14.363281 15.265625 -14.375 Z M 15.265625 -14.375 "/></g></g><g transform="translate(215.999991, 95.624994)"><g><path d="M 8.84375 -3.328125 C 8.726562 -3.328125 8.671875 -3.265625 8.671875 -3.140625 L 8.671875 -1.546875 C 8.671875 -1.503906 8.6875 -1.46875 8.71875 -1.4375 C 8.75 -1.40625 8.785156 -1.390625 8.828125 -1.390625 L 10.65625 -1.625 C 10.6875 -1.625 10.710938 -1.640625 10.734375 -1.671875 C 10.753906 -1.710938 10.75 -1.75 10.71875 -1.78125 C 10.46875 -2.15625 10.207031 -2.617188 9.9375 -3.171875 C 9.882812 -3.273438 9.800781 -3.328125 9.6875 -3.328125 Z M 5.03125 -9.46875 C 4.914062 -9.46875 4.859375 -9.410156 4.859375 -9.296875 L 4.859375 -9.28125 C 4.859375 -7.988281 4.8125 -6.785156 4.71875 -5.671875 C 4.71875 -5.628906 4.726562 -5.585938 4.75 -5.546875 C 4.78125 -5.515625 4.820312 -5.5 4.875 -5.5 L 6.96875 -5.5 C 7.082031 -5.5 7.140625 -5.554688 7.140625 -5.671875 L 7.140625 -6.21875 C 7.140625 -6.34375 7.082031 -6.40625 6.96875 -6.40625 L 6.171875 -6.40625 C 5.878906 -6.40625 5.625 -6.507812 5.40625 -6.71875 C 5.195312 -6.925781 5.09375 -7.175781 5.09375 -7.46875 C 5.09375 -7.757812 5.195312 -8.007812 5.40625 -8.21875 C 5.625 -8.4375 5.878906 -8.546875 6.171875 -8.546875 L 6.96875 -8.546875 C 7.082031 -8.546875 7.140625 -8.601562 7.140625 -8.71875 L 7.140625 -9.296875 C 7.140625 -9.410156 7.082031 -9.46875 6.96875 -9.46875 Z M 13.75 -12.3125 C 13.75 -12.425781 13.691406 -12.484375 13.578125 -12.484375 L 5.03125 -12.484375 C 4.914062 -12.484375 4.859375 -12.425781 4.859375 -12.3125 L 4.859375 -11.84375 C 4.859375 -11.726562 4.914062 -11.671875 5.03125 -11.671875 L 13.578125 -11.671875 C 13.691406 -11.671875 13.75 -11.726562 13.75 -11.84375 Z M 11.515625 -8.546875 C 11.628906 -8.546875 11.6875 -8.601562 11.6875 -8.71875 L 11.6875 -9.296875 C 11.6875 -9.410156 11.628906 -9.46875 11.515625 -9.46875 L 9.703125 -9.46875 C 9.585938 -9.46875 9.53125 -9.410156 9.53125 -9.296875 L 9.53125 -8.71875 C 9.53125 -8.601562 9.585938 -8.546875 9.703125 -8.546875 Z M 11.515625 -5.5 C 11.628906 -5.5 11.6875 -5.554688 11.6875 -5.671875 L 11.6875 -6.21875 C 11.6875 -6.34375 11.628906 -6.40625 11.515625 -6.40625 L 9.703125 -6.40625 C 9.585938 -6.40625 9.53125 -6.34375 9.53125 -6.21875 L 9.53125 -5.671875 C 9.53125 -5.554688 9.585938 -5.5 9.703125 -5.5 Z M 14.1875 -3.234375 C 14.207031 -3.242188 14.210938 -3.257812 14.203125 -3.28125 C 14.191406 -3.3125 14.175781 -3.328125 14.15625 -3.328125 L 12.5625 -3.328125 C 12.519531 -3.328125 12.488281 -3.3125 12.46875 -3.28125 C 12.457031 -3.25 12.460938 -3.21875 12.484375 -3.1875 C 12.628906 -2.988281 12.785156 -2.800781 12.953125 -2.625 C 13.035156 -2.539062 13.128906 -2.523438 13.234375 -2.578125 C 13.492188 -2.742188 13.8125 -2.960938 14.1875 -3.234375 Z M 15.6875 -3.328125 C 15.65625 -3.328125 15.632812 -3.3125 15.625 -3.28125 C 15.625 -3.257812 15.628906 -3.242188 15.640625 -3.234375 C 15.921875 -3.046875 16.0625 -2.789062 16.0625 -2.46875 C 16.0625 -2.113281 15.914062 -1.847656 15.625 -1.671875 C 15.4375 -1.566406 15.238281 -1.457031 15.03125 -1.34375 C 15 -1.320312 14.984375 -1.296875 14.984375 -1.265625 C 14.984375 -1.234375 15 -1.203125 15.03125 -1.171875 C 15.394531 -1.015625 15.789062 -0.867188 16.21875 -0.734375 C 16.5 -0.648438 16.6875 -0.46875 16.78125 -0.1875 C 16.820312 -0.0820312 16.84375 0.015625 16.84375 0.109375 C 16.84375 0.273438 16.785156 0.4375 16.671875 0.59375 C 16.441406 0.925781 16.144531 1.164062 15.78125 1.3125 C 15.59375 1.382812 15.40625 1.421875 15.21875 1.421875 C 15.039062 1.421875 14.875 1.394531 14.71875 1.34375 C 13.4375 0.84375 12.367188 0.128906 11.515625 -0.796875 C 11.492188 -0.816406 11.46875 -0.820312 11.4375 -0.8125 C 11.425781 -0.800781 11.421875 -0.753906 11.421875 -0.671875 C 11.421875 -0.335938 11.316406 -0.0390625 11.109375 0.21875 C 10.878906 0.5 10.582031 0.664062 10.21875 0.71875 C 9.507812 0.820312 8.128906 1.015625 6.078125 1.296875 C 6.023438 1.304688 5.96875 1.3125 5.90625 1.3125 C 5.644531 1.3125 5.40625 1.234375 5.1875 1.078125 C 4.925781 0.878906 4.769531 0.613281 4.71875 0.28125 C 4.695312 0.21875 4.6875 0.160156 4.6875 0.109375 C 4.6875 -0.148438 4.769531 -0.378906 4.9375 -0.578125 C 5.132812 -0.835938 5.398438 -0.984375 5.734375 -1.015625 C 5.859375 -1.023438 5.972656 -1.039062 6.078125 -1.0625 C 6.203125 -1.070312 6.265625 -1.132812 6.265625 -1.25 L 6.265625 -3.171875 C 6.265625 -3.273438 6.207031 -3.328125 6.09375 -3.328125 C 5.695312 -3.328125 5.351562 -3.46875 5.0625 -3.75 C 4.78125 -4.039062 4.640625 -4.382812 4.640625 -4.78125 L 4.640625 -4.8125 L 4.625 -4.8125 C 4.363281 -2.625 3.914062 -0.828125 3.28125 0.578125 C 3.144531 0.910156 2.894531 1.117188 2.53125 1.203125 C 2.414062 1.222656 2.304688 1.234375 2.203125 1.234375 C 1.953125 1.234375 1.722656 1.164062 1.515625 1.03125 C 1.191406 0.863281 0.976562 0.601562 0.875 0.25 C 0.832031 0.101562 0.8125 -0.0351562 0.8125 -0.171875 C 0.8125 -0.367188 0.851562 -0.570312 0.9375 -0.78125 C 1.457031 -1.945312 1.800781 -3.238281 1.96875 -4.65625 C 2.132812 -6.070312 2.21875 -7.613281 2.21875 -9.28125 L 2.21875 -13.15625 C 2.21875 -13.570312 2.363281 -13.925781 2.65625 -14.21875 C 2.957031 -14.519531 3.320312 -14.671875 3.75 -14.671875 L 14.875 -14.671875 C 15.289062 -14.671875 15.648438 -14.519531 15.953125 -14.21875 C 16.253906 -13.925781 16.40625 -13.570312 16.40625 -13.15625 L 16.40625 -11 C 16.40625 -10.582031 16.253906 -10.222656 15.953125 -9.921875 C 15.648438 -9.617188 15.289062 -9.46875 14.875 -9.46875 L 14.296875 -9.46875 C 14.171875 -9.46875 14.109375 -9.410156 14.109375 -9.296875 L 14.109375 -8.71875 C 14.109375 -8.601562 14.171875 -8.546875 14.296875 -8.546875 L 15.359375 -8.546875 C 15.671875 -8.546875 15.929688 -8.4375 16.140625 -8.21875 C 16.347656 -8.007812 16.453125 -7.757812 16.453125 -7.46875 C 16.453125 -7.175781 16.347656 -6.925781 16.140625 -6.71875 C 15.929688 -6.507812 15.671875 -6.40625 15.359375 -6.40625 L 14.296875 -6.40625 C 14.171875 -6.40625 14.109375 -6.34375 14.109375 -6.21875 L 14.109375 -5.671875 C 14.109375 -5.554688 14.171875 -5.5 14.296875 -5.5 L 16.203125 -5.5 C 16.515625 -5.5 16.773438 -5.394531 16.984375 -5.1875 C 17.191406 -4.976562 17.296875 -4.722656 17.296875 -4.421875 C 17.296875 -4.117188 17.191406 -3.859375 16.984375 -3.640625 C 16.773438 -3.429688 16.515625 -3.328125 16.203125 -3.328125 Z M 15.6875 -3.328125 "/></g></g><g transform="translate(233.99999, 95.624994)"><g><path d="M 14.09375 -14.734375 C 14.457031 -14.734375 14.765625 -14.601562 15.015625 -14.34375 C 15.273438 -14.09375 15.40625 -13.789062 15.40625 -13.4375 C 15.40625 -13.082031 15.273438 -12.773438 15.015625 -12.515625 C 14.765625 -12.265625 14.457031 -12.140625 14.09375 -12.140625 L 3.875 -12.140625 C 3.507812 -12.140625 3.195312 -12.265625 2.9375 -12.515625 C 2.6875 -12.773438 2.5625 -13.082031 2.5625 -13.4375 C 2.5625 -13.789062 2.6875 -14.09375 2.9375 -14.34375 C 3.195312 -14.601562 3.507812 -14.734375 3.875 -14.734375 Z M 2.65625 -5.390625 C 2.820312 -5.765625 3.085938 -6.046875 3.453125 -6.234375 C 3.679688 -6.359375 3.921875 -6.421875 4.171875 -6.421875 C 4.296875 -6.421875 4.429688 -6.398438 4.578125 -6.359375 C 4.953125 -6.265625 5.222656 -6.050781 5.390625 -5.71875 C 5.472656 -5.539062 5.515625 -5.363281 5.515625 -5.1875 C 5.515625 -5.019531 5.484375 -4.851562 5.421875 -4.6875 C 5.148438 -4.09375 4.84375 -3.503906 4.5 -2.921875 C 4.207031 -2.410156 3.910156 -1.941406 3.609375 -1.515625 C 3.378906 -1.191406 3.0625 -1.003906 2.65625 -0.953125 C 2.582031 -0.953125 2.507812 -0.953125 2.4375 -0.953125 C 2.113281 -0.953125 1.8125 -1.046875 1.53125 -1.234375 C 1.226562 -1.421875 1.046875 -1.695312 0.984375 -2.0625 C 0.972656 -2.125 0.96875 -2.191406 0.96875 -2.265625 C 0.96875 -2.535156 1.054688 -2.789062 1.234375 -3.03125 C 1.472656 -3.34375 1.707031 -3.691406 1.9375 -4.078125 C 2.207031 -4.515625 2.445312 -4.953125 2.65625 -5.390625 Z M 15.84375 -7.8125 L 10.703125 -7.8125 C 10.585938 -7.8125 10.53125 -7.75 10.53125 -7.625 L 10.53125 -1.671875 C 10.53125 -0.953125 10.4375 -0.398438 10.25 -0.015625 C 10.070312 0.367188 9.75 0.664062 9.28125 0.875 C 8.789062 1.09375 8.019531 1.226562 6.96875 1.28125 C 6.9375 1.28125 6.90625 1.28125 6.875 1.28125 C 6.5 1.28125 6.160156 1.160156 5.859375 0.921875 C 5.523438 0.660156 5.289062 0.316406 5.15625 -0.109375 C 5.113281 -0.222656 5.09375 -0.332031 5.09375 -0.4375 C 5.09375 -0.632812 5.15625 -0.820312 5.28125 -1 C 5.46875 -1.257812 5.71875 -1.390625 6.03125 -1.390625 C 6.039062 -1.390625 6.046875 -1.390625 6.046875 -1.390625 C 6.210938 -1.390625 6.363281 -1.390625 6.5 -1.390625 C 6.757812 -1.390625 6.988281 -1.394531 7.1875 -1.40625 C 7.488281 -1.40625 7.640625 -1.515625 7.640625 -1.734375 L 7.640625 -7.625 C 7.640625 -7.75 7.582031 -7.8125 7.46875 -7.8125 L 2.21875 -7.8125 C 1.851562 -7.8125 1.546875 -7.9375 1.296875 -8.1875 C 1.046875 -8.4375 0.921875 -8.742188 0.921875 -9.109375 C 0.921875 -9.472656 1.046875 -9.78125 1.296875 -10.03125 C 1.546875 -10.28125 1.851562 -10.40625 2.21875 -10.40625 L 15.84375 -10.40625 C 16.207031 -10.40625 16.515625 -10.28125 16.765625 -10.03125 C 17.015625 -9.78125 17.140625 -9.472656 17.140625 -9.109375 C 17.140625 -8.742188 17.015625 -8.4375 16.765625 -8.1875 C 16.515625 -7.9375 16.207031 -7.8125 15.84375 -7.8125 Z M 12.640625 -4.671875 C 12.535156 -4.859375 12.484375 -5.050781 12.484375 -5.25 C 12.484375 -5.382812 12.5 -5.515625 12.53125 -5.640625 C 12.644531 -5.984375 12.863281 -6.222656 13.1875 -6.359375 C 13.394531 -6.441406 13.601562 -6.484375 13.8125 -6.484375 C 13.96875 -6.484375 14.128906 -6.460938 14.296875 -6.421875 C 14.671875 -6.296875 14.960938 -6.070312 15.171875 -5.75 C 15.828125 -4.6875 16.347656 -3.722656 16.734375 -2.859375 C 16.828125 -2.660156 16.875 -2.46875 16.875 -2.28125 C 16.875 -2.09375 16.832031 -1.90625 16.75 -1.71875 C 16.570312 -1.332031 16.289062 -1.050781 15.90625 -0.875 C 15.726562 -0.8125 15.5625 -0.78125 15.40625 -0.78125 C 15.21875 -0.78125 15.03125 -0.828125 14.84375 -0.921875 C 14.476562 -1.078125 14.222656 -1.34375 14.078125 -1.71875 C 13.742188 -2.59375 13.265625 -3.578125 12.640625 -4.671875 Z M 12.640625 -4.671875 "/></g></g><g transform="translate(251.999989, 95.624994)"><g><path d="M 3.6875 -14.078125 C 3.84375 -14.421875 4.082031 -14.675781 4.40625 -14.84375 C 4.613281 -14.9375 4.820312 -14.984375 5.03125 -14.984375 C 5.164062 -14.984375 5.304688 -14.957031 5.453125 -14.90625 C 5.785156 -14.800781 6.035156 -14.582031 6.203125 -14.25 C 6.285156 -14.09375 6.328125 -13.925781 6.328125 -13.75 C 6.328125 -13.582031 6.289062 -13.421875 6.21875 -13.265625 C 5.894531 -12.492188 5.535156 -11.738281 5.140625 -11 C 5.085938 -10.894531 5.0625 -10.785156 5.0625 -10.671875 L 5.0625 0.375 C 5.0625 0.738281 4.929688 1.046875 4.671875 1.296875 C 4.421875 1.554688 4.109375 1.6875 3.734375 1.6875 C 3.367188 1.6875 3.054688 1.554688 2.796875 1.296875 C 2.535156 1.046875 2.40625 0.738281 2.40625 0.375 L 2.40625 -6.6875 C 2.40625 -6.707031 2.394531 -6.71875 2.375 -6.71875 C 2.363281 -6.726562 2.351562 -6.726562 2.34375 -6.71875 C 2.207031 -6.570312 2.050781 -6.5 1.875 -6.5 C 1.84375 -6.5 1.804688 -6.5 1.765625 -6.5 C 1.523438 -6.550781 1.359375 -6.679688 1.265625 -6.890625 C 1.171875 -7.078125 1.082031 -7.265625 1 -7.453125 C 0.832031 -7.765625 0.75 -8.097656 0.75 -8.453125 C 0.75 -8.546875 0.757812 -8.632812 0.78125 -8.71875 C 0.820312 -9.175781 0.984375 -9.582031 1.265625 -9.9375 C 2.210938 -11.15625 3.019531 -12.535156 3.6875 -14.078125 Z M 16.359375 -10 L 12.90625 -10 C 12.789062 -10 12.734375 -9.941406 12.734375 -9.828125 L 12.734375 -8.6875 C 12.734375 -8.570312 12.789062 -8.515625 12.90625 -8.515625 L 15.921875 -8.515625 C 16.253906 -8.515625 16.535156 -8.398438 16.765625 -8.171875 C 17.003906 -7.941406 17.125 -7.660156 17.125 -7.328125 C 17.125 -7.003906 17.003906 -6.722656 16.765625 -6.484375 C 16.535156 -6.253906 16.253906 -6.140625 15.921875 -6.140625 L 12.90625 -6.140625 C 12.789062 -6.140625 12.734375 -6.078125 12.734375 -5.953125 L 12.734375 -4.6875 C 12.734375 -4.570312 12.789062 -4.515625 12.90625 -4.515625 L 16.140625 -4.515625 C 16.472656 -4.515625 16.753906 -4.394531 16.984375 -4.15625 C 17.222656 -3.925781 17.34375 -3.640625 17.34375 -3.296875 C 17.34375 -2.960938 17.222656 -2.675781 16.984375 -2.4375 C 16.753906 -2.207031 16.472656 -2.09375 16.140625 -2.09375 L 12.90625 -2.09375 C 12.789062 -2.09375 12.734375 -2.035156 12.734375 -1.921875 L 12.734375 0.359375 C 12.734375 0.734375 12.597656 1.050781 12.328125 1.3125 C 12.066406 1.570312 11.75 1.703125 11.375 1.703125 C 11 1.703125 10.675781 1.570312 10.40625 1.3125 C 10.144531 1.050781 10.015625 0.734375 10.015625 0.359375 L 10.015625 -9.84375 C 10.015625 -9.945312 9.957031 -10 9.84375 -10 C 9.738281 -10 9.65625 -9.953125 9.59375 -9.859375 C 9.15625 -9.066406 8.707031 -8.351562 8.25 -7.71875 C 8.03125 -7.4375 7.742188 -7.285156 7.390625 -7.265625 C 7.359375 -7.265625 7.335938 -7.265625 7.328125 -7.265625 C 6.992188 -7.265625 6.703125 -7.378906 6.453125 -7.609375 C 6.179688 -7.859375 6.035156 -8.171875 6.015625 -8.546875 C 6.015625 -8.578125 6.015625 -8.613281 6.015625 -8.65625 C 6.015625 -8.96875 6.113281 -9.253906 6.3125 -9.515625 C 7.28125 -10.773438 8.09375 -12.273438 8.75 -14.015625 C 8.882812 -14.359375 9.113281 -14.613281 9.4375 -14.78125 C 9.644531 -14.894531 9.863281 -14.953125 10.09375 -14.953125 C 10.207031 -14.953125 10.320312 -14.9375 10.4375 -14.90625 C 10.78125 -14.820312 11.035156 -14.625 11.203125 -14.3125 C 11.296875 -14.132812 11.34375 -13.957031 11.34375 -13.78125 C 11.34375 -13.644531 11.3125 -13.503906 11.25 -13.359375 C 11.15625 -13.128906 11.0625 -12.894531 10.96875 -12.65625 C 10.945312 -12.625 10.945312 -12.585938 10.96875 -12.546875 C 10.988281 -12.515625 11.023438 -12.5 11.078125 -12.5 L 16.359375 -12.5 C 16.703125 -12.5 16.992188 -12.375 17.234375 -12.125 C 17.472656 -11.882812 17.59375 -11.59375 17.59375 -11.25 C 17.59375 -10.90625 17.472656 -10.609375 17.234375 -10.359375 C 16.992188 -10.117188 16.703125 -10 16.359375 -10 Z M 16.359375 -10 "/></g></g><g transform="translate(269.999988, 95.624994)"><g><path d="M 11.71875 -10.359375 C 11.84375 -10.359375 11.90625 -10.414062 11.90625 -10.53125 L 11.90625 -12.03125 C 11.90625 -12.144531 11.84375 -12.203125 11.71875 -12.203125 L 6.21875 -12.203125 C 6.101562 -12.203125 6.046875 -12.144531 6.046875 -12.03125 L 6.046875 -10.53125 C 6.046875 -10.414062 6.101562 -10.359375 6.21875 -10.359375 Z M 13.046875 -14.71875 C 13.460938 -14.71875 13.820312 -14.566406 14.125 -14.265625 C 14.425781 -13.960938 14.578125 -13.601562 14.578125 -13.1875 L 14.578125 -9.390625 C 14.578125 -8.960938 14.425781 -8.597656 14.125 -8.296875 C 13.820312 -8.003906 13.460938 -7.859375 13.046875 -7.859375 L 5.0625 -7.859375 C 4.644531 -7.859375 4.285156 -8.003906 3.984375 -8.296875 C 3.679688 -8.597656 3.53125 -8.960938 3.53125 -9.390625 L 3.53125 -13.1875 C 3.53125 -13.601562 3.679688 -13.960938 3.984375 -14.265625 C 4.285156 -14.566406 4.644531 -14.71875 5.0625 -14.71875 Z M 5.671875 -3.90625 C 5.671875 -4.019531 5.613281 -4.078125 5.5 -4.078125 L 3.78125 -4.078125 C 3.664062 -4.078125 3.609375 -4.019531 3.609375 -3.90625 L 3.609375 -1.828125 C 3.609375 -1.710938 3.664062 -1.65625 3.78125 -1.65625 L 5.5 -1.65625 C 5.613281 -1.65625 5.671875 -1.710938 5.671875 -1.828125 Z M 2.375 1.703125 C 2.03125 1.703125 1.738281 1.582031 1.5 1.34375 C 1.257812 1.101562 1.140625 0.8125 1.140625 0.46875 L 1.140625 -5.0625 C 1.140625 -5.488281 1.285156 -5.847656 1.578125 -6.140625 C 1.867188 -6.441406 2.234375 -6.59375 2.671875 -6.59375 L 6.75 -6.59375 C 7.175781 -6.59375 7.535156 -6.441406 7.828125 -6.140625 C 8.128906 -5.847656 8.28125 -5.488281 8.28125 -5.0625 L 8.28125 0.328125 C 8.28125 0.691406 8.15625 1 7.90625 1.25 C 7.65625 1.507812 7.347656 1.640625 6.984375 1.640625 L 6.375 1.640625 C 6.175781 1.640625 6.007812 1.570312 5.875 1.4375 C 5.738281 1.300781 5.671875 1.132812 5.671875 0.9375 C 5.671875 0.875 5.644531 0.84375 5.59375 0.84375 L 3.6875 0.84375 C 3.632812 0.84375 3.609375 0.875 3.609375 0.9375 C 3.609375 1.144531 3.53125 1.320312 3.375 1.46875 C 3.21875 1.625 3.035156 1.703125 2.828125 1.703125 Z M 12.0625 -1.828125 C 12.0625 -1.710938 12.117188 -1.65625 12.234375 -1.65625 L 14.078125 -1.65625 C 14.191406 -1.65625 14.25 -1.710938 14.25 -1.828125 L 14.25 -3.90625 C 14.25 -4.019531 14.191406 -4.078125 14.078125 -4.078125 L 12.234375 -4.078125 C 12.117188 -4.078125 12.0625 -4.019531 12.0625 -3.90625 Z M 9.5625 -5.0625 C 9.5625 -5.488281 9.707031 -5.847656 10 -6.140625 C 10.300781 -6.441406 10.664062 -6.59375 11.09375 -6.59375 L 15.359375 -6.59375 C 15.785156 -6.59375 16.144531 -6.441406 16.4375 -6.140625 C 16.738281 -5.847656 16.890625 -5.488281 16.890625 -5.0625 L 16.890625 0.3125 C 16.890625 0.675781 16.757812 0.988281 16.5 1.25 C 16.25 1.507812 15.941406 1.640625 15.578125 1.640625 L 14.953125 1.640625 C 14.765625 1.640625 14.597656 1.570312 14.453125 1.4375 C 14.316406 1.300781 14.25 1.132812 14.25 0.9375 C 14.25 0.875 14.222656 0.84375 14.171875 0.84375 L 12.140625 0.84375 C 12.085938 0.84375 12.0625 0.875 12.0625 0.9375 C 12.0625 1.144531 11.984375 1.320312 11.828125 1.46875 C 11.679688 1.625 11.5 1.703125 11.28125 1.703125 L 10.8125 1.703125 C 10.457031 1.703125 10.160156 1.582031 9.921875 1.34375 C 9.679688 1.101562 9.5625 0.804688 9.5625 0.453125 Z M 9.5625 -5.0625 "/></g></g></g><g fill="#3c4444" fill-opacity="1"><g transform="translate(182.636712, 120.374993)"><g><path d="M 13.734375 -7.6875 C 13.847656 -7.6875 13.90625 -7.742188 13.90625 -7.859375 L 13.90625 -9.375 C 13.90625 -9.488281 13.847656 -9.546875 13.734375 -9.546875 L 10.390625 -9.546875 C 10.273438 -9.546875 10.21875 -9.488281 10.21875 -9.375 L 10.21875 -7.859375 C 10.21875 -7.742188 10.273438 -7.6875 10.390625 -7.6875 Z M 3.46875 -6.78125 C 3.46875 -6.738281 3.484375 -6.695312 3.515625 -6.65625 C 3.546875 -6.625 3.585938 -6.609375 3.640625 -6.609375 L 4.390625 -6.609375 C 4.515625 -6.609375 4.578125 -6.664062 4.578125 -6.78125 L 4.578125 -8.1875 C 4.578125 -8.3125 4.515625 -8.375 4.390625 -8.375 L 3.65625 -8.375 C 3.539062 -8.375 3.484375 -8.3125 3.484375 -8.1875 C 3.484375 -7.582031 3.476562 -7.113281 3.46875 -6.78125 Z M 4.578125 -12.25 C 4.578125 -12.363281 4.515625 -12.421875 4.390625 -12.421875 L 3.65625 -12.421875 C 3.539062 -12.421875 3.484375 -12.363281 3.484375 -12.25 L 3.484375 -10.90625 C 3.484375 -10.78125 3.539062 -10.71875 3.65625 -10.71875 L 4.390625 -10.71875 C 4.515625 -10.71875 4.578125 -10.78125 4.578125 -10.90625 Z M 15.078125 -0.859375 L 15.3125 -0.859375 C 15.394531 -0.859375 15.457031 -0.914062 15.5 -1.03125 C 15.539062 -1.15625 15.566406 -1.398438 15.578125 -1.765625 C 15.597656 -2.015625 15.726562 -2.207031 15.96875 -2.34375 C 16.09375 -2.40625 16.21875 -2.4375 16.34375 -2.4375 C 16.46875 -2.4375 16.582031 -2.414062 16.6875 -2.375 C 17.019531 -2.226562 17.285156 -2.007812 17.484375 -1.71875 C 17.640625 -1.488281 17.71875 -1.25 17.71875 -1 C 17.71875 -0.914062 17.707031 -0.84375 17.6875 -0.78125 C 17.539062 0.0703125 17.304688 0.660156 16.984375 0.984375 C 16.660156 1.316406 16.203125 1.484375 15.609375 1.484375 L 14.59375 1.484375 C 13.707031 1.484375 13.117188 1.269531 12.828125 0.84375 C 12.546875 0.425781 12.40625 -0.351562 12.40625 -1.5 L 12.40625 -5.234375 C 12.40625 -5.359375 12.347656 -5.421875 12.234375 -5.421875 L 11.90625 -5.421875 C 11.78125 -5.421875 11.710938 -5.359375 11.703125 -5.234375 C 11.597656 -3.816406 11.363281 -2.613281 11 -1.625 C 10.632812 -0.632812 10.007812 0.21875 9.125 0.9375 C 8.875 1.09375 8.613281 1.171875 8.34375 1.171875 C 8.238281 1.171875 8.128906 1.160156 8.015625 1.140625 C 7.617188 1.035156 7.285156 0.804688 7.015625 0.453125 C 6.960938 0.390625 6.910156 0.328125 6.859375 0.265625 C 6.835938 0.234375 6.804688 0.222656 6.765625 0.234375 C 6.734375 0.242188 6.710938 0.265625 6.703125 0.296875 C 6.578125 0.597656 6.394531 0.835938 6.15625 1.015625 C 5.875 1.234375 5.515625 1.375 5.078125 1.4375 C 5.023438 1.445312 4.96875 1.453125 4.90625 1.453125 C 4.632812 1.453125 4.394531 1.359375 4.1875 1.171875 C 3.914062 0.941406 3.734375 0.648438 3.640625 0.296875 L 3.640625 0.28125 C 3.628906 0.238281 3.625 0.1875 3.625 0.125 C 3.625 -0.226562 3.910156 -0.566406 4.484375 -0.890625 C 4.546875 -0.929688 4.578125 -1.015625 4.578125 -1.140625 L 4.578125 -4.03125 C 4.578125 -4.144531 4.515625 -4.203125 4.390625 -4.203125 L 3.515625 -4.203125 C 3.398438 -4.203125 3.34375 -4.144531 3.34375 -4.03125 C 3.226562 -2.195312 3.003906 -0.664062 2.671875 0.5625 C 2.597656 0.832031 2.425781 1.015625 2.15625 1.109375 C 2.050781 1.140625 1.945312 1.15625 1.84375 1.15625 C 1.675781 1.15625 1.519531 1.113281 1.375 1.03125 C 1.09375 0.882812 0.882812 0.664062 0.75 0.375 C 0.675781 0.1875 0.640625 -0.0078125 0.640625 -0.21875 C 0.640625 -0.320312 0.648438 -0.429688 0.671875 -0.546875 C 1.078125 -2.234375 1.28125 -4.78125 1.28125 -8.1875 L 1.28125 -13.25 C 1.28125 -13.675781 1.429688 -14.035156 1.734375 -14.328125 C 2.035156 -14.628906 2.394531 -14.78125 2.8125 -14.78125 L 5.328125 -14.78125 C 5.742188 -14.78125 6.101562 -14.628906 6.40625 -14.328125 C 6.707031 -14.035156 6.859375 -13.675781 6.859375 -13.25 L 6.859375 -1.078125 C 6.859375 -0.953125 6.859375 -0.863281 6.859375 -0.8125 C 6.859375 -0.769531 6.867188 -0.738281 6.890625 -0.71875 C 6.921875 -0.695312 6.957031 -0.695312 7 -0.71875 C 7.78125 -1.207031 8.3125 -1.8125 8.59375 -2.53125 C 8.882812 -3.25 9.070312 -4.15625 9.15625 -5.25 C 9.15625 -5.363281 9.101562 -5.421875 9 -5.421875 C 8.625 -5.421875 8.300781 -5.550781 8.03125 -5.8125 C 7.769531 -6.070312 7.640625 -6.390625 7.640625 -6.765625 L 7.640625 -10.390625 C 7.640625 -10.773438 7.78125 -11.109375 8.0625 -11.390625 C 8.34375 -11.671875 8.679688 -11.8125 9.078125 -11.8125 C 9.109375 -11.8125 9.132812 -11.828125 9.15625 -11.859375 C 9.175781 -11.898438 9.179688 -11.9375 9.171875 -11.96875 C 9.015625 -12.40625 8.8125 -12.867188 8.5625 -13.359375 C 8.476562 -13.523438 8.4375 -13.695312 8.4375 -13.875 C 8.4375 -13.988281 8.453125 -14.109375 8.484375 -14.234375 C 8.597656 -14.546875 8.800781 -14.757812 9.09375 -14.875 C 9.28125 -14.957031 9.46875 -15 9.65625 -15 C 9.789062 -15 9.9375 -14.972656 10.09375 -14.921875 C 10.425781 -14.816406 10.679688 -14.617188 10.859375 -14.328125 C 11.097656 -13.921875 11.304688 -13.535156 11.484375 -13.171875 C 11.535156 -13.035156 11.5625 -12.90625 11.5625 -12.78125 C 11.5625 -12.65625 11.535156 -12.523438 11.484375 -12.390625 C 11.378906 -12.148438 11.191406 -11.96875 10.921875 -11.84375 C 10.921875 -11.84375 10.921875 -11.835938 10.921875 -11.828125 C 10.921875 -11.816406 10.925781 -11.8125 10.9375 -11.8125 L 12.25 -11.8125 C 12.363281 -11.8125 12.445312 -11.863281 12.5 -11.96875 C 12.78125 -12.601562 13.046875 -13.269531 13.296875 -13.96875 C 13.421875 -14.34375 13.65625 -14.625 14 -14.8125 C 14.21875 -14.9375 14.4375 -15 14.65625 -15 C 14.800781 -15 14.941406 -14.972656 15.078125 -14.921875 C 15.441406 -14.816406 15.703125 -14.585938 15.859375 -14.234375 C 15.941406 -14.078125 15.984375 -13.910156 15.984375 -13.734375 C 15.984375 -13.554688 15.9375 -13.378906 15.84375 -13.203125 C 15.613281 -12.742188 15.398438 -12.320312 15.203125 -11.9375 C 15.191406 -11.914062 15.191406 -11.890625 15.203125 -11.859375 C 15.222656 -11.828125 15.253906 -11.8125 15.296875 -11.8125 C 15.648438 -11.8125 15.953125 -11.6875 16.203125 -11.4375 C 16.453125 -11.1875 16.578125 -10.878906 16.578125 -10.515625 L 16.578125 -6.90625 C 16.578125 -6.5 16.429688 -6.148438 16.140625 -5.859375 C 15.859375 -5.566406 15.507812 -5.421875 15.09375 -5.421875 C 14.976562 -5.421875 14.921875 -5.363281 14.921875 -5.25 L 14.921875 -1.515625 C 14.921875 -1.222656 14.929688 -1.039062 14.953125 -0.96875 C 14.972656 -0.894531 15.015625 -0.859375 15.078125 -0.859375 Z M 15.078125 -0.859375 "/></g></g><g transform="translate(200.636711, 120.374993)"><g><path d="M 13.65625 -4.6875 C 13.65625 -5.082031 13.789062 -5.410156 14.0625 -5.671875 C 14.332031 -5.929688 14.65625 -6.0625 15.03125 -6.0625 C 15.40625 -6.0625 15.726562 -5.929688 16 -5.671875 C 16.269531 -5.410156 16.40625 -5.082031 16.40625 -4.6875 L 16.40625 0.328125 C 16.40625 0.722656 16.269531 1.050781 16 1.3125 C 15.726562 1.570312 15.40625 1.703125 15.03125 1.703125 L 14.578125 1.703125 C 14.316406 1.703125 14.097656 1.613281 13.921875 1.4375 C 13.742188 1.257812 13.65625 1.050781 13.65625 0.8125 C 13.65625 0.738281 13.617188 0.703125 13.546875 0.703125 L 4.46875 0.703125 C 4.394531 0.703125 4.359375 0.738281 4.359375 0.8125 C 4.359375 1.050781 4.269531 1.257812 4.09375 1.4375 C 3.914062 1.613281 3.703125 1.703125 3.453125 1.703125 L 3.03125 1.703125 C 2.664062 1.703125 2.347656 1.570312 2.078125 1.3125 C 1.816406 1.0625 1.6875 0.753906 1.6875 0.390625 L 1.6875 -4.734375 C 1.6875 -5.109375 1.816406 -5.421875 2.078125 -5.671875 C 2.347656 -5.929688 2.660156 -6.0625 3.015625 -6.0625 C 3.378906 -6.0625 3.691406 -5.929688 3.953125 -5.671875 C 4.222656 -5.421875 4.359375 -5.109375 4.359375 -4.734375 L 4.359375 -2.015625 C 4.359375 -1.898438 4.414062 -1.84375 4.53125 -1.84375 L 7.34375 -1.84375 C 7.46875 -1.84375 7.53125 -1.898438 7.53125 -2.015625 L 7.53125 -6.75 C 7.53125 -6.863281 7.46875 -6.921875 7.34375 -6.921875 L 3.9375 -6.921875 C 3.519531 -6.921875 3.160156 -7.070312 2.859375 -7.375 C 2.554688 -7.675781 2.40625 -8.035156 2.40625 -8.453125 L 2.40625 -12.390625 C 2.40625 -12.742188 2.535156 -13.046875 2.796875 -13.296875 C 3.054688 -13.554688 3.363281 -13.6875 3.71875 -13.6875 C 4.082031 -13.6875 4.394531 -13.554688 4.65625 -13.296875 C 4.914062 -13.046875 5.046875 -12.742188 5.046875 -12.390625 L 5.046875 -9.65625 C 5.046875 -9.53125 5.101562 -9.46875 5.21875 -9.46875 L 7.34375 -9.46875 C 7.46875 -9.46875 7.53125 -9.53125 7.53125 -9.65625 L 7.53125 -13.796875 C 7.53125 -14.171875 7.660156 -14.488281 7.921875 -14.75 C 8.179688 -15.019531 8.5 -15.15625 8.875 -15.15625 C 9.25 -15.15625 9.570312 -15.019531 9.84375 -14.75 C 10.113281 -14.488281 10.25 -14.171875 10.25 -13.796875 L 10.25 -9.65625 C 10.25 -9.53125 10.304688 -9.46875 10.421875 -9.46875 L 12.734375 -9.46875 C 12.847656 -9.46875 12.90625 -9.53125 12.90625 -9.65625 L 12.90625 -12.328125 C 12.90625 -12.710938 13.039062 -13.039062 13.3125 -13.3125 C 13.582031 -13.582031 13.910156 -13.71875 14.296875 -13.71875 C 14.679688 -13.71875 15.007812 -13.582031 15.28125 -13.3125 C 15.550781 -13.039062 15.6875 -12.710938 15.6875 -12.328125 L 15.6875 -8.453125 C 15.6875 -8.035156 15.535156 -7.675781 15.234375 -7.375 C 14.929688 -7.070312 14.570312 -6.921875 14.15625 -6.921875 L 10.421875 -6.921875 C 10.304688 -6.921875 10.25 -6.863281 10.25 -6.75 L 10.25 -2.015625 C 10.25 -1.898438 10.304688 -1.84375 10.421875 -1.84375 L 13.484375 -1.84375 C 13.597656 -1.84375 13.65625 -1.898438 13.65625 -2.015625 Z M 13.65625 -4.6875 "/></g></g><g transform="translate(218.63671, 120.374993)"><g><path d="M 10.0625 -13.75 C 10.0625 -14.144531 10.257812 -14.34375 10.65625 -14.34375 C 11.0625 -14.34375 11.265625 -14.144531 11.265625 -13.75 L 11.265625 -12.40625 C 11.265625 -12.007812 11.066406 -11.8125 10.671875 -11.8125 C 10.265625 -11.8125 10.0625 -12.007812 10.0625 -12.40625 Z M 11.953125 -13.75 C 11.953125 -14.144531 12.148438 -14.34375 12.546875 -14.34375 C 12.960938 -14.34375 13.171875 -14.144531 13.171875 -13.75 L 13.171875 -12.40625 C 13.171875 -12.007812 12.96875 -11.8125 12.5625 -11.8125 C 12.15625 -11.8125 11.953125 -12.007812 11.953125 -12.40625 Z M 6.1875 -12.515625 C 6.09375 -12.023438 5.976562 -11.570312 5.84375 -11.15625 L 11.71875 -11.15625 C 12.65625 -11.15625 13.125 -10.6875 13.125 -9.75 C 13.125 -8.8125 12.65625 -8.34375 11.71875 -8.34375 L 10.359375 -8.34375 C 10.171875 -6.644531 9.75 -5.222656 9.09375 -4.078125 C 8.445312 -2.929688 7.722656 -2.03125 6.921875 -1.375 C 6.128906 -0.726562 5.132812 -0.101562 3.9375 0.5 C 3.1875 0.757812 2.601562 0.546875 2.1875 -0.140625 C 1.945312 -0.984375 2.132812 -1.546875 2.75 -1.828125 C 3.4375 -2.109375 4.085938 -2.488281 4.703125 -2.96875 C 5.328125 -3.445312 5.910156 -4.109375 6.453125 -4.953125 C 7.003906 -5.796875 7.378906 -6.925781 7.578125 -8.34375 L 4.640625 -8.34375 C 4.078125 -7.382812 3.445312 -6.597656 2.75 -5.984375 C 2.164062 -5.441406 1.554688 -5.441406 0.921875 -5.984375 C 0.546875 -6.648438 0.59375 -7.234375 1.0625 -7.734375 C 1.851562 -8.722656 2.453125 -9.71875 2.859375 -10.71875 C 3.273438 -11.71875 3.519531 -12.484375 3.59375 -13.015625 C 3.757812 -13.804688 4.296875 -14.15625 5.203125 -14.0625 C 6.078125 -13.789062 6.40625 -13.273438 6.1875 -12.515625 Z M 6.1875 -12.515625 "/></g></g><g transform="translate(232.50585, 120.374993)"><g><path d="M 0.875 -6.625 C 0.875 -7.539062 1.332031 -8 2.25 -8 L 7.625 -8 C 8.539062 -8 9 -7.539062 9 -6.625 C 9 -5.695312 8.539062 -5.234375 7.625 -5.234375 L 2.25 -5.234375 C 1.332031 -5.234375 0.875 -5.691406 0.875 -6.609375 Z M 0.875 -6.625 "/></g></g><g transform="translate(242.349599, 120.374993)"><g><path d="M 6.75 -11.8125 C 6.59375 -10.875 6.304688 -9.632812 5.890625 -8.09375 C 5.484375 -6.550781 5 -4.972656 4.4375 -3.359375 C 4.25 -2.796875 4.425781 -2.507812 4.96875 -2.5 L 9.015625 -2.5 C 9.523438 -2.507812 9.710938 -2.769531 9.578125 -3.28125 C 9.503906 -3.65625 9.125 -4.859375 8.4375 -6.890625 C 8.132812 -7.691406 8.394531 -8.28125 9.21875 -8.65625 C 10.070312 -8.875 10.65625 -8.546875 10.96875 -7.671875 C 11.375 -6.703125 11.820312 -5.34375 12.3125 -3.59375 C 12.664062 -2.21875 12.578125 -1.226562 12.046875 -0.625 C 11.515625 -0.0195312 10.691406 0.273438 9.578125 0.265625 L 3.75 0.265625 C 2.707031 0.234375 1.960938 -0.175781 1.515625 -0.96875 C 1.078125 -1.757812 1.070312 -2.691406 1.5 -3.765625 C 2.28125 -5.859375 2.867188 -7.617188 3.265625 -9.046875 C 3.671875 -10.484375 3.941406 -11.523438 4.078125 -12.171875 C 4.265625 -13.117188 4.828125 -13.515625 5.765625 -13.359375 C 6.578125 -13.160156 6.90625 -12.644531 6.75 -11.8125 Z M 6.75 -11.8125 "/></g></g><g transform="translate(256.39452, 120.374993)"><g><path d="M 1.671875 0 C 1.421875 0 1.203125 -0.0859375 1.015625 -0.265625 C 0.835938 -0.453125 0.75 -0.671875 0.75 -0.921875 C 0.75 -1.523438 0.972656 -2.039062 1.421875 -2.46875 C 3.054688 -3.976562 4.285156 -5.273438 5.109375 -6.359375 C 5.929688 -7.441406 6.34375 -8.40625 6.34375 -9.25 C 6.34375 -9.851562 6.1875 -10.316406 5.875 -10.640625 C 5.570312 -10.972656 5.148438 -11.140625 4.609375 -11.140625 C 4.148438 -11.140625 3.695312 -10.984375 3.25 -10.671875 C 2.957031 -10.472656 2.648438 -10.375 2.328125 -10.375 C 2.003906 -10.375 1.710938 -10.484375 1.453125 -10.703125 C 1.210938 -10.941406 1.09375 -11.234375 1.09375 -11.578125 C 1.09375 -11.921875 1.226562 -12.195312 1.5 -12.40625 C 2.5 -13.226562 3.679688 -13.640625 5.046875 -13.640625 C 6.347656 -13.640625 7.40625 -13.253906 8.21875 -12.484375 C 9.03125 -11.722656 9.4375 -10.707031 9.4375 -9.4375 C 9.4375 -7.5625 8.128906 -5.296875 5.515625 -2.640625 C 5.492188 -2.628906 5.488281 -2.609375 5.5 -2.578125 C 5.519531 -2.546875 5.546875 -2.535156 5.578125 -2.546875 C 6.410156 -2.648438 7.078125 -2.703125 7.578125 -2.703125 L 8.703125 -2.703125 C 9.066406 -2.703125 9.378906 -2.570312 9.640625 -2.3125 C 9.898438 -2.050781 10.03125 -1.734375 10.03125 -1.359375 C 10.03125 -0.984375 9.898438 -0.660156 9.640625 -0.390625 C 9.378906 -0.128906 9.066406 0 8.703125 0 Z M 1.671875 0 "/></g></g></g></svg>