<svg xmlns="http://www.w3.org/2000/svg" xmlns:xlink="http://www.w3.org/1999/xlink" width="600" zoomAndPan="magnify" viewBox="0 0 450 179.999997" height="240" preserveAspectRatio="xMidYMid meet" version="1.0"><defs><g/></defs><rect x="-45" width="540" fill="#ffffff" y="-18" height="215.999996" fill-opacity="1"/><rect x="-45" width="540" fill="#ffffff" y="-18" height="215.999996" fill-opacity="1"/><g fill="#286a6c" fill-opacity="1"><g transform="translate(168.359365, 101.624994)"><g><path d="M 5.03125 0 C 4.28125 0 3.640625 -0.265625 3.109375 -0.796875 C 2.578125 -1.328125 2.3125 -1.96875 2.3125 -2.71875 L 2.3125 -22.84375 C 2.3125 -23.59375 2.578125 -24.234375 3.109375 -24.765625 C 3.640625 -25.296875 4.28125 -25.5625 5.03125 -25.5625 L 5.25 -25.5625 C 6 -25.5625 6.640625 -25.296875 7.171875 -24.765625 C 7.703125 -24.234375 7.96875 -23.59375 7.96875 -22.84375 L 7.96875 -19.4375 L 7.75 -16.5 C 7.726562 -16.4375 7.742188 -16.394531 7.796875 -16.375 C 7.847656 -16.351562 7.894531 -16.363281 7.9375 -16.40625 C 9.625 -17.90625 11.40625 -18.65625 13.28125 -18.65625 C 15.195312 -18.65625 16.617188 -18.007812 17.546875 -16.71875 C 18.472656 -15.425781 18.9375 -13.601562 18.9375 -11.25 L 18.9375 -2.71875 C 18.9375 -1.96875 18.671875 -1.328125 18.140625 -0.796875 C 17.609375 -0.265625 16.96875 0 16.21875 0 L 15.96875 0 C 15.21875 0 14.578125 -0.265625 14.046875 -0.796875 C 13.515625 -1.328125 13.25 -1.96875 13.25 -2.71875 L 13.25 -10.5625 C 13.25 -11.769531 13.082031 -12.609375 12.75 -13.078125 C 12.414062 -13.546875 11.875 -13.78125 11.125 -13.78125 C 10.5625 -13.78125 10.066406 -13.671875 9.640625 -13.453125 C 9.210938 -13.234375 8.726562 -12.875 8.1875 -12.375 C 8.039062 -12.226562 7.96875 -12.050781 7.96875 -11.84375 L 7.96875 -2.71875 C 7.96875 -1.96875 7.703125 -1.328125 7.171875 -0.796875 C 6.640625 -0.265625 6 0 5.25 0 Z M 5.03125 0 "/></g></g></g><g fill="#286a6c" fill-opacity="1"><g transform="translate(189.38548, 101.624994)"><g><path d="M 5.03125 0 C 4.28125 0 3.640625 -0.265625 3.109375 -0.796875 C 2.578125 -1.328125 2.3125 -1.96875 2.3125 -2.71875 L 2.3125 -15.5 C 2.3125 -16.25 2.578125 -16.890625 3.109375 -17.421875 C 3.640625 -17.953125 4.28125 -18.21875 5.03125 -18.21875 L 5.25 -18.21875 C 6 -18.21875 6.640625 -17.953125 7.171875 -17.421875 C 7.703125 -16.890625 7.96875 -16.25 7.96875 -15.5 L 7.96875 -2.71875 C 7.96875 -1.96875 7.703125 -1.328125 7.171875 -0.796875 C 6.640625 -0.265625 6 0 5.25 0 Z M 5.15625 -20.75 C 4.195312 -20.75 3.410156 -21.019531 2.796875 -21.5625 C 2.179688 -22.101562 1.875 -22.800781 1.875 -23.65625 C 1.875 -24.507812 2.179688 -25.210938 2.796875 -25.765625 C 3.410156 -26.316406 4.195312 -26.59375 5.15625 -26.59375 C 6.09375 -26.59375 6.863281 -26.316406 7.46875 -25.765625 C 8.070312 -25.210938 8.375 -24.507812 8.375 -23.65625 C 8.375 -22.800781 8.070312 -22.101562 7.46875 -21.5625 C 6.863281 -21.019531 6.09375 -20.75 5.15625 -20.75 Z M 5.15625 -20.75 "/></g></g></g><g fill="#286a6c" fill-opacity="1"><g transform="translate(199.632977, 101.624994)"><g><path d="M 5.03125 0 C 4.28125 0 3.640625 -0.265625 3.109375 -0.796875 C 2.578125 -1.328125 2.3125 -1.96875 2.3125 -2.71875 L 2.3125 -15.5 C 2.3125 -16.25 2.578125 -16.890625 3.109375 -17.421875 C 3.640625 -17.953125 4.28125 -18.21875 5.03125 -18.21875 L 5.25 -18.21875 C 6 -18.21875 6.640625 -17.953125 7.171875 -17.421875 C 7.703125 -16.890625 7.96875 -16.25 7.96875 -15.5 L 7.96875 -2.71875 C 7.96875 -1.96875 7.703125 -1.328125 7.171875 -0.796875 C 6.640625 -0.265625 6 0 5.25 0 Z M 5.15625 -20.75 C 4.195312 -20.75 3.410156 -21.019531 2.796875 -21.5625 C 2.179688 -22.101562 1.875 -22.800781 1.875 -23.65625 C 1.875 -24.507812 2.179688 -25.210938 2.796875 -25.765625 C 3.410156 -26.316406 4.195312 -26.59375 5.15625 -26.59375 C 6.09375 -26.59375 6.863281 -26.316406 7.46875 -25.765625 C 8.070312 -25.210938 8.375 -24.507812 8.375 -23.65625 C 8.375 -22.800781 8.070312 -22.101562 7.46875 -21.5625 C 6.863281 -21.019531 6.09375 -20.75 5.15625 -20.75 Z M 5.15625 -20.75 "/></g></g></g><g fill="#286a6c" fill-opacity="1"><g transform="translate(209.880474, 101.624994)"><g><path d="M 3.59375 -7.25 C 3.050781 -7.25 2.582031 -7.445312 2.1875 -7.84375 C 1.789062 -8.238281 1.59375 -8.710938 1.59375 -9.265625 C 1.59375 -9.816406 1.789062 -10.285156 2.1875 -10.671875 C 2.582031 -11.054688 3.050781 -11.25 3.59375 -11.25 L 8.65625 -11.25 C 9.21875 -11.25 9.691406 -11.054688 10.078125 -10.671875 C 10.460938 -10.285156 10.65625 -9.816406 10.65625 -9.265625 C 10.65625 -8.710938 10.460938 -8.238281 10.078125 -7.84375 C 9.691406 -7.445312 9.21875 -7.25 8.65625 -7.25 Z M 3.59375 -7.25 "/></g></g></g><g fill="#286a6c" fill-opacity="1"><g transform="translate(222.127482, 101.624994)"><g><path d="M 8.84375 0.4375 C 6.550781 0.4375 4.734375 -0.410156 3.390625 -2.109375 C 2.046875 -3.804688 1.375 -6.132812 1.375 -9.09375 C 1.375 -10.53125 1.585938 -11.863281 2.015625 -13.09375 C 2.441406 -14.320312 3.007812 -15.332031 3.71875 -16.125 C 4.425781 -16.914062 5.226562 -17.535156 6.125 -17.984375 C 7.019531 -18.429688 7.945312 -18.65625 8.90625 -18.65625 C 9.78125 -18.65625 10.539062 -18.515625 11.1875 -18.234375 C 11.832031 -17.953125 12.457031 -17.53125 13.0625 -16.96875 C 13.101562 -16.945312 13.144531 -16.945312 13.1875 -16.96875 C 13.226562 -16.988281 13.25 -17.03125 13.25 -17.09375 L 13.0625 -19.5 L 13.0625 -22.84375 C 13.0625 -23.59375 13.328125 -24.234375 13.859375 -24.765625 C 14.390625 -25.296875 15.03125 -25.5625 15.78125 -25.5625 L 16.0625 -25.5625 C 16.8125 -25.5625 17.453125 -25.296875 17.984375 -24.765625 C 18.515625 -24.234375 18.78125 -23.59375 18.78125 -22.84375 L 18.78125 -2.3125 C 18.78125 -1.664062 18.554688 -1.117188 18.109375 -0.671875 C 17.660156 -0.222656 17.113281 0 16.46875 0 L 15.78125 0 C 15.300781 0 14.875 -0.144531 14.5 -0.4375 C 14.125 -0.726562 13.882812 -1.113281 13.78125 -1.59375 L 13.75 -1.6875 C 13.726562 -1.726562 13.695312 -1.75 13.65625 -1.75 C 13.613281 -1.75 13.582031 -1.738281 13.5625 -1.71875 C 12.894531 -1.050781 12.144531 -0.523438 11.3125 -0.140625 C 10.476562 0.242188 9.65625 0.4375 8.84375 0.4375 Z M 10.34375 -4.21875 C 11.40625 -4.21875 12.25 -4.644531 12.875 -5.5 C 13 -5.664062 13.0625 -5.851562 13.0625 -6.0625 L 13.0625 -12.625 C 13.0625 -12.832031 12.976562 -13 12.8125 -13.125 C 12.082031 -13.726562 11.226562 -14.03125 10.25 -14.03125 C 9.394531 -14.03125 8.675781 -13.617188 8.09375 -12.796875 C 7.507812 -11.972656 7.21875 -10.769531 7.21875 -9.1875 C 7.21875 -5.875 8.257812 -4.21875 10.34375 -4.21875 Z M 10.34375 -4.21875 "/></g></g></g><g fill="#286a6c" fill-opacity="1"><g transform="translate(243.153597, 101.624994)"><g><path d="M 10.53125 0.4375 C 7.84375 0.4375 5.628906 -0.414062 3.890625 -2.125 C 2.148438 -3.832031 1.28125 -6.15625 1.28125 -9.09375 C 1.28125 -10.53125 1.523438 -11.859375 2.015625 -13.078125 C 2.503906 -14.296875 3.148438 -15.304688 3.953125 -16.109375 C 4.753906 -16.910156 5.671875 -17.535156 6.703125 -17.984375 C 7.734375 -18.429688 8.800781 -18.65625 9.90625 -18.65625 C 12.40625 -18.65625 14.320312 -17.863281 15.65625 -16.28125 C 17.03125 -14.65625 17.71875 -12.582031 17.71875 -10.0625 C 17.71875 -9.332031 17.425781 -8.707031 16.84375 -8.1875 C 16.257812 -7.6875 15.5625 -7.4375 14.75 -7.4375 L 7.09375 -7.4375 C 7.007812 -7.4375 6.941406 -7.398438 6.890625 -7.328125 C 6.835938 -7.253906 6.820312 -7.1875 6.84375 -7.125 C 7.40625 -4.976562 8.894531 -3.90625 11.3125 -3.90625 C 12.019531 -3.90625 12.71875 -4.019531 13.40625 -4.25 C 13.65625 -4.332031 13.925781 -4.375 14.21875 -4.375 C 14.445312 -4.375 14.6875 -4.34375 14.9375 -4.28125 C 15.457031 -4.113281 15.851562 -3.800781 16.125 -3.34375 C 16.289062 -3.007812 16.375 -2.664062 16.375 -2.3125 C 16.375 -1.957031 16.289062 -1.632812 16.125 -1.34375 C 15.9375 -1.03125 15.6875 -0.800781 15.375 -0.65625 C 13.769531 0.0703125 12.15625 0.4375 10.53125 0.4375 Z M 6.75 -11.375 C 6.75 -11.332031 6.769531 -11.28125 6.8125 -11.21875 C 6.851562 -11.15625 6.914062 -11.125 7 -11.125 L 12.59375 -11.125 C 12.675781 -11.125 12.75 -11.15625 12.8125 -11.21875 C 12.851562 -11.28125 12.875 -11.351562 12.875 -11.4375 C 12.832031 -12.332031 12.578125 -13.035156 12.109375 -13.546875 C 11.640625 -14.054688 10.945312 -14.3125 10.03125 -14.3125 C 9.238281 -14.3125 8.550781 -14.070312 7.96875 -13.59375 C 7.15625 -12.925781 6.75 -12.1875 6.75 -11.375 Z M 6.75 -11.375 "/></g></g></g><g fill="#286a6c" fill-opacity="1"><g transform="translate(262.211441, 101.624994)"><g><path d="M 9.21875 0 C 8.40625 0 7.671875 -0.238281 7.015625 -0.71875 C 6.359375 -1.195312 5.894531 -1.820312 5.625 -2.59375 L 1.3125 -15.625 C 1.226562 -15.851562 1.1875 -16.070312 1.1875 -16.28125 C 1.1875 -16.675781 1.3125 -17.050781 1.5625 -17.40625 C 1.957031 -17.945312 2.488281 -18.21875 3.15625 -18.21875 L 3.46875 -18.21875 C 4.257812 -18.21875 4.972656 -17.972656 5.609375 -17.484375 C 6.242188 -16.992188 6.664062 -16.363281 6.875 -15.59375 L 8.375 -9.8125 C 8.519531 -9.226562 8.742188 -8.320312 9.046875 -7.09375 C 9.347656 -5.863281 9.582031 -4.9375 9.75 -4.3125 C 9.75 -4.25 9.773438 -4.21875 9.828125 -4.21875 C 9.878906 -4.21875 9.914062 -4.25 9.9375 -4.3125 C 10.1875 -5.414062 10.625 -7.25 11.25 -9.8125 L 12.8125 -15.59375 C 13.019531 -16.363281 13.441406 -16.992188 14.078125 -17.484375 C 14.710938 -17.972656 15.425781 -18.21875 16.21875 -18.21875 L 16.25 -18.21875 C 16.914062 -18.21875 17.445312 -17.945312 17.84375 -17.40625 C 18.113281 -17.050781 18.25 -16.664062 18.25 -16.25 C 18.25 -16.039062 18.207031 -15.832031 18.125 -15.625 L 13.9375 -2.59375 C 13.6875 -1.820312 13.234375 -1.195312 12.578125 -0.71875 C 11.921875 -0.238281 11.1875 0 10.375 0 Z M 9.21875 0 "/></g></g></g></svg>