<svg xmlns="http://www.w3.org/2000/svg" xmlns:xlink="http://www.w3.org/1999/xlink" width="600" zoomAndPan="magnify" viewBox="0 0 450 179.999997" height="240" preserveAspectRatio="xMidYMid meet" version="1.0"><defs><g/><clipPath id="2f85c23c16"><path d="M 194.976562 59.976562 L 255.023438 59.976562 L 255.023438 120.023438 L 194.976562 120.023438 Z M 194.976562 59.976562 " clip-rule="nonzero"/></clipPath><clipPath id="f3d95e1b51"><path d="M 225 59.976562 C 208.417969 59.976562 194.976562 73.417969 194.976562 90 C 194.976562 106.582031 208.417969 120.023438 225 120.023438 C 241.582031 120.023438 255.023438 106.582031 255.023438 90 C 255.023438 73.417969 241.582031 59.976562 225 59.976562 Z M 225 59.976562 " clip-rule="nonzero"/></clipPath><clipPath id="9a75c03577"><path d="M 0.976562 0.976562 L 61.023438 0.976562 L 61.023438 61.023438 L 0.976562 61.023438 Z M 0.976562 0.976562 " clip-rule="nonzero"/></clipPath><clipPath id="625d5b71e6"><path d="M 31 0.976562 C 14.417969 0.976562 0.976562 14.417969 0.976562 31 C 0.976562 47.582031 14.417969 61.023438 31 61.023438 C 47.582031 61.023438 61.023438 47.582031 61.023438 31 C 61.023438 14.417969 47.582031 0.976562 31 0.976562 Z M 31 0.976562 " clip-rule="nonzero"/></clipPath><clipPath id="06fc6b43ce"><rect x="0" width="62" y="0" height="62"/></clipPath><clipPath id="86848b3f4e"><rect x="0" width="29" y="0" height="36"/></clipPath></defs><rect x="-45" width="540" fill="#ffffff" y="-18" height="215.999996" fill-opacity="1"/><rect x="-45" width="540" fill="#ffffff" y="-18" height="215.999996" fill-opacity="1"/><g clip-path="url(#2f85c23c16)"><g clip-path="url(#f3d95e1b51)"><g transform="matrix(1, 0, 0, 1, 194, 59)"><g clip-path="url(#06fc6b43ce)"><g clip-path="url(#9a75c03577)"><g clip-path="url(#625d5b71e6)"><path fill="#286a6c" d="M 0.976562 0.976562 L 61.023438 0.976562 L 61.023438 61.023438 L 0.976562 61.023438 Z M 0.976562 0.976562 " fill-opacity="1" fill-rule="nonzero"/></g></g></g></g></g></g><g transform="matrix(1, 0, 0, 1, 211, 72)"><g clip-path="url(#86848b3f4e)"><g fill="#f8f8f8" fill-opacity="1"><g transform="translate(0.56845, 30.926711)"><g><path d="M 10.28125 -25.390625 C 12.0625 -25.390625 12.953125 -24.453125 12.953125 -22.578125 C 12.910156 -21.140625 12.160156 -19.679688 10.703125 -18.203125 C 9.378906 -16.460938 8.457031 -14.984375 7.9375 -13.765625 C 7.414062 -12.554688 7.117188 -11.363281 7.046875 -10.1875 C 6.984375 -8.21875 7.285156 -6.734375 7.953125 -5.734375 C 8.628906 -4.734375 9.707031 -4.203125 11.1875 -4.140625 C 12.78125 -3.992188 14.050781 -4.476562 15 -5.59375 C 15.957031 -6.707031 16.445312 -8.710938 16.46875 -11.609375 C 16.445312 -14.734375 16.007812 -18.226562 15.15625 -22.09375 C 14.851562 -23.644531 15.3125 -24.570312 16.53125 -24.875 C 17.90625 -25.101562 18.878906 -24.734375 19.453125 -23.765625 C 19.921875 -23.023438 20.523438 -22.125 21.265625 -21.0625 C 21.773438 -20.3125 22.929688 -19.035156 24.734375 -17.234375 C 25.753906 -16.023438 25.800781 -14.773438 24.875 -13.484375 C 23.695312 -12.273438 22.632812 -12.226562 21.6875 -13.34375 C 21.5625 -13.414062 21.25 -13.890625 20.75 -14.765625 C 20.90625 -14.097656 21.035156 -13.425781 21.140625 -12.75 C 21.242188 -12.082031 21.296875 -11.445312 21.296875 -10.84375 C 21.296875 -9.84375 21.15625 -8.660156 20.875 -7.296875 C 20.601562 -5.929688 20.101562 -4.585938 19.375 -3.265625 C 18.644531 -1.941406 17.609375 -0.859375 16.265625 -0.015625 C 14.921875 0.828125 13.191406 1.238281 11.078125 1.21875 C 9.316406 1.125 7.859375 0.703125 6.703125 -0.046875 C 5.546875 -0.804688 4.585938 -1.757812 3.828125 -2.90625 C 3.078125 -4.050781 2.597656 -5.265625 2.390625 -6.546875 C 2.179688 -7.835938 2.101562 -9.050781 2.15625 -10.1875 C 2.269531 -12.03125 2.710938 -13.8125 3.484375 -15.53125 C 4.265625 -17.25 5.289062 -18.742188 6.5625 -20.015625 L 4.375 -20.015625 C 2.59375 -20.015625 1.703125 -20.90625 1.703125 -22.6875 C 1.703125 -24.488281 2.59375 -25.390625 4.375 -25.390625 Z M 10.28125 -25.390625 "/></g></g></g></g></g></svg>