<svg xmlns="http://www.w3.org/2000/svg" xmlns:xlink="http://www.w3.org/1999/xlink" width="600" zoomAndPan="magnify" viewBox="0 0 450 179.999997" height="240" preserveAspectRatio="xMidYMid meet" version="1.0"><defs><g/></defs><rect x="-45" width="540" fill="#ffffff" y="-18" height="215.999996" fill-opacity="1"/><rect x="-45" width="540" fill="#ffffff" y="-18" height="215.999996" fill-opacity="1"/><g fill="#3c4444" fill-opacity="1"><g transform="translate(148.289057, 101.624994)"><g><path d="M 2.75 -2.71875 L 2.75 -21.09375 C 2.75 -21.84375 3.015625 -22.484375 3.546875 -23.015625 C 4.078125 -23.546875 4.71875 -23.8125 5.46875 -23.8125 L 5.84375 -23.8125 C 6.675781 -23.8125 7.453125 -23.59375 8.171875 -23.15625 C 8.890625 -22.71875 9.445312 -22.132812 9.84375 -21.40625 L 14.5 -12.40625 L 16.8125 -7.21875 C 16.832031 -7.15625 16.867188 -7.125 16.921875 -7.125 C 16.972656 -7.125 16.988281 -7.15625 16.96875 -7.21875 C 16.46875 -11.195312 16.21875 -14.101562 16.21875 -15.9375 L 16.21875 -21.09375 C 16.21875 -21.84375 16.484375 -22.484375 17.015625 -23.015625 C 17.546875 -23.546875 18.1875 -23.8125 18.9375 -23.8125 C 19.6875 -23.8125 20.328125 -23.546875 20.859375 -23.015625 C 21.390625 -22.484375 21.65625 -21.84375 21.65625 -21.09375 L 21.65625 -2.71875 C 21.65625 -1.96875 21.390625 -1.328125 20.859375 -0.796875 C 20.328125 -0.265625 19.6875 0 18.9375 0 L 18.5625 0 C 17.726562 0 16.953125 -0.21875 16.234375 -0.65625 C 15.515625 -1.09375 14.96875 -1.675781 14.59375 -2.40625 L 9.9375 -11.5 L 7.65625 -16.625 C 7.632812 -16.6875 7.597656 -16.71875 7.546875 -16.71875 C 7.492188 -16.71875 7.46875 -16.6875 7.46875 -16.625 C 7.488281 -16.289062 7.578125 -15.4375 7.734375 -14.0625 C 7.890625 -12.6875 8.003906 -11.53125 8.078125 -10.59375 C 8.148438 -9.65625 8.1875 -8.757812 8.1875 -7.90625 L 8.1875 -2.71875 C 8.1875 -1.96875 7.921875 -1.328125 7.390625 -0.796875 C 6.859375 -0.265625 6.21875 0 5.46875 0 C 4.71875 0 4.078125 -0.265625 3.546875 -0.796875 C 3.015625 -1.328125 2.75 -1.96875 2.75 -2.71875 Z M 2.75 -2.71875 "/></g></g></g><g fill="#3c4444" fill-opacity="1"><g transform="translate(172.720589, 101.624994)"><g><path d="M 10.21875 0.4375 C 9.050781 0.4375 7.929688 0.21875 6.859375 -0.21875 C 5.785156 -0.65625 4.832031 -1.269531 4 -2.0625 C 3.164062 -2.851562 2.503906 -3.859375 2.015625 -5.078125 C 1.523438 -6.296875 1.28125 -7.632812 1.28125 -9.09375 C 1.28125 -10.550781 1.523438 -11.894531 2.015625 -13.125 C 2.503906 -14.351562 3.164062 -15.363281 4 -16.15625 C 4.832031 -16.945312 5.785156 -17.5625 6.859375 -18 C 7.929688 -18.4375 9.050781 -18.65625 10.21875 -18.65625 C 11.363281 -18.65625 12.46875 -18.4375 13.53125 -18 C 14.59375 -17.5625 15.539062 -16.945312 16.375 -16.15625 C 17.207031 -15.363281 17.867188 -14.351562 18.359375 -13.125 C 18.847656 -11.894531 19.09375 -10.550781 19.09375 -9.09375 C 19.09375 -7.632812 18.847656 -6.296875 18.359375 -5.078125 C 17.867188 -3.859375 17.207031 -2.851562 16.375 -2.0625 C 15.539062 -1.269531 14.59375 -0.65625 13.53125 -0.21875 C 12.46875 0.21875 11.363281 0.4375 10.21875 0.4375 Z M 10.21875 -4.15625 C 11.238281 -4.15625 12.003906 -4.585938 12.515625 -5.453125 C 13.023438 -6.316406 13.28125 -7.53125 13.28125 -9.09375 C 13.28125 -10.65625 13.023438 -11.875 12.515625 -12.75 C 12.003906 -13.625 11.238281 -14.0625 10.21875 -14.0625 C 9.175781 -14.0625 8.394531 -13.625 7.875 -12.75 C 7.351562 -11.875 7.09375 -10.65625 7.09375 -9.09375 C 7.09375 -7.53125 7.351562 -6.316406 7.875 -5.453125 C 8.394531 -4.585938 9.175781 -4.15625 10.21875 -4.15625 Z M 10.21875 -4.15625 "/></g></g></g><g fill="#3c4444" fill-opacity="1"><g transform="translate(193.090613, 101.624994)"><g/></g></g><g fill="#3c4444" fill-opacity="1"><g transform="translate(200.401327, 101.624994)"><g><path d="M 5.46875 0 C 4.71875 0 4.078125 -0.265625 3.546875 -0.796875 C 3.015625 -1.328125 2.75 -1.96875 2.75 -2.71875 L 2.75 -21.09375 C 2.75 -21.84375 3.015625 -22.484375 3.546875 -23.015625 C 4.078125 -23.546875 4.71875 -23.8125 5.46875 -23.8125 L 5.75 -23.8125 C 6.5 -23.8125 7.140625 -23.546875 7.671875 -23.015625 C 8.203125 -22.484375 8.46875 -21.84375 8.46875 -21.09375 L 8.46875 -2.71875 C 8.46875 -1.96875 8.203125 -1.328125 7.671875 -0.796875 C 7.140625 -0.265625 6.5 0 5.75 0 Z M 5.46875 0 "/></g></g></g><g fill="#3c4444" fill-opacity="1"><g transform="translate(211.586095, 101.624994)"><g><path d="M 5.03125 0 C 4.28125 0 3.640625 -0.265625 3.109375 -0.796875 C 2.578125 -1.328125 2.3125 -1.96875 2.3125 -2.71875 L 2.3125 -15.875 C 2.3125 -16.519531 2.535156 -17.070312 2.984375 -17.53125 C 3.429688 -17.988281 3.976562 -18.21875 4.625 -18.21875 L 4.84375 -18.21875 C 5.445312 -18.21875 5.976562 -18.019531 6.4375 -17.625 C 6.894531 -17.226562 7.175781 -16.738281 7.28125 -16.15625 L 7.3125 -15.96875 C 7.3125 -15.925781 7.335938 -15.90625 7.390625 -15.90625 C 7.441406 -15.90625 7.476562 -15.914062 7.5 -15.9375 C 8.375 -16.8125 9.226562 -17.484375 10.0625 -17.953125 C 10.894531 -18.421875 11.875 -18.65625 13 -18.65625 C 15.269531 -18.65625 16.882812 -17.75 17.84375 -15.9375 C 17.882812 -15.851562 17.941406 -15.804688 18.015625 -15.796875 C 18.085938 -15.785156 18.15625 -15.8125 18.21875 -15.875 C 19.09375 -16.75 19.957031 -17.429688 20.8125 -17.921875 C 21.664062 -18.410156 22.625 -18.65625 23.6875 -18.65625 C 25.601562 -18.65625 27.03125 -18.007812 27.96875 -16.71875 C 28.90625 -15.425781 29.375 -13.601562 29.375 -11.25 L 29.375 -2.71875 C 29.375 -1.96875 29.109375 -1.328125 28.578125 -0.796875 C 28.046875 -0.265625 27.40625 0 26.65625 0 L 26.40625 0 C 25.65625 0 25.015625 -0.265625 24.484375 -0.796875 C 23.953125 -1.328125 23.6875 -1.96875 23.6875 -2.71875 L 23.6875 -10.5625 C 23.6875 -11.769531 23.523438 -12.609375 23.203125 -13.078125 C 22.878906 -13.546875 22.34375 -13.78125 21.59375 -13.78125 C 20.78125 -13.78125 19.882812 -13.3125 18.90625 -12.375 C 18.757812 -12.226562 18.6875 -12.050781 18.6875 -11.84375 L 18.6875 -2.71875 C 18.6875 -1.96875 18.421875 -1.328125 17.890625 -0.796875 C 17.359375 -0.265625 16.71875 0 15.96875 0 L 15.6875 0 C 14.9375 0 14.296875 -0.265625 13.765625 -0.796875 C 13.234375 -1.328125 12.96875 -1.96875 12.96875 -2.71875 L 12.96875 -10.5625 C 12.96875 -11.769531 12.804688 -12.609375 12.484375 -13.078125 C 12.160156 -13.546875 11.625 -13.78125 10.875 -13.78125 C 10.0625 -13.78125 9.164062 -13.3125 8.1875 -12.375 C 8.039062 -12.226562 7.96875 -12.050781 7.96875 -11.84375 L 7.96875 -2.71875 C 7.96875 -1.96875 7.703125 -1.328125 7.171875 -0.796875 C 6.640625 -0.265625 6 0 5.25 0 Z M 5.03125 0 "/></g></g></g><g fill="#3c4444" fill-opacity="1"><g transform="translate(243.578281, 101.624994)"><g><path d="M 6.90625 0.4375 C 5.28125 0.4375 3.972656 -0.09375 2.984375 -1.15625 C 1.992188 -2.21875 1.5 -3.53125 1.5 -5.09375 C 1.5 -6.988281 2.28125 -8.472656 3.84375 -9.546875 C 5.40625 -10.617188 7.894531 -11.351562 11.3125 -11.75 C 11.519531 -11.769531 11.601562 -11.882812 11.5625 -12.09375 C 11.351562 -13.445312 10.457031 -14.125 8.875 -14.125 C 8 -14.125 7.039062 -13.90625 6 -13.46875 C 5.6875 -13.320312 5.375 -13.25 5.0625 -13.25 C 4.832031 -13.25 4.59375 -13.289062 4.34375 -13.375 C 3.78125 -13.539062 3.363281 -13.875 3.09375 -14.375 C 2.925781 -14.707031 2.84375 -15.050781 2.84375 -15.40625 C 2.84375 -15.613281 2.875 -15.820312 2.9375 -16.03125 C 3.101562 -16.59375 3.445312 -17 3.96875 -17.25 C 5.988281 -18.1875 7.976562 -18.65625 9.9375 -18.65625 C 14.851562 -18.65625 17.3125 -15.882812 17.3125 -10.34375 L 17.3125 -2.3125 C 17.3125 -1.664062 17.082031 -1.117188 16.625 -0.671875 C 16.164062 -0.222656 15.625 0 15 0 L 14.34375 0 C 13.863281 0 13.429688 -0.148438 13.046875 -0.453125 C 12.660156 -0.753906 12.414062 -1.144531 12.3125 -1.625 L 12.28125 -1.75 C 12.257812 -1.789062 12.226562 -1.8125 12.1875 -1.8125 C 12.144531 -1.8125 12.113281 -1.800781 12.09375 -1.78125 C 10.40625 -0.300781 8.675781 0.4375 6.90625 0.4375 Z M 8.875 -3.96875 C 9.75 -3.96875 10.59375 -4.375 11.40625 -5.1875 C 11.550781 -5.332031 11.625 -5.507812 11.625 -5.71875 L 11.625 -8 C 11.625 -8.082031 11.59375 -8.15625 11.53125 -8.21875 C 11.46875 -8.257812 11.40625 -8.28125 11.34375 -8.28125 C 11.320312 -8.28125 11.3125 -8.28125 11.3125 -8.28125 C 8.375 -7.84375 6.90625 -6.925781 6.90625 -5.53125 C 6.90625 -5.007812 7.078125 -4.617188 7.421875 -4.359375 C 7.765625 -4.097656 8.25 -3.96875 8.875 -3.96875 Z M 8.875 -3.96875 "/></g></g></g><g fill="#3c4444" fill-opacity="1"><g transform="translate(262.948549, 101.624994)"><g><path d="M 8.84375 7.75 C 7.382812 7.75 6.097656 7.597656 4.984375 7.296875 C 3.867188 6.992188 2.957031 6.488281 2.25 5.78125 C 1.539062 5.070312 1.1875 4.195312 1.1875 3.15625 C 1.1875 1.675781 2.03125 0.5 3.71875 -0.375 C 3.757812 -0.414062 3.78125 -0.460938 3.78125 -0.515625 C 3.78125 -0.566406 3.757812 -0.601562 3.71875 -0.625 C 2.65625 -1.351562 2.125 -2.382812 2.125 -3.71875 C 2.125 -4.34375 2.300781 -4.953125 2.65625 -5.546875 C 3.007812 -6.140625 3.476562 -6.644531 4.0625 -7.0625 C 4.101562 -7.101562 4.125 -7.144531 4.125 -7.1875 C 4.125 -7.226562 4.101562 -7.257812 4.0625 -7.28125 C 3.375 -7.78125 2.800781 -8.4375 2.34375 -9.25 C 1.882812 -10.0625 1.65625 -10.957031 1.65625 -11.9375 C 1.65625 -13.351562 2.023438 -14.578125 2.765625 -15.609375 C 3.503906 -16.640625 4.4375 -17.390625 5.5625 -17.859375 C 6.6875 -18.328125 7.925781 -18.5625 9.28125 -18.5625 C 10.21875 -18.5625 11.082031 -18.445312 11.875 -18.21875 C 12.082031 -18.15625 12.28125 -18.125 12.46875 -18.125 L 16.78125 -18.125 C 17.34375 -18.125 17.828125 -17.921875 18.234375 -17.515625 C 18.640625 -17.109375 18.84375 -16.617188 18.84375 -16.046875 C 18.84375 -15.472656 18.640625 -14.988281 18.234375 -14.59375 C 17.828125 -14.195312 17.34375 -14 16.78125 -14 L 16.3125 -14 C 16.25 -14 16.203125 -13.96875 16.171875 -13.90625 C 16.140625 -13.84375 16.132812 -13.78125 16.15625 -13.71875 C 16.40625 -13.132812 16.53125 -12.488281 16.53125 -11.78125 C 16.53125 -9.757812 15.859375 -8.234375 14.515625 -7.203125 C 13.171875 -6.171875 11.425781 -5.65625 9.28125 -5.65625 C 8.695312 -5.65625 8.082031 -5.738281 7.4375 -5.90625 C 7.226562 -5.96875 7.050781 -5.925781 6.90625 -5.78125 C 6.675781 -5.507812 6.5625 -5.15625 6.5625 -4.71875 C 6.5625 -4.28125 6.769531 -3.96875 7.1875 -3.78125 C 7.601562 -3.59375 8.289062 -3.5 9.25 -3.5 L 12.125 -3.5 C 16.789062 -3.5 19.125 -1.9375 19.125 1.1875 C 19.125 3.125 18.191406 4.703125 16.328125 5.921875 C 14.460938 7.140625 11.96875 7.75 8.84375 7.75 Z M 9.28125 -9.09375 C 9.96875 -9.09375 10.523438 -9.335938 10.953125 -9.828125 C 11.378906 -10.316406 11.59375 -11.019531 11.59375 -11.9375 C 11.59375 -12.851562 11.378906 -13.550781 10.953125 -14.03125 C 10.523438 -14.507812 9.96875 -14.75 9.28125 -14.75 C 8.59375 -14.75 8.035156 -14.503906 7.609375 -14.015625 C 7.179688 -13.523438 6.96875 -12.832031 6.96875 -11.9375 C 6.96875 -11.019531 7.179688 -10.316406 7.609375 -9.828125 C 8.035156 -9.335938 8.59375 -9.09375 9.28125 -9.09375 Z M 9.71875 4.1875 C 10.882812 4.1875 11.835938 3.992188 12.578125 3.609375 C 13.316406 3.222656 13.6875 2.738281 13.6875 2.15625 C 13.6875 1.65625 13.472656 1.3125 13.046875 1.125 C 12.617188 0.9375 11.945312 0.84375 11.03125 0.84375 L 9.3125 0.84375 C 8.289062 0.84375 7.53125 0.800781 7.03125 0.71875 C 6.96875 0.695312 6.914062 0.6875 6.875 0.6875 C 6.726562 0.6875 6.601562 0.738281 6.5 0.84375 C 6.0625 1.28125 5.84375 1.75 5.84375 2.25 C 5.84375 2.894531 6.191406 3.378906 6.890625 3.703125 C 7.585938 4.023438 8.53125 4.1875 9.71875 4.1875 Z M 9.71875 4.1875 "/></g></g></g><g fill="#3c4444" fill-opacity="1"><g transform="translate(282.631241, 101.624994)"><g><path d="M 10.53125 0.4375 C 7.84375 0.4375 5.628906 -0.414062 3.890625 -2.125 C 2.148438 -3.832031 1.28125 -6.15625 1.28125 -9.09375 C 1.28125 -10.53125 1.523438 -11.859375 2.015625 -13.078125 C 2.503906 -14.296875 3.148438 -15.304688 3.953125 -16.109375 C 4.753906 -16.910156 5.671875 -17.535156 6.703125 -17.984375 C 7.734375 -18.429688 8.800781 -18.65625 9.90625 -18.65625 C 12.40625 -18.65625 14.320312 -17.863281 15.65625 -16.28125 C 17.03125 -14.65625 17.71875 -12.582031 17.71875 -10.0625 C 17.71875 -9.332031 17.425781 -8.707031 16.84375 -8.1875 C 16.257812 -7.6875 15.5625 -7.4375 14.75 -7.4375 L 7.09375 -7.4375 C 7.007812 -7.4375 6.941406 -7.398438 6.890625 -7.328125 C 6.835938 -7.253906 6.820312 -7.1875 6.84375 -7.125 C 7.40625 -4.976562 8.894531 -3.90625 11.3125 -3.90625 C 12.019531 -3.90625 12.71875 -4.019531 13.40625 -4.25 C 13.65625 -4.332031 13.925781 -4.375 14.21875 -4.375 C 14.445312 -4.375 14.6875 -4.34375 14.9375 -4.28125 C 15.457031 -4.113281 15.851562 -3.800781 16.125 -3.34375 C 16.289062 -3.007812 16.375 -2.664062 16.375 -2.3125 C 16.375 -1.957031 16.289062 -1.632812 16.125 -1.34375 C 15.9375 -1.03125 15.6875 -0.800781 15.375 -0.65625 C 13.769531 0.0703125 12.15625 0.4375 10.53125 0.4375 Z M 6.75 -11.375 C 6.75 -11.332031 6.769531 -11.28125 6.8125 -11.21875 C 6.851562 -11.15625 6.914062 -11.125 7 -11.125 L 12.59375 -11.125 C 12.675781 -11.125 12.75 -11.15625 12.8125 -11.21875 C 12.851562 -11.28125 12.875 -11.351562 12.875 -11.4375 C 12.832031 -12.332031 12.578125 -13.035156 12.109375 -13.546875 C 11.640625 -14.054688 10.945312 -14.3125 10.03125 -14.3125 C 9.238281 -14.3125 8.550781 -14.070312 7.96875 -13.59375 C 7.15625 -12.925781 6.75 -12.1875 6.75 -11.375 Z M 6.75 -11.375 "/></g></g></g></svg>