<svg xmlns="http://www.w3.org/2000/svg" xmlns:xlink="http://www.w3.org/1999/xlink" width="600" zoomAndPan="magnify" viewBox="0 0 450 179.999997" height="240" preserveAspectRatio="xMidYMid meet" version="1.0"><defs><g/></defs><rect x="-45" width="540" fill="#ffffff" y="-18" height="215.999996" fill-opacity="1"/><rect x="-45" width="540" fill="#ffffff" y="-18" height="215.999996" fill-opacity="1"/><g fill="#3c4444" fill-opacity="1"><g transform="translate(121.804684, 95.624994)"><g><path d="M 1.546875 -1.53125 L 1.546875 -11.859375 C 1.546875 -12.285156 1.691406 -12.644531 1.984375 -12.9375 C 2.285156 -13.238281 2.648438 -13.390625 3.078125 -13.390625 L 3.28125 -13.390625 C 3.75 -13.390625 4.1875 -13.265625 4.59375 -13.015625 C 5 -12.773438 5.3125 -12.453125 5.53125 -12.046875 L 8.15625 -6.984375 L 9.453125 -4.0625 C 9.460938 -4.03125 9.484375 -4.015625 9.515625 -4.015625 C 9.546875 -4.015625 9.554688 -4.03125 9.546875 -4.0625 C 9.265625 -6.300781 9.125 -7.9375 9.125 -8.96875 L 9.125 -11.859375 C 9.125 -12.285156 9.269531 -12.644531 9.5625 -12.9375 C 9.863281 -13.238281 10.222656 -13.390625 10.640625 -13.390625 C 11.066406 -13.390625 11.429688 -13.238281 11.734375 -12.9375 C 12.035156 -12.644531 12.1875 -12.285156 12.1875 -11.859375 L 12.1875 -1.53125 C 12.1875 -1.101562 12.035156 -0.738281 11.734375 -0.4375 C 11.429688 -0.144531 11.070312 0 10.65625 0 L 10.4375 0 C 9.96875 0 9.53125 -0.117188 9.125 -0.359375 C 8.726562 -0.609375 8.421875 -0.941406 8.203125 -1.359375 L 5.59375 -6.46875 L 4.3125 -9.359375 C 4.300781 -9.390625 4.28125 -9.40625 4.25 -9.40625 C 4.21875 -9.40625 4.203125 -9.390625 4.203125 -9.359375 C 4.210938 -9.171875 4.257812 -8.6875 4.34375 -7.90625 C 4.4375 -7.132812 4.503906 -6.484375 4.546875 -5.953125 C 4.585938 -5.429688 4.609375 -4.929688 4.609375 -4.453125 L 4.609375 -1.53125 C 4.609375 -1.101562 4.457031 -0.738281 4.15625 -0.4375 C 3.851562 -0.144531 3.488281 0 3.0625 0 C 2.644531 0 2.285156 -0.144531 1.984375 -0.4375 C 1.691406 -0.738281 1.546875 -1.101562 1.546875 -1.53125 Z M 1.546875 -1.53125 "/></g></g><g transform="translate(135.550777, 95.624994)"><g><path d="M 5.75 0.25 C 5.09375 0.25 4.460938 0.125 3.859375 -0.125 C 3.253906 -0.375 2.71875 -0.71875 2.25 -1.15625 C 1.78125 -1.601562 1.40625 -2.171875 1.125 -2.859375 C 0.851562 -3.546875 0.71875 -4.296875 0.71875 -5.109375 C 0.71875 -5.929688 0.851562 -6.6875 1.125 -7.375 C 1.40625 -8.070312 1.78125 -8.640625 2.25 -9.078125 C 2.71875 -9.523438 3.253906 -9.875 3.859375 -10.125 C 4.460938 -10.375 5.09375 -10.5 5.75 -10.5 C 6.394531 -10.5 7.015625 -10.375 7.609375 -10.125 C 8.210938 -9.875 8.75 -9.523438 9.21875 -9.078125 C 9.6875 -8.640625 10.054688 -8.070312 10.328125 -7.375 C 10.597656 -6.6875 10.734375 -5.929688 10.734375 -5.109375 C 10.734375 -4.296875 10.597656 -3.546875 10.328125 -2.859375 C 10.054688 -2.171875 9.6875 -1.601562 9.21875 -1.15625 C 8.75 -0.71875 8.210938 -0.375 7.609375 -0.125 C 7.015625 0.125 6.394531 0.25 5.75 0.25 Z M 5.75 -2.34375 C 6.320312 -2.34375 6.75 -2.582031 7.03125 -3.0625 C 7.320312 -3.550781 7.46875 -4.234375 7.46875 -5.109375 C 7.46875 -5.992188 7.320312 -6.679688 7.03125 -7.171875 C 6.75 -7.660156 6.320312 -7.90625 5.75 -7.90625 C 5.164062 -7.90625 4.722656 -7.660156 4.421875 -7.171875 C 4.128906 -6.679688 3.984375 -5.992188 3.984375 -5.109375 C 3.984375 -4.234375 4.128906 -3.550781 4.421875 -3.0625 C 4.722656 -2.582031 5.164062 -2.34375 5.75 -2.34375 Z M 5.75 -2.34375 "/></g></g><g transform="translate(147.011714, 95.624994)"><g/></g><g transform="translate(151.124995, 95.624994)"><g><path d="M 4.234375 0 C 3.785156 0 3.390625 -0.140625 3.046875 -0.421875 C 2.710938 -0.703125 2.503906 -1.066406 2.421875 -1.515625 L 0.53125 -11.890625 C 0.519531 -11.984375 0.515625 -12.066406 0.515625 -12.140625 C 0.515625 -12.421875 0.613281 -12.6875 0.8125 -12.9375 C 1.050781 -13.238281 1.375 -13.390625 1.78125 -13.390625 L 2.015625 -13.390625 C 2.453125 -13.390625 2.835938 -13.242188 3.171875 -12.953125 C 3.503906 -12.671875 3.703125 -12.316406 3.765625 -11.890625 L 4.390625 -7.296875 L 4.921875 -3.078125 C 4.929688 -3.054688 4.945312 -3.046875 4.96875 -3.046875 C 5 -3.046875 5.015625 -3.054688 5.015625 -3.078125 C 5.242188 -4.410156 5.503906 -5.816406 5.796875 -7.296875 L 6.875 -12.078125 C 6.957031 -12.460938 7.148438 -12.773438 7.453125 -13.015625 C 7.765625 -13.265625 8.117188 -13.390625 8.515625 -13.390625 C 8.910156 -13.390625 9.257812 -13.265625 9.5625 -13.015625 C 9.875 -12.773438 10.070312 -12.460938 10.15625 -12.078125 L 11.265625 -7.296875 C 11.367188 -6.773438 11.503906 -6.03125 11.671875 -5.0625 C 11.847656 -4.101562 11.972656 -3.445312 12.046875 -3.09375 C 12.046875 -3.0625 12.054688 -3.046875 12.078125 -3.046875 C 12.109375 -3.046875 12.125 -3.0625 12.125 -3.09375 C 12.195312 -3.632812 12.289062 -4.382812 12.40625 -5.34375 C 12.53125 -6.3125 12.609375 -6.960938 12.640625 -7.296875 L 13.296875 -11.890625 C 13.347656 -12.316406 13.539062 -12.671875 13.875 -12.953125 C 14.207031 -13.242188 14.59375 -13.390625 15.03125 -13.390625 C 15.425781 -13.390625 15.753906 -13.238281 16.015625 -12.9375 C 16.210938 -12.6875 16.3125 -12.414062 16.3125 -12.125 C 16.3125 -12.039062 16.304688 -11.960938 16.296875 -11.890625 L 14.5 -1.515625 C 14.414062 -1.078125 14.207031 -0.710938 13.875 -0.421875 C 13.539062 -0.140625 13.148438 0 12.703125 0 L 11.71875 0 C 11.28125 0 10.882812 -0.140625 10.53125 -0.421875 C 10.1875 -0.703125 9.96875 -1.0625 9.875 -1.5 L 8.984375 -5.84375 C 8.773438 -6.851562 8.601562 -7.867188 8.46875 -8.890625 C 8.457031 -8.929688 8.4375 -8.953125 8.40625 -8.953125 C 8.382812 -8.953125 8.375 -8.929688 8.375 -8.890625 C 8.113281 -7.304688 7.9375 -6.289062 7.84375 -5.84375 L 6.984375 -1.5 C 6.898438 -1.0625 6.679688 -0.703125 6.328125 -0.421875 C 5.984375 -0.140625 5.59375 0 5.15625 0 Z M 4.234375 0 "/></g></g><g transform="translate(167.94726, 95.624994)"><g><path d="M 2.828125 0 C 2.410156 0 2.050781 -0.144531 1.75 -0.4375 C 1.445312 -0.738281 1.296875 -1.101562 1.296875 -1.53125 L 1.296875 -8.9375 C 1.296875 -9.289062 1.421875 -9.597656 1.671875 -9.859375 C 1.929688 -10.117188 2.242188 -10.25 2.609375 -10.25 C 2.984375 -10.25 3.304688 -10.125 3.578125 -9.875 C 3.847656 -9.625 4.007812 -9.316406 4.0625 -8.953125 L 4.109375 -8.484375 C 4.109375 -8.460938 4.125 -8.453125 4.15625 -8.453125 C 4.1875 -8.453125 4.207031 -8.460938 4.21875 -8.484375 C 4.5625 -9.109375 4.976562 -9.585938 5.46875 -9.921875 C 5.957031 -10.265625 6.460938 -10.457031 6.984375 -10.5 C 7.003906 -10.5 7.023438 -10.5 7.046875 -10.5 C 7.398438 -10.5 7.675781 -10.335938 7.875 -10.015625 C 8.039062 -9.773438 8.125 -9.515625 8.125 -9.234375 C 8.125 -9.128906 8.113281 -9.015625 8.09375 -8.890625 C 8.019531 -8.554688 7.828125 -8.28125 7.515625 -8.0625 C 7.203125 -7.851562 6.835938 -7.722656 6.421875 -7.671875 C 5.609375 -7.546875 4.984375 -6.992188 4.546875 -6.015625 C 4.503906 -5.910156 4.484375 -5.796875 4.484375 -5.671875 L 4.484375 -1.53125 C 4.484375 -1.101562 4.332031 -0.738281 4.03125 -0.4375 C 3.738281 -0.144531 3.378906 0 2.953125 0 Z M 2.828125 0 "/></g></g><g transform="translate(176.296868, 95.624994)"><g><path d="M 5.75 0.25 C 5.09375 0.25 4.460938 0.125 3.859375 -0.125 C 3.253906 -0.375 2.71875 -0.71875 2.25 -1.15625 C 1.78125 -1.601562 1.40625 -2.171875 1.125 -2.859375 C 0.851562 -3.546875 0.71875 -4.296875 0.71875 -5.109375 C 0.71875 -5.929688 0.851562 -6.6875 1.125 -7.375 C 1.40625 -8.070312 1.78125 -8.640625 2.25 -9.078125 C 2.71875 -9.523438 3.253906 -9.875 3.859375 -10.125 C 4.460938 -10.375 5.09375 -10.5 5.75 -10.5 C 6.394531 -10.5 7.015625 -10.375 7.609375 -10.125 C 8.210938 -9.875 8.75 -9.523438 9.21875 -9.078125 C 9.6875 -8.640625 10.054688 -8.070312 10.328125 -7.375 C 10.597656 -6.6875 10.734375 -5.929688 10.734375 -5.109375 C 10.734375 -4.296875 10.597656 -3.546875 10.328125 -2.859375 C 10.054688 -2.171875 9.6875 -1.601562 9.21875 -1.15625 C 8.75 -0.71875 8.210938 -0.375 7.609375 -0.125 C 7.015625 0.125 6.394531 0.25 5.75 0.25 Z M 5.75 -2.34375 C 6.320312 -2.34375 6.75 -2.582031 7.03125 -3.0625 C 7.320312 -3.550781 7.46875 -4.234375 7.46875 -5.109375 C 7.46875 -5.992188 7.320312 -6.679688 7.03125 -7.171875 C 6.75 -7.660156 6.320312 -7.90625 5.75 -7.90625 C 5.164062 -7.90625 4.722656 -7.660156 4.421875 -7.171875 C 4.128906 -6.679688 3.984375 -5.992188 3.984375 -5.109375 C 3.984375 -4.234375 4.128906 -3.550781 4.421875 -3.0625 C 4.722656 -2.582031 5.164062 -2.34375 5.75 -2.34375 Z M 5.75 -2.34375 "/></g></g><g transform="translate(187.757805, 95.624994)"><g><path d="M 2.828125 0 C 2.410156 0 2.050781 -0.144531 1.75 -0.4375 C 1.445312 -0.738281 1.296875 -1.101562 1.296875 -1.53125 L 1.296875 -8.9375 C 1.296875 -9.289062 1.421875 -9.597656 1.671875 -9.859375 C 1.929688 -10.117188 2.242188 -10.25 2.609375 -10.25 L 2.75 -10.25 C 3.082031 -10.25 3.375 -10.140625 3.625 -9.921875 C 3.882812 -9.703125 4.039062 -9.425781 4.09375 -9.09375 L 4.109375 -9 C 4.109375 -8.976562 4.125 -8.96875 4.15625 -8.96875 C 4.1875 -8.96875 4.207031 -8.972656 4.21875 -8.984375 C 5.25 -9.992188 6.332031 -10.5 7.46875 -10.5 C 8.550781 -10.5 9.351562 -10.132812 9.875 -9.40625 C 10.394531 -8.675781 10.65625 -7.648438 10.65625 -6.328125 L 10.65625 -1.53125 C 10.65625 -1.101562 10.503906 -0.738281 10.203125 -0.4375 C 9.898438 -0.144531 9.539062 0 9.125 0 L 8.984375 0 C 8.554688 0 8.191406 -0.144531 7.890625 -0.4375 C 7.597656 -0.738281 7.453125 -1.101562 7.453125 -1.53125 L 7.453125 -5.9375 C 7.453125 -6.625 7.359375 -7.097656 7.171875 -7.359375 C 6.984375 -7.617188 6.679688 -7.75 6.265625 -7.75 C 5.941406 -7.75 5.660156 -7.6875 5.421875 -7.5625 C 5.179688 -7.445312 4.910156 -7.25 4.609375 -6.96875 C 4.523438 -6.882812 4.484375 -6.78125 4.484375 -6.65625 L 4.484375 -1.53125 C 4.484375 -1.101562 4.332031 -0.738281 4.03125 -0.4375 C 3.738281 -0.144531 3.378906 0 2.953125 0 Z M 2.828125 0 "/></g></g><g transform="translate(199.587883, 95.624994)"><g><path d="M 4.96875 4.359375 C 4.15625 4.359375 3.429688 4.269531 2.796875 4.09375 C 2.171875 3.925781 1.660156 3.644531 1.265625 3.25 C 0.867188 2.851562 0.671875 2.363281 0.671875 1.78125 C 0.671875 0.945312 1.144531 0.28125 2.09375 -0.21875 C 2.113281 -0.238281 2.125 -0.257812 2.125 -0.28125 C 2.125 -0.3125 2.113281 -0.335938 2.09375 -0.359375 C 1.5 -0.765625 1.203125 -1.34375 1.203125 -2.09375 C 1.203125 -2.445312 1.300781 -2.789062 1.5 -3.125 C 1.695312 -3.457031 1.957031 -3.738281 2.28125 -3.96875 C 2.3125 -4 2.328125 -4.023438 2.328125 -4.046875 C 2.328125 -4.066406 2.3125 -4.082031 2.28125 -4.09375 C 1.894531 -4.375 1.570312 -4.742188 1.3125 -5.203125 C 1.0625 -5.660156 0.9375 -6.164062 0.9375 -6.71875 C 0.9375 -7.507812 1.144531 -8.195312 1.5625 -8.78125 C 1.976562 -9.363281 2.5 -9.785156 3.125 -10.046875 C 3.757812 -10.304688 4.457031 -10.4375 5.21875 -10.4375 C 5.75 -10.4375 6.238281 -10.375 6.6875 -10.25 C 6.800781 -10.21875 6.910156 -10.203125 7.015625 -10.203125 L 9.4375 -10.203125 C 9.757812 -10.203125 10.03125 -10.085938 10.25 -9.859375 C 10.476562 -9.628906 10.59375 -9.351562 10.59375 -9.03125 C 10.59375 -8.707031 10.476562 -8.429688 10.25 -8.203125 C 10.03125 -7.984375 9.757812 -7.875 9.4375 -7.875 L 9.171875 -7.875 C 9.140625 -7.875 9.113281 -7.851562 9.09375 -7.8125 C 9.082031 -7.78125 9.082031 -7.75 9.09375 -7.71875 C 9.226562 -7.382812 9.296875 -7.019531 9.296875 -6.625 C 9.296875 -5.488281 8.914062 -4.628906 8.15625 -4.046875 C 7.40625 -3.472656 6.425781 -3.1875 5.21875 -3.1875 C 4.894531 -3.1875 4.550781 -3.234375 4.1875 -3.328125 C 4.070312 -3.359375 3.972656 -3.332031 3.890625 -3.25 C 3.753906 -3.101562 3.6875 -2.90625 3.6875 -2.65625 C 3.6875 -2.40625 3.800781 -2.226562 4.03125 -2.125 C 4.269531 -2.019531 4.660156 -1.96875 5.203125 -1.96875 L 6.828125 -1.96875 C 9.453125 -1.96875 10.765625 -1.085938 10.765625 0.671875 C 10.765625 1.753906 10.238281 2.640625 9.1875 3.328125 C 8.132812 4.015625 6.726562 4.359375 4.96875 4.359375 Z M 5.21875 -5.109375 C 5.601562 -5.109375 5.914062 -5.242188 6.15625 -5.515625 C 6.394531 -5.796875 6.515625 -6.195312 6.515625 -6.71875 C 6.515625 -7.226562 6.394531 -7.617188 6.15625 -7.890625 C 5.914062 -8.160156 5.601562 -8.296875 5.21875 -8.296875 C 4.832031 -8.296875 4.519531 -8.15625 4.28125 -7.875 C 4.039062 -7.601562 3.921875 -7.21875 3.921875 -6.71875 C 3.921875 -6.195312 4.039062 -5.796875 4.28125 -5.515625 C 4.519531 -5.242188 4.832031 -5.109375 5.21875 -5.109375 Z M 5.46875 2.359375 C 6.125 2.359375 6.660156 2.25 7.078125 2.03125 C 7.492188 1.8125 7.703125 1.539062 7.703125 1.21875 C 7.703125 0.9375 7.582031 0.738281 7.34375 0.625 C 7.101562 0.519531 6.722656 0.46875 6.203125 0.46875 L 5.234375 0.46875 C 4.660156 0.46875 4.234375 0.445312 3.953125 0.40625 C 3.921875 0.394531 3.894531 0.390625 3.875 0.390625 C 3.789062 0.390625 3.71875 0.414062 3.65625 0.46875 C 3.40625 0.71875 3.28125 0.984375 3.28125 1.265625 C 3.28125 1.628906 3.476562 1.898438 3.875 2.078125 C 4.269531 2.265625 4.800781 2.359375 5.46875 2.359375 Z M 5.46875 2.359375 "/></g></g><g transform="translate(210.662101, 95.624994)"><g/></g><g transform="translate(214.775382, 95.624994)"><g><path d="M 4.578125 -5.734375 C 4.554688 -5.679688 4.554688 -5.640625 4.578125 -5.609375 C 4.609375 -5.578125 4.644531 -5.5625 4.6875 -5.5625 L 7.078125 -5.5625 C 7.128906 -5.5625 7.164062 -5.578125 7.1875 -5.609375 C 7.207031 -5.640625 7.210938 -5.679688 7.203125 -5.734375 L 6.96875 -6.703125 C 6.84375 -7.171875 6.660156 -7.894531 6.421875 -8.875 C 6.191406 -9.851562 6.023438 -10.550781 5.921875 -10.96875 C 5.910156 -10.988281 5.894531 -11 5.875 -11 C 5.851562 -11 5.84375 -10.988281 5.84375 -10.96875 C 5.375 -8.976562 5.03125 -7.554688 4.8125 -6.703125 Z M 10.171875 0 C 9.722656 0 9.320312 -0.132812 8.96875 -0.40625 C 8.613281 -0.6875 8.378906 -1.046875 8.265625 -1.484375 L 7.90625 -2.90625 C 7.882812 -3.019531 7.816406 -3.078125 7.703125 -3.078125 L 4.078125 -3.078125 C 3.960938 -3.078125 3.894531 -3.019531 3.875 -2.90625 L 3.515625 -1.484375 C 3.398438 -1.046875 3.164062 -0.6875 2.8125 -0.40625 C 2.457031 -0.132812 2.050781 0 1.59375 0 L 1.390625 0 C 1.015625 0 0.707031 -0.148438 0.46875 -0.453125 C 0.332031 -0.648438 0.265625 -0.867188 0.265625 -1.109375 C 0.265625 -1.222656 0.28125 -1.335938 0.3125 -1.453125 L 3.5625 -11.9375 C 3.695312 -12.375 3.945312 -12.722656 4.3125 -12.984375 C 4.6875 -13.253906 5.101562 -13.390625 5.5625 -13.390625 L 6.34375 -13.390625 C 6.789062 -13.390625 7.195312 -13.253906 7.5625 -12.984375 C 7.9375 -12.722656 8.1875 -12.375 8.3125 -11.9375 L 11.5625 -1.453125 C 11.613281 -1.335938 11.640625 -1.222656 11.640625 -1.109375 C 11.640625 -0.867188 11.5625 -0.648438 11.40625 -0.453125 C 11.1875 -0.148438 10.882812 0 10.5 0 Z M 10.171875 0 "/></g></g><g transform="translate(226.640616, 95.624994)"><g><path d="M 2.828125 0 C 2.410156 0 2.050781 -0.144531 1.75 -0.4375 C 1.445312 -0.738281 1.296875 -1.101562 1.296875 -1.53125 L 1.296875 -8.9375 C 1.296875 -9.289062 1.421875 -9.597656 1.671875 -9.859375 C 1.929688 -10.117188 2.242188 -10.25 2.609375 -10.25 L 2.75 -10.25 C 3.082031 -10.25 3.375 -10.140625 3.625 -9.921875 C 3.882812 -9.703125 4.039062 -9.425781 4.09375 -9.09375 L 4.109375 -9 C 4.109375 -8.976562 4.125 -8.96875 4.15625 -8.96875 C 4.1875 -8.96875 4.207031 -8.972656 4.21875 -8.984375 C 5.25 -9.992188 6.332031 -10.5 7.46875 -10.5 C 8.550781 -10.5 9.351562 -10.132812 9.875 -9.40625 C 10.394531 -8.675781 10.65625 -7.648438 10.65625 -6.328125 L 10.65625 -1.53125 C 10.65625 -1.101562 10.503906 -0.738281 10.203125 -0.4375 C 9.898438 -0.144531 9.539062 0 9.125 0 L 8.984375 0 C 8.554688 0 8.191406 -0.144531 7.890625 -0.4375 C 7.597656 -0.738281 7.453125 -1.101562 7.453125 -1.53125 L 7.453125 -5.9375 C 7.453125 -6.625 7.359375 -7.097656 7.171875 -7.359375 C 6.984375 -7.617188 6.679688 -7.75 6.265625 -7.75 C 5.941406 -7.75 5.660156 -7.6875 5.421875 -7.5625 C 5.179688 -7.445312 4.910156 -7.25 4.609375 -6.96875 C 4.523438 -6.882812 4.484375 -6.78125 4.484375 -6.65625 L 4.484375 -1.53125 C 4.484375 -1.101562 4.332031 -0.738281 4.03125 -0.4375 C 3.738281 -0.144531 3.378906 0 2.953125 0 Z M 2.828125 0 "/></g></g><g transform="translate(238.470693, 95.624994)"><g><path d="M 4.359375 0.25 C 3.390625 0.25 2.414062 -0.00390625 1.4375 -0.515625 C 1.132812 -0.660156 0.953125 -0.910156 0.890625 -1.265625 C 0.878906 -1.335938 0.875 -1.410156 0.875 -1.484375 C 0.875 -1.734375 0.957031 -1.96875 1.125 -2.1875 C 1.3125 -2.445312 1.578125 -2.609375 1.921875 -2.671875 C 2.015625 -2.679688 2.101562 -2.6875 2.1875 -2.6875 C 2.425781 -2.6875 2.648438 -2.632812 2.859375 -2.53125 C 3.398438 -2.25 3.925781 -2.109375 4.4375 -2.109375 C 5.238281 -2.109375 5.640625 -2.378906 5.640625 -2.921875 C 5.640625 -3.003906 5.617188 -3.082031 5.578125 -3.15625 C 5.546875 -3.226562 5.488281 -3.300781 5.40625 -3.375 C 5.320312 -3.445312 5.242188 -3.507812 5.171875 -3.5625 C 5.097656 -3.613281 4.984375 -3.671875 4.828125 -3.734375 C 4.679688 -3.796875 4.5625 -3.847656 4.46875 -3.890625 C 4.382812 -3.929688 4.238281 -3.988281 4.03125 -4.0625 C 3.832031 -4.144531 3.691406 -4.203125 3.609375 -4.234375 C 3.253906 -4.378906 2.9375 -4.53125 2.65625 -4.6875 C 2.375 -4.84375 2.09375 -5.035156 1.8125 -5.265625 C 1.539062 -5.503906 1.328125 -5.789062 1.171875 -6.125 C 1.015625 -6.457031 0.9375 -6.832031 0.9375 -7.25 C 0.9375 -8.21875 1.296875 -9 2.015625 -9.59375 C 2.742188 -10.195312 3.707031 -10.5 4.90625 -10.5 C 5.832031 -10.5 6.71875 -10.273438 7.5625 -9.828125 C 7.851562 -9.671875 8.019531 -9.429688 8.0625 -9.109375 C 8.082031 -9.035156 8.09375 -8.96875 8.09375 -8.90625 C 8.09375 -8.65625 8.007812 -8.429688 7.84375 -8.234375 C 7.65625 -7.972656 7.390625 -7.8125 7.046875 -7.75 C 6.953125 -7.726562 6.851562 -7.71875 6.75 -7.71875 C 6.53125 -7.71875 6.3125 -7.769531 6.09375 -7.875 C 5.695312 -8.050781 5.335938 -8.140625 5.015625 -8.140625 C 4.285156 -8.140625 3.921875 -7.894531 3.921875 -7.40625 C 3.921875 -7.332031 3.929688 -7.265625 3.953125 -7.203125 C 3.972656 -7.148438 4.003906 -7.097656 4.046875 -7.046875 C 4.097656 -6.992188 4.144531 -6.941406 4.1875 -6.890625 C 4.238281 -6.847656 4.304688 -6.804688 4.390625 -6.765625 C 4.484375 -6.722656 4.566406 -6.679688 4.640625 -6.640625 C 4.710938 -6.609375 4.804688 -6.566406 4.921875 -6.515625 C 5.046875 -6.472656 5.148438 -6.4375 5.234375 -6.40625 C 5.316406 -6.375 5.425781 -6.332031 5.5625 -6.28125 C 5.707031 -6.238281 5.828125 -6.203125 5.921875 -6.171875 C 6.296875 -6.023438 6.617188 -5.878906 6.890625 -5.734375 C 7.171875 -5.585938 7.453125 -5.394531 7.734375 -5.15625 C 8.023438 -4.914062 8.242188 -4.625 8.390625 -4.28125 C 8.535156 -3.9375 8.609375 -3.539062 8.609375 -3.09375 C 8.609375 -2.113281 8.234375 -1.3125 7.484375 -0.6875 C 6.742188 -0.0625 5.703125 0.25 4.359375 0.25 Z M 4.359375 0.25 "/></g></g><g transform="translate(247.646474, 95.624994)"><g><path d="M 4.546875 0 C 4.109375 0 3.707031 -0.132812 3.34375 -0.40625 C 2.988281 -0.6875 2.757812 -1.046875 2.65625 -1.484375 L 0.859375 -8.75 C 0.835938 -8.851562 0.828125 -8.960938 0.828125 -9.078125 C 0.828125 -9.328125 0.914062 -9.566406 1.09375 -9.796875 C 1.320312 -10.097656 1.640625 -10.25 2.046875 -10.25 L 2.140625 -10.25 C 2.585938 -10.25 2.984375 -10.101562 3.328125 -9.8125 C 3.671875 -9.53125 3.882812 -9.171875 3.96875 -8.734375 L 4.59375 -5.65625 C 4.644531 -5.3125 4.710938 -4.800781 4.796875 -4.125 C 4.890625 -3.457031 4.960938 -2.960938 5.015625 -2.640625 C 5.023438 -2.597656 5.039062 -2.578125 5.0625 -2.578125 C 5.09375 -2.578125 5.109375 -2.597656 5.109375 -2.640625 C 5.378906 -4.148438 5.582031 -5.15625 5.71875 -5.65625 L 6.453125 -8.890625 C 6.535156 -9.273438 6.734375 -9.597656 7.046875 -9.859375 C 7.367188 -10.117188 7.726562 -10.25 8.125 -10.25 C 8.53125 -10.25 8.894531 -10.125 9.21875 -9.875 C 9.539062 -9.625 9.75 -9.296875 9.84375 -8.890625 L 10.625 -5.65625 C 10.71875 -5.269531 10.832031 -4.710938 10.96875 -3.984375 C 11.113281 -3.265625 11.203125 -2.816406 11.234375 -2.640625 C 11.242188 -2.597656 11.265625 -2.578125 11.296875 -2.578125 C 11.328125 -2.578125 11.347656 -2.597656 11.359375 -2.640625 C 11.378906 -2.835938 11.4375 -3.289062 11.53125 -4 C 11.625 -4.71875 11.710938 -5.269531 11.796875 -5.65625 L 12.390625 -8.796875 C 12.472656 -9.210938 12.679688 -9.554688 13.015625 -9.828125 C 13.347656 -10.109375 13.726562 -10.25 14.15625 -10.25 C 14.539062 -10.25 14.847656 -10.097656 15.078125 -9.796875 C 15.242188 -9.578125 15.328125 -9.34375 15.328125 -9.09375 C 15.328125 -9 15.316406 -8.898438 15.296875 -8.796875 L 13.59375 -1.5 C 13.488281 -1.0625 13.257812 -0.703125 12.90625 -0.421875 C 12.550781 -0.140625 12.148438 0 11.703125 0 L 11.015625 0 C 10.578125 0 10.179688 -0.140625 9.828125 -0.421875 C 9.472656 -0.703125 9.25 -1.0625 9.15625 -1.5 L 8.609375 -3.90625 C 8.460938 -4.6875 8.289062 -5.675781 8.09375 -6.875 C 8.09375 -6.894531 8.078125 -6.90625 8.046875 -6.90625 C 8.015625 -6.90625 7.992188 -6.894531 7.984375 -6.875 C 7.804688 -5.65625 7.644531 -4.664062 7.5 -3.90625 L 7 -1.5 C 6.90625 -1.0625 6.679688 -0.703125 6.328125 -0.421875 C 5.984375 -0.140625 5.59375 0 5.15625 0 Z M 4.546875 0 "/></g></g><g transform="translate(263.783192, 95.624994)"><g><path d="M 5.921875 0.25 C 4.410156 0.25 3.164062 -0.226562 2.1875 -1.1875 C 1.207031 -2.15625 0.71875 -3.460938 0.71875 -5.109375 C 0.71875 -5.921875 0.851562 -6.671875 1.125 -7.359375 C 1.40625 -8.046875 1.769531 -8.613281 2.21875 -9.0625 C 2.675781 -9.507812 3.191406 -9.859375 3.765625 -10.109375 C 4.347656 -10.367188 4.953125 -10.5 5.578125 -10.5 C 6.984375 -10.5 8.0625 -10.050781 8.8125 -9.15625 C 9.582031 -8.238281 9.96875 -7.070312 9.96875 -5.65625 C 9.96875 -5.25 9.800781 -4.898438 9.46875 -4.609375 C 9.144531 -4.328125 8.753906 -4.1875 8.296875 -4.1875 L 3.984375 -4.1875 C 3.941406 -4.1875 3.90625 -4.164062 3.875 -4.125 C 3.84375 -4.082031 3.832031 -4.046875 3.84375 -4.015625 C 4.164062 -2.804688 5.003906 -2.203125 6.359375 -2.203125 C 6.765625 -2.203125 7.160156 -2.265625 7.546875 -2.390625 C 7.679688 -2.441406 7.832031 -2.46875 8 -2.46875 C 8.125 -2.46875 8.257812 -2.445312 8.40625 -2.40625 C 8.695312 -2.3125 8.921875 -2.132812 9.078125 -1.875 C 9.171875 -1.6875 9.21875 -1.492188 9.21875 -1.296875 C 9.21875 -1.097656 9.171875 -0.914062 9.078125 -0.75 C 8.960938 -0.582031 8.820312 -0.457031 8.65625 -0.375 C 7.75 0.0390625 6.835938 0.25 5.921875 0.25 Z M 3.796875 -6.40625 C 3.796875 -6.375 3.804688 -6.34375 3.828125 -6.3125 C 3.859375 -6.28125 3.894531 -6.265625 3.9375 -6.265625 L 7.078125 -6.265625 C 7.128906 -6.265625 7.171875 -6.28125 7.203125 -6.3125 C 7.234375 -6.34375 7.25 -6.382812 7.25 -6.4375 C 7.21875 -6.9375 7.070312 -7.328125 6.8125 -7.609375 C 6.550781 -7.898438 6.160156 -8.046875 5.640625 -8.046875 C 5.191406 -8.046875 4.804688 -7.910156 4.484375 -7.640625 C 4.023438 -7.265625 3.796875 -6.851562 3.796875 -6.40625 Z M 3.796875 -6.40625 "/></g></g><g transform="translate(274.505847, 95.624994)"><g><path d="M 2.828125 0 C 2.410156 0 2.050781 -0.144531 1.75 -0.4375 C 1.445312 -0.738281 1.296875 -1.101562 1.296875 -1.53125 L 1.296875 -8.9375 C 1.296875 -9.289062 1.421875 -9.597656 1.671875 -9.859375 C 1.929688 -10.117188 2.242188 -10.25 2.609375 -10.25 C 2.984375 -10.25 3.304688 -10.125 3.578125 -9.875 C 3.847656 -9.625 4.007812 -9.316406 4.0625 -8.953125 L 4.109375 -8.484375 C 4.109375 -8.460938 4.125 -8.453125 4.15625 -8.453125 C 4.1875 -8.453125 4.207031 -8.460938 4.21875 -8.484375 C 4.5625 -9.109375 4.976562 -9.585938 5.46875 -9.921875 C 5.957031 -10.265625 6.460938 -10.457031 6.984375 -10.5 C 7.003906 -10.5 7.023438 -10.5 7.046875 -10.5 C 7.398438 -10.5 7.675781 -10.335938 7.875 -10.015625 C 8.039062 -9.773438 8.125 -9.515625 8.125 -9.234375 C 8.125 -9.128906 8.113281 -9.015625 8.09375 -8.890625 C 8.019531 -8.554688 7.828125 -8.28125 7.515625 -8.0625 C 7.203125 -7.851562 6.835938 -7.722656 6.421875 -7.671875 C 5.609375 -7.546875 4.984375 -6.992188 4.546875 -6.015625 C 4.503906 -5.910156 4.484375 -5.796875 4.484375 -5.671875 L 4.484375 -1.53125 C 4.484375 -1.101562 4.332031 -0.738281 4.03125 -0.4375 C 3.738281 -0.144531 3.378906 0 2.953125 0 Z M 2.828125 0 "/></g></g><g transform="translate(282.855456, 95.624994)"><g/></g><g transform="translate(286.968737, 95.624994)"><g><path d="M 4.234375 -6.734375 C 4.234375 -5.347656 4.484375 -4.269531 4.984375 -3.5 C 5.492188 -2.726562 6.191406 -2.34375 7.078125 -2.34375 C 7.960938 -2.34375 8.660156 -2.726562 9.171875 -3.5 C 9.679688 -4.269531 9.9375 -5.347656 9.9375 -6.734375 C 9.9375 -8.023438 9.679688 -9.03125 9.171875 -9.75 C 8.660156 -10.476562 7.960938 -10.84375 7.078125 -10.84375 C 6.191406 -10.84375 5.492188 -10.476562 4.984375 -9.75 C 4.484375 -9.03125 4.234375 -8.023438 4.234375 -6.734375 Z M 12.234375 1.265625 C 12.285156 1.265625 12.328125 1.265625 12.359375 1.265625 C 12.648438 1.265625 12.921875 1.335938 13.171875 1.484375 C 13.453125 1.648438 13.625 1.890625 13.6875 2.203125 C 13.71875 2.316406 13.734375 2.429688 13.734375 2.546875 C 13.734375 2.773438 13.679688 2.988281 13.578125 3.1875 C 13.410156 3.488281 13.15625 3.671875 12.8125 3.734375 C 12.425781 3.785156 12 3.8125 11.53125 3.8125 C 10.15625 3.8125 8.96875 3.492188 7.96875 2.859375 C 6.96875 2.234375 6.210938 1.378906 5.703125 0.296875 C 5.640625 0.191406 5.554688 0.128906 5.453125 0.109375 C 4.054688 -0.242188 2.953125 -1.015625 2.140625 -2.203125 C 1.335938 -3.390625 0.9375 -4.898438 0.9375 -6.734375 C 0.9375 -8.890625 1.492188 -10.570312 2.609375 -11.78125 C 3.734375 -13 5.222656 -13.609375 7.078125 -13.609375 C 8.929688 -13.609375 10.414062 -13 11.53125 -11.78125 C 12.65625 -10.570312 13.21875 -8.890625 13.21875 -6.734375 C 13.21875 -5.015625 12.859375 -3.570312 12.140625 -2.40625 C 11.421875 -1.25 10.429688 -0.457031 9.171875 -0.03125 C 9.128906 -0.0195312 9.101562 0.00390625 9.09375 0.046875 C 9.082031 0.0859375 9.085938 0.125 9.109375 0.15625 C 9.398438 0.539062 9.796875 0.820312 10.296875 1 C 10.804688 1.1875 11.34375 1.28125 11.90625 1.28125 C 12.007812 1.28125 12.117188 1.273438 12.234375 1.265625 Z M 12.234375 1.265625 "/></g></g><g transform="translate(301.101549, 95.624994)"><g><path d="M 4.375 0.25 C 3.289062 0.25 2.488281 -0.109375 1.96875 -0.828125 C 1.457031 -1.554688 1.203125 -2.582031 1.203125 -3.90625 L 1.203125 -8.71875 C 1.203125 -9.144531 1.347656 -9.503906 1.640625 -9.796875 C 1.941406 -10.097656 2.300781 -10.25 2.71875 -10.25 L 2.859375 -10.25 C 3.285156 -10.25 3.644531 -10.097656 3.9375 -9.796875 C 4.238281 -9.503906 4.390625 -9.144531 4.390625 -8.71875 L 4.390625 -4.3125 C 4.390625 -3.613281 4.476562 -3.132812 4.65625 -2.875 C 4.84375 -2.613281 5.148438 -2.484375 5.578125 -2.484375 C 5.910156 -2.484375 6.203125 -2.550781 6.453125 -2.6875 C 6.703125 -2.832031 6.945312 -3.066406 7.1875 -3.390625 C 7.257812 -3.472656 7.296875 -3.578125 7.296875 -3.703125 L 7.296875 -8.71875 C 7.296875 -9.144531 7.441406 -9.503906 7.734375 -9.796875 C 8.035156 -10.097656 8.398438 -10.25 8.828125 -10.25 L 8.96875 -10.25 C 9.382812 -10.25 9.742188 -10.097656 10.046875 -9.796875 C 10.347656 -9.503906 10.5 -9.144531 10.5 -8.71875 L 10.5 -1.296875 C 10.5 -0.929688 10.367188 -0.625 10.109375 -0.375 C 9.859375 -0.125 9.550781 0 9.1875 0 L 9.15625 0 C 8.789062 0 8.46875 -0.117188 8.1875 -0.359375 C 7.90625 -0.597656 7.738281 -0.898438 7.6875 -1.265625 L 7.671875 -1.375 C 7.648438 -1.394531 7.628906 -1.40625 7.609375 -1.40625 C 7.585938 -1.40625 7.570312 -1.394531 7.5625 -1.375 C 7.101562 -0.84375 6.617188 -0.4375 6.109375 -0.15625 C 5.609375 0.113281 5.03125 0.25 4.375 0.25 Z M 4.375 0.25 "/></g></g><g transform="translate(312.861314, 95.624994)"><g><path d="M 2.828125 0 C 2.410156 0 2.050781 -0.144531 1.75 -0.4375 C 1.445312 -0.738281 1.296875 -1.101562 1.296875 -1.53125 L 1.296875 -8.71875 C 1.296875 -9.144531 1.445312 -9.503906 1.75 -9.796875 C 2.050781 -10.097656 2.410156 -10.25 2.828125 -10.25 L 2.953125 -10.25 C 3.378906 -10.25 3.738281 -10.097656 4.03125 -9.796875 C 4.332031 -9.503906 4.484375 -9.144531 4.484375 -8.71875 L 4.484375 -1.53125 C 4.484375 -1.101562 4.332031 -0.738281 4.03125 -0.4375 C 3.738281 -0.144531 3.378906 0 2.953125 0 Z M 2.90625 -11.671875 C 2.363281 -11.671875 1.921875 -11.820312 1.578125 -12.125 C 1.234375 -12.4375 1.0625 -12.832031 1.0625 -13.3125 C 1.0625 -13.789062 1.234375 -14.179688 1.578125 -14.484375 C 1.921875 -14.796875 2.363281 -14.953125 2.90625 -14.953125 C 3.425781 -14.953125 3.859375 -14.796875 4.203125 -14.484375 C 4.546875 -14.179688 4.71875 -13.789062 4.71875 -13.3125 C 4.71875 -12.832031 4.546875 -12.4375 4.203125 -12.125 C 3.859375 -11.820312 3.425781 -11.671875 2.90625 -11.671875 Z M 2.90625 -11.671875 "/></g></g><g transform="translate(318.626938, 95.624994)"><g><path d="M 1.65625 0 C 1.414062 0 1.210938 -0.0820312 1.046875 -0.25 C 0.878906 -0.414062 0.796875 -0.617188 0.796875 -0.859375 C 0.796875 -1.421875 0.957031 -1.9375 1.28125 -2.40625 L 4.859375 -7.59375 C 4.878906 -7.625 4.878906 -7.65625 4.859375 -7.6875 C 4.835938 -7.71875 4.8125 -7.734375 4.78125 -7.734375 L 2.515625 -7.734375 C 2.160156 -7.734375 1.863281 -7.851562 1.625 -8.09375 C 1.382812 -8.34375 1.265625 -8.640625 1.265625 -8.984375 C 1.265625 -9.335938 1.382812 -9.632812 1.625 -9.875 C 1.863281 -10.125 2.160156 -10.25 2.515625 -10.25 L 8.09375 -10.25 C 8.320312 -10.25 8.519531 -10.160156 8.6875 -9.984375 C 8.863281 -9.816406 8.953125 -9.617188 8.953125 -9.390625 C 8.953125 -8.816406 8.785156 -8.296875 8.453125 -7.828125 L 4.890625 -2.65625 C 4.867188 -2.625 4.863281 -2.585938 4.875 -2.546875 C 4.894531 -2.515625 4.921875 -2.5 4.953125 -2.5 L 7.828125 -2.5 C 8.160156 -2.5 8.453125 -2.378906 8.703125 -2.140625 C 8.953125 -1.898438 9.078125 -1.601562 9.078125 -1.25 C 9.078125 -0.90625 8.953125 -0.609375 8.703125 -0.359375 C 8.453125 -0.117188 8.160156 0 7.828125 0 Z M 1.65625 0 "/></g></g></g></svg>