<svg xmlns="http://www.w3.org/2000/svg" xmlns:xlink="http://www.w3.org/1999/xlink" width="600" zoomAndPan="magnify" viewBox="0 0 450 179.999997" height="240" preserveAspectRatio="xMidYMid meet" version="1.0"><defs><g/><clipPath id="3e8e3214fb"><path d="M 71 0 L 106 0 L 106 35.519531 L 71 35.519531 Z M 71 0 " clip-rule="nonzero"/></clipPath><clipPath id="99b2008227"><rect x="0" width="200" y="0" height="36"/></clipPath><clipPath id="2cc428f4cf"><path d="M 1 0.441406 L 34 0.441406 L 34 34 L 1 34 Z M 1 0.441406 " clip-rule="nonzero"/></clipPath><clipPath id="47acd8ca1b"><path d="M 68 1 L 102 1 L 102 34.761719 L 68 34.761719 Z M 68 1 " clip-rule="nonzero"/></clipPath><clipPath id="b47f047d43"><rect x="0" width="193" y="0" height="35"/></clipPath></defs><rect x="-45" width="540" fill="#ffffff" y="-18" height="215.999996" fill-opacity="1"/><rect x="-45" width="540" fill="#ffffff" y="-18" height="215.999996" fill-opacity="1"/><g transform="matrix(1, 0, 0, 1, 125, 72)"><g clip-path="url(#99b2008227)"><g fill="#0097b2" fill-opacity="1"><g transform="translate(0.607858, 30.439074)"><g><path d="M 25.515625 -6.515625 L 20.21875 -6.515625 C 20.851562 -5.773438 21.554688 -5.15625 22.328125 -4.65625 C 22.859375 -4.90625 23.921875 -5.523438 25.515625 -6.515625 Z M 11.859375 -6.515625 L 11.859375 -2.328125 C 12.492188 -2.367188 13.472656 -2.441406 14.796875 -2.546875 C 16.117188 -2.648438 17.101562 -2.726562 17.75 -2.78125 C 16.675781 -3.9375 15.769531 -5.179688 15.03125 -6.515625 Z M 20.109375 -20.34375 L 24.015625 -20.34375 C 21.160156 -22.175781 18.957031 -23.957031 17.40625 -25.6875 C 15.738281 -23.863281 13.566406 -22.082031 10.890625 -20.34375 L 14.828125 -20.34375 L 14.828125 -22.578125 L 20.109375 -22.578125 Z M 11.859375 -16.4375 L 11.859375 -15.25 L 22.984375 -15.25 L 22.984375 -16.4375 Z M 11.859375 -10.40625 L 22.984375 -10.40625 L 22.984375 -11.6875 L 11.859375 -11.6875 Z M 28.671875 -8.734375 L 32.34375 -5.65625 C 31.101562 -4.851562 29.25 -3.800781 26.78125 -2.5 C 28.84375 -1.832031 31.1875 -1.363281 33.8125 -1.09375 C 33.28125 -0.570312 32.71875 0.117188 32.125 0.984375 C 31.53125 1.859375 31.078125 2.648438 30.765625 3.359375 C 25.460938 2.492188 21.351562 0.675781 18.4375 -2.09375 L 18.5 1.640625 C 14.5 2.054688 9.671875 2.503906 4.015625 2.984375 L 3.328125 -1.671875 C 5.078125 -1.785156 6.238281 -1.867188 6.8125 -1.921875 L 6.8125 -17.984375 C 5.351562 -17.253906 4.25 -16.738281 3.5 -16.4375 C 3.195312 -17.0625 2.753906 -17.789062 2.171875 -18.625 C 1.585938 -19.457031 1.046875 -20.132812 0.546875 -20.65625 C 3.335938 -21.65625 6.019531 -23.039062 8.59375 -24.8125 C 11.175781 -26.582031 13.175781 -28.359375 14.59375 -30.140625 L 19.796875 -30.140625 C 23.816406 -25.710938 28.75 -22.664062 34.59375 -21 C 33.632812 -19.988281 32.550781 -18.484375 31.34375 -16.484375 C 30.726562 -16.703125 29.65625 -17.203125 28.125 -17.984375 L 28.125 -8.328125 Z M 28.671875 -8.734375 "/></g></g></g><g fill="#0097b2" fill-opacity="1"><g transform="translate(35.679423, 30.439074)"><g><path d="M 0.40625 -9.390625 L 10.25 -23.296875 C 12.03125 -21.578125 13.863281 -19.9375 15.75 -18.375 C 17.644531 -16.8125 19.644531 -15.367188 21.75 -14.046875 C 25.75 -11.515625 30.007812 -9.492188 34.53125 -7.984375 L 32.984375 -2.09375 C 28.804688 -3.207031 24.867188 -4.894531 21.171875 -7.15625 C 17.648438 -9.300781 14.289062 -11.6875 11.09375 -14.3125 L 5.03125 -5.625 Z M 21.34375 -17.953125 L 19.25 -23.46875 L 21.75 -24.390625 L 23.9375 -18.8125 Z M 25.6875 -19.390625 L 23.640625 -25.078125 L 26.203125 -26 L 28.390625 -20.25 Z M 25.6875 -19.390625 "/></g></g></g><g clip-path="url(#3e8e3214fb)"><g fill="#0097b2" fill-opacity="1"><g transform="translate(70.750988, 30.439074)"><g><path d="M 0.6875 -22.609375 L 8.015625 -22.953125 L 8.703125 -29.5 L 14.453125 -29.21875 L 13.90625 -23.21875 L 18.390625 -23.46875 L 18.390625 -18.15625 L 29.1875 -19.796875 L 30.734375 -15.59375 L 26.109375 -10.40625 L 22.578125 -11.515625 L 24.421875 -13.90625 L 17.671875 -12.921875 L 17.296875 -17.5 L 13.328125 -17.265625 L 11.234375 4.765625 L 5.203125 4.3125 L 7.40625 -16.921875 L 1 -16.578125 Z M 17.40625 -6.34375 C 20.070312 -5.925781 22.773438 -5.6875 25.515625 -5.625 C 27.003906 -5.664062 28.484375 -5.785156 29.953125 -5.984375 C 31.429688 -6.191406 32.910156 -6.445312 34.390625 -6.75 L 34.671875 -1.265625 C 31.472656 -0.554688 28.238281 -0.238281 24.96875 -0.3125 C 22.25 -0.3125 19.585938 -0.6875 16.984375 -1.4375 Z M 17.40625 -6.34375 "/></g></g></g></g><g fill="#0097b2" fill-opacity="1"><g transform="translate(105.822554, 30.439074)"><g><path d="M 6.84375 -28.703125 L 21.859375 -26.3125 L 20.375 -21.109375 L 5.34375 -23.359375 Z M 3.078125 -19.625 L 9.453125 -19.484375 L 9.3125 -11.234375 C 11.894531 -13.453125 15.015625 -14.648438 18.671875 -14.828125 C 19.878906 -14.847656 21.066406 -14.691406 22.234375 -14.359375 C 23.398438 -14.035156 24.375 -13.460938 25.15625 -12.640625 C 25.945312 -11.816406 26.46875 -10.867188 26.71875 -9.796875 C 27.039062 -8.285156 27.023438 -6.78125 26.671875 -5.28125 C 26.316406 -3.789062 25.679688 -2.40625 24.765625 -1.125 C 23.285156 0.8125 21.617188 2.59375 19.765625 4.21875 L 14.3125 1.03125 C 15.707031 -0.289062 17.066406 -1.675781 18.390625 -3.125 C 18.898438 -3.738281 19.300781 -4.414062 19.59375 -5.15625 C 19.894531 -5.894531 20.03125 -6.65625 20 -7.4375 C 20 -7.9375 19.816406 -8.375 19.453125 -8.75 C 19.085938 -9.125 18.617188 -9.34375 18.046875 -9.40625 C 17.484375 -9.476562 16.9375 -9.472656 16.40625 -9.390625 C 15.488281 -9.160156 14.628906 -8.828125 13.828125 -8.390625 C 13.035156 -7.953125 12.265625 -7.488281 11.515625 -7 C 10.773438 -6.507812 10.050781 -5.988281 9.34375 -5.4375 C 8.644531 -4.894531 7.960938 -4.347656 7.296875 -3.796875 L 3.390625 -5.375 Z M 3.078125 -19.625 "/></g></g></g><g fill="#0097b2" fill-opacity="1"><g transform="translate(135.82518, 30.439074)"><g><path d="M 25.34375 -28.46875 L 30.59375 -24.765625 C 27.914062 -21.046875 25.273438 -17.539062 22.671875 -14.25 L 28.875 -9.1875 L 24.765625 -4.140625 L 18.59375 -9.421875 C 18.09375 -8.867188 17.582031 -8.332031 17.0625 -7.8125 C 13.289062 -4.0625 9.382812 -0.335938 5.34375 3.359375 L 0.921875 -2.15625 C 4.847656 -5.21875 8.550781 -8.40625 12.03125 -11.71875 C 12.625 -12.3125 13.203125 -12.914062 13.765625 -13.53125 L 7.78125 -18.640625 L 11.640625 -23.265625 L 17.78125 -18.265625 C 20.269531 -21.453125 22.789062 -24.851562 25.34375 -28.46875 Z M 25.34375 -28.46875 "/></g></g></g><g fill="#0097b2" fill-opacity="1"><g transform="translate(168.225283, 30.439074)"><g><path d="M 2.5625 -26.515625 L 27.84375 -27.09375 L 27.671875 -21.140625 L 16.09375 -20.96875 C 16.050781 -19.726562 15.992188 -18.175781 15.921875 -16.3125 L 27.671875 -16.578125 L 27.546875 -10.625 L 15.75 -10.453125 C 15.75 -9.535156 15.738281 -8.617188 15.71875 -7.703125 C 15.738281 -7.296875 15.753906 -6.875 15.765625 -6.4375 C 15.785156 -6.007812 15.882812 -5.597656 16.0625 -5.203125 C 16.25 -4.816406 16.546875 -4.535156 16.953125 -4.359375 C 17.367188 -4.191406 17.789062 -4.097656 18.21875 -4.078125 C 19.570312 -3.941406 20.929688 -3.914062 22.296875 -4 C 23.671875 -4.09375 25.039062 -4.242188 26.40625 -4.453125 L 25.828125 1.375 C 23.867188 1.507812 21.90625 1.5625 19.9375 1.53125 C 17.96875 1.507812 16.023438 1.296875 14.109375 0.890625 C 12.804688 0.617188 11.828125 -0.0625 11.171875 -1.15625 C 10.523438 -2.257812 10.25 -3.453125 10.34375 -4.734375 C 10.34375 -6.597656 10.351562 -8.476562 10.375 -10.375 L 2.296875 -10.25 L 2.4375 -16.03125 L 10.40625 -16.203125 C 10.382812 -17.753906 10.398438 -19.296875 10.453125 -20.828125 L 2.4375 -20.71875 Z M 2.5625 -26.515625 "/></g></g></g></g></g><g transform="matrix(1, 0, 0, 1, 125, 73)"><g clip-path="url(#b47f047d43)"><g clip-path="url(#2cc428f4cf)"><g fill="#000000" fill-opacity="1"><g transform="translate(0.607858, 29.787684)"><g><path d="M 24.59375 -6.265625 L 19.46875 -6.265625 C 20.082031 -5.566406 20.765625 -4.972656 21.515625 -4.484375 C 22.023438 -4.734375 23.050781 -5.328125 24.59375 -6.265625 Z M 11.421875 -6.265625 L 11.421875 -2.25 C 12.035156 -2.289062 12.976562 -2.359375 14.25 -2.453125 C 15.53125 -2.554688 16.476562 -2.628906 17.09375 -2.671875 C 16.0625 -3.796875 15.191406 -4.992188 14.484375 -6.265625 Z M 19.375 -19.609375 L 23.140625 -19.609375 C 20.390625 -21.367188 18.265625 -23.082031 16.765625 -24.75 C 15.160156 -22.988281 13.070312 -21.273438 10.5 -19.609375 L 14.296875 -19.609375 L 14.296875 -21.75 L 19.375 -21.75 Z M 11.421875 -15.84375 L 11.421875 -14.6875 L 22.140625 -14.6875 L 22.140625 -15.84375 Z M 11.421875 -10.03125 L 22.140625 -10.03125 L 22.140625 -11.25 L 11.421875 -11.25 Z M 27.625 -8.421875 L 31.15625 -5.453125 C 29.96875 -4.679688 28.1875 -3.664062 25.8125 -2.40625 C 27.789062 -1.769531 30.046875 -1.320312 32.578125 -1.0625 C 32.066406 -0.550781 31.523438 0.117188 30.953125 0.953125 C 30.378906 1.796875 29.941406 2.554688 29.640625 3.234375 C 24.535156 2.398438 20.570312 0.648438 17.75 -2.015625 L 17.828125 1.578125 C 13.972656 1.972656 9.316406 2.40625 3.859375 2.875 L 3.203125 -1.625 C 4.898438 -1.726562 6.019531 -1.800781 6.5625 -1.84375 L 6.5625 -17.328125 C 5.15625 -16.617188 4.085938 -16.125 3.359375 -15.84375 C 3.078125 -16.4375 2.65625 -17.132812 2.09375 -17.9375 C 1.53125 -18.738281 1.007812 -19.394531 0.53125 -19.90625 C 3.207031 -20.875 5.789062 -22.207031 8.28125 -23.90625 C 10.769531 -25.613281 12.695312 -27.328125 14.0625 -29.046875 L 19.078125 -29.046875 C 22.953125 -24.773438 27.703125 -21.835938 33.328125 -20.234375 C 32.410156 -19.265625 31.367188 -17.8125 30.203125 -15.875 C 29.609375 -16.09375 28.570312 -16.578125 27.09375 -17.328125 L 27.09375 -8.015625 Z M 27.625 -8.421875 "/></g></g></g></g><g fill="#000000" fill-opacity="1"><g transform="translate(34.411746, 29.787684)"><g><path d="M 0.390625 -9.046875 L 9.875 -22.4375 C 11.582031 -20.789062 13.347656 -19.210938 15.171875 -17.703125 C 17.003906 -16.203125 18.929688 -14.8125 20.953125 -13.53125 C 24.804688 -11.09375 28.910156 -9.144531 33.265625 -7.6875 L 31.78125 -2.015625 C 27.757812 -3.085938 23.960938 -4.710938 20.390625 -6.890625 C 17.003906 -8.960938 13.769531 -11.265625 10.6875 -13.796875 L 4.859375 -5.40625 Z M 20.5625 -17.296875 L 18.546875 -22.609375 L 20.953125 -23.5 L 23.078125 -18.125 Z M 24.75 -18.6875 L 22.765625 -24.15625 L 25.25 -25.046875 L 27.359375 -19.5 Z M 24.75 -18.6875 "/></g></g></g><g clip-path="url(#47acd8ca1b)"><g fill="#000000" fill-opacity="1"><g transform="translate(68.215635, 29.787684)"><g><path d="M 0.65625 -21.78125 L 7.71875 -22.109375 L 8.390625 -28.421875 L 13.921875 -28.15625 L 13.40625 -22.375 L 17.71875 -22.609375 L 17.71875 -17.5 L 28.125 -19.078125 L 29.609375 -15.015625 L 25.15625 -10.03125 L 21.75 -11.09375 L 23.53125 -13.40625 L 17.03125 -12.4375 L 16.671875 -16.859375 L 12.84375 -16.640625 L 10.828125 4.59375 L 5.015625 4.15625 L 7.125 -16.296875 L 0.953125 -15.96875 Z M 16.765625 -6.109375 C 19.335938 -5.710938 21.945312 -5.476562 24.59375 -5.40625 C 26.019531 -5.457031 27.441406 -5.582031 28.859375 -5.78125 C 30.273438 -5.976562 31.703125 -6.21875 33.140625 -6.5 L 33.40625 -1.21875 C 30.320312 -0.539062 27.207031 -0.234375 24.0625 -0.296875 C 21.445312 -0.296875 18.882812 -0.660156 16.375 -1.390625 Z M 16.765625 -6.109375 "/></g></g></g></g><g fill="#000000" fill-opacity="1"><g transform="translate(102.019523, 29.787684)"><g><path d="M 6.59375 -27.65625 L 21.0625 -25.34375 L 19.640625 -20.328125 L 5.15625 -22.515625 Z M 2.96875 -18.90625 L 9.109375 -18.78125 L 8.984375 -10.828125 C 11.460938 -12.960938 14.460938 -14.117188 17.984375 -14.296875 C 19.148438 -14.316406 20.296875 -14.164062 21.421875 -13.84375 C 22.546875 -13.519531 23.484375 -12.960938 24.234375 -12.171875 C 24.992188 -11.378906 25.5 -10.46875 25.75 -9.4375 C 26.050781 -7.988281 26.03125 -6.539062 25.6875 -5.09375 C 25.351562 -3.65625 24.742188 -2.320312 23.859375 -1.09375 C 22.429688 0.78125 20.828125 2.5 19.046875 4.0625 L 13.796875 0.984375 C 15.140625 -0.285156 16.445312 -1.613281 17.71875 -3 C 18.207031 -3.59375 18.59375 -4.25 18.875 -4.96875 C 19.164062 -5.6875 19.300781 -6.414062 19.28125 -7.15625 C 19.28125 -7.644531 19.101562 -8.070312 18.75 -8.4375 C 18.394531 -8.800781 17.941406 -9.015625 17.390625 -9.078125 C 16.835938 -9.140625 16.3125 -9.128906 15.8125 -9.046875 C 14.925781 -8.828125 14.097656 -8.503906 13.328125 -8.078125 C 12.554688 -7.660156 11.8125 -7.21875 11.09375 -6.75 C 10.382812 -6.28125 9.6875 -5.78125 9 -5.25 C 8.320312 -4.71875 7.664062 -4.1875 7.03125 -3.65625 L 3.265625 -5.1875 Z M 2.96875 -18.90625 "/></g></g></g><g fill="#000000" fill-opacity="1"><g transform="translate(130.937692, 29.787684)"><g><path d="M 24.421875 -27.421875 L 29.46875 -23.859375 C 26.894531 -20.273438 24.351562 -16.898438 21.84375 -13.734375 L 27.828125 -8.84375 L 23.859375 -4 L 17.921875 -9.078125 C 17.441406 -8.546875 16.945312 -8.03125 16.4375 -7.53125 C 12.800781 -3.914062 9.039062 -0.328125 5.15625 3.234375 L 0.890625 -2.078125 C 4.671875 -5.023438 8.234375 -8.09375 11.578125 -11.28125 C 12.148438 -11.851562 12.710938 -12.4375 13.265625 -13.03125 L 7.484375 -17.953125 L 11.21875 -22.40625 L 17.125 -17.59375 C 19.53125 -20.675781 21.960938 -23.953125 24.421875 -27.421875 Z M 24.421875 -27.421875 "/></g></g></g><g fill="#000000" fill-opacity="1"><g transform="translate(162.166679, 29.787684)"><g><path d="M 2.46875 -25.546875 L 26.828125 -26.109375 L 26.671875 -20.359375 L 15.515625 -20.203125 C 15.472656 -19.015625 15.414062 -17.515625 15.34375 -15.703125 L 26.671875 -15.96875 L 26.53125 -10.234375 L 15.1875 -10.0625 C 15.1875 -9.1875 15.175781 -8.304688 15.15625 -7.421875 C 15.175781 -7.023438 15.191406 -6.617188 15.203125 -6.203125 C 15.210938 -5.785156 15.304688 -5.390625 15.484375 -5.015625 C 15.660156 -4.640625 15.945312 -4.367188 16.34375 -4.203125 C 16.738281 -4.035156 17.144531 -3.941406 17.5625 -3.921875 C 18.851562 -3.796875 20.160156 -3.773438 21.484375 -3.859375 C 22.804688 -3.953125 24.128906 -4.097656 25.453125 -4.296875 L 24.890625 1.3125 C 22.992188 1.445312 21.097656 1.503906 19.203125 1.484375 C 17.316406 1.460938 15.445312 1.253906 13.59375 0.859375 C 12.34375 0.597656 11.398438 -0.0546875 10.765625 -1.109375 C 10.140625 -2.171875 9.875 -3.316406 9.96875 -4.546875 C 9.96875 -6.359375 9.976562 -8.175781 10 -10 L 2.21875 -9.875 L 2.34375 -15.453125 L 10.03125 -15.609375 C 10.007812 -17.109375 10.019531 -18.59375 10.0625 -20.0625 L 2.34375 -19.96875 Z M 2.46875 -25.546875 "/></g></g></g></g></g></svg>