<svg xmlns="http://www.w3.org/2000/svg" xmlns:xlink="http://www.w3.org/1999/xlink" width="600" zoomAndPan="magnify" viewBox="0 0 450 179.999997" height="240" preserveAspectRatio="xMidYMid meet" version="1.0"><defs><g/></defs><rect x="-45" width="540" fill="#ffffff" y="-18" height="215.999996" fill-opacity="1"/><rect x="-45" width="540" fill="#ffffff" y="-18" height="215.999996" fill-opacity="1"/><g fill="#095a7d" fill-opacity="1"><g transform="translate(194.894524, 101.624994)"><g><path d="M 4.5625 7.09375 C 4.394531 7.09375 4.226562 7.082031 4.0625 7.0625 C 3.476562 7.039062 3.019531 6.78125 2.6875 6.28125 C 2.457031 5.90625 2.34375 5.519531 2.34375 5.125 C 2.34375 4.9375 2.363281 4.75 2.40625 4.5625 C 2.632812 3.601562 3.53125 2.925781 5.09375 2.53125 C 6.113281 2.28125 6.800781 1.59375 7.15625 0.46875 L 7.34375 -0.15625 C 7.40625 -0.363281 7.394531 -0.5625 7.3125 -0.75 L 1.4375 -15.59375 C 1.351562 -15.84375 1.3125 -16.082031 1.3125 -16.3125 C 1.3125 -16.664062 1.414062 -17 1.625 -17.3125 C 2 -17.851562 2.507812 -18.125 3.15625 -18.125 L 3.46875 -18.125 C 4.257812 -18.125 4.984375 -17.882812 5.640625 -17.40625 C 6.296875 -16.925781 6.75 -16.300781 7 -15.53125 L 8.59375 -10.59375 C 8.71875 -10.21875 9.1875 -8.519531 10 -5.5 C 10.019531 -5.457031 10.054688 -5.4375 10.109375 -5.4375 C 10.160156 -5.4375 10.1875 -5.457031 10.1875 -5.5 C 10.394531 -6.5 10.789062 -8.195312 11.375 -10.59375 L 12.75 -15.53125 C 12.957031 -16.300781 13.378906 -16.925781 14.015625 -17.40625 C 14.648438 -17.882812 15.375 -18.125 16.1875 -18.125 C 16.832031 -18.125 17.351562 -17.851562 17.75 -17.3125 C 18 -16.976562 18.125 -16.613281 18.125 -16.21875 C 18.125 -16.007812 18.082031 -15.789062 18 -15.5625 L 12.625 0.09375 C 11.6875 2.570312 10.628906 4.359375 9.453125 5.453125 C 8.273438 6.546875 6.644531 7.09375 4.5625 7.09375 Z M 4.5625 7.09375 "/></g></g></g><g fill="#095a7d" fill-opacity="1"><g transform="translate(214.202308, 101.624994)"><g><path d="M 10.21875 0.4375 C 9.050781 0.4375 7.929688 0.21875 6.859375 -0.21875 C 5.785156 -0.65625 4.832031 -1.269531 4 -2.0625 C 3.164062 -2.851562 2.503906 -3.859375 2.015625 -5.078125 C 1.523438 -6.296875 1.28125 -7.632812 1.28125 -9.09375 C 1.28125 -10.550781 1.523438 -11.894531 2.015625 -13.125 C 2.503906 -14.351562 3.164062 -15.363281 4 -16.15625 C 4.832031 -16.945312 5.785156 -17.5625 6.859375 -18 C 7.929688 -18.4375 9.050781 -18.65625 10.21875 -18.65625 C 11.363281 -18.65625 12.46875 -18.4375 13.53125 -18 C 14.59375 -17.5625 15.539062 -16.945312 16.375 -16.15625 C 17.207031 -15.363281 17.867188 -14.351562 18.359375 -13.125 C 18.847656 -11.894531 19.09375 -10.550781 19.09375 -9.09375 C 19.09375 -7.632812 18.847656 -6.296875 18.359375 -5.078125 C 17.867188 -3.859375 17.207031 -2.851562 16.375 -2.0625 C 15.539062 -1.269531 14.59375 -0.65625 13.53125 -0.21875 C 12.46875 0.21875 11.363281 0.4375 10.21875 0.4375 Z M 10.21875 -4.15625 C 11.238281 -4.15625 12.003906 -4.585938 12.515625 -5.453125 C 13.023438 -6.316406 13.28125 -7.53125 13.28125 -9.09375 C 13.28125 -10.65625 13.023438 -11.875 12.515625 -12.75 C 12.003906 -13.625 11.238281 -14.0625 10.21875 -14.0625 C 9.175781 -14.0625 8.394531 -13.625 7.875 -12.75 C 7.351562 -11.875 7.09375 -10.65625 7.09375 -9.09375 C 7.09375 -7.53125 7.351562 -6.316406 7.875 -5.453125 C 8.394531 -4.585938 9.175781 -4.15625 10.21875 -4.15625 Z M 10.21875 -4.15625 "/></g></g></g><g fill="#095a7d" fill-opacity="1"><g transform="translate(234.572332, 101.624994)"><g><path d="M 1.375 7.15625 C 0.957031 7.15625 0.570312 7.132812 0.21875 7.09375 C -0.363281 7.050781 -0.8125 6.769531 -1.125 6.25 C -1.332031 5.875 -1.4375 5.488281 -1.4375 5.09375 C -1.4375 4.925781 -1.414062 4.738281 -1.375 4.53125 C -1.289062 4.195312 -1.097656 3.894531 -0.796875 3.625 C -0.492188 3.351562 -0.203125 3.15625 0.078125 3.03125 C 0.359375 2.90625 0.738281 2.757812 1.21875 2.59375 C 1.988281 2.34375 2.375 1.425781 2.375 -0.15625 L 2.375 -15.40625 C 2.375 -16.15625 2.640625 -16.796875 3.171875 -17.328125 C 3.703125 -17.859375 4.34375 -18.125 5.09375 -18.125 L 5.375 -18.125 C 6.144531 -18.125 6.789062 -17.859375 7.3125 -17.328125 C 7.832031 -16.796875 8.09375 -16.15625 8.09375 -15.40625 L 8.09375 -0.34375 C 8.09375 0.71875 7.984375 1.679688 7.765625 2.546875 C 7.546875 3.410156 7.1875 4.195312 6.6875 4.90625 C 6.1875 5.613281 5.488281 6.164062 4.59375 6.5625 C 3.695312 6.957031 2.625 7.15625 1.375 7.15625 Z M 5.25 -20.65625 C 4.289062 -20.65625 3.503906 -20.929688 2.890625 -21.484375 C 2.273438 -22.035156 1.96875 -22.726562 1.96875 -23.5625 C 1.96875 -24.4375 2.273438 -25.148438 2.890625 -25.703125 C 3.503906 -26.253906 4.289062 -26.53125 5.25 -26.53125 C 6.1875 -26.53125 6.960938 -26.253906 7.578125 -25.703125 C 8.191406 -25.148438 8.5 -24.4375 8.5 -23.5625 C 8.5 -22.726562 8.191406 -22.035156 7.578125 -21.484375 C 6.960938 -20.929688 6.1875 -20.65625 5.25 -20.65625 Z M 5.25 -20.65625 "/></g></g></g><g fill="#095a7d" fill-opacity="1"><g transform="translate(244.851072, 101.624994)"><g><path d="M 5.03125 0 C 4.28125 0 3.640625 -0.265625 3.109375 -0.796875 C 2.578125 -1.328125 2.3125 -1.96875 2.3125 -2.71875 L 2.3125 -15.5 C 2.3125 -16.25 2.578125 -16.890625 3.109375 -17.421875 C 3.640625 -17.953125 4.28125 -18.21875 5.03125 -18.21875 L 5.25 -18.21875 C 6 -18.21875 6.640625 -17.953125 7.171875 -17.421875 C 7.703125 -16.890625 7.96875 -16.25 7.96875 -15.5 L 7.96875 -2.71875 C 7.96875 -1.96875 7.703125 -1.328125 7.171875 -0.796875 C 6.640625 -0.265625 6 0 5.25 0 Z M 5.15625 -20.75 C 4.195312 -20.75 3.410156 -21.019531 2.796875 -21.5625 C 2.179688 -22.101562 1.875 -22.800781 1.875 -23.65625 C 1.875 -24.507812 2.179688 -25.210938 2.796875 -25.765625 C 3.410156 -26.316406 4.195312 -26.59375 5.15625 -26.59375 C 6.09375 -26.59375 6.863281 -26.316406 7.46875 -25.765625 C 8.070312 -25.210938 8.375 -24.507812 8.375 -23.65625 C 8.375 -22.800781 8.070312 -22.101562 7.46875 -21.5625 C 6.863281 -21.019531 6.09375 -20.75 5.15625 -20.75 Z M 5.15625 -20.75 "/></g></g></g></svg>